<?xml version="1.0" standalone="no"?>
<!DOCTYPE svg PUBLIC "-//W3C//DTD SVG 1.1//EN" "http://www.w3.org/Graphics/SVG/1.1/DTD/svg11.dtd" >
<svg xmlns="http://www.w3.org/2000/svg">
<metadata></metadata>
<defs>
<font id="graunbold" horiz-adv-x="1071" >
<font-face units-per-em="2048" ascent="1536" descent="-512" />
<missing-glyph horiz-adv-x="409" />
<glyph horiz-adv-x="0" />
<glyph unicode="&#xd;" horiz-adv-x="409" />
<glyph horiz-adv-x="0" />
<glyph horiz-adv-x="0" />
<glyph unicode=" "  horiz-adv-x="409" />
<glyph unicode="&#x09;" horiz-adv-x="409" />
<glyph unicode="&#xa0;" horiz-adv-x="409" />
<glyph unicode="!" horiz-adv-x="573" d="M91 531.5q1 7.5 1 15.5q4 47 7 89t3 89q4 143 4 286.5t3 286.5q0 14 -1.5 27.5t-1.5 28.5q0 14 1.5 30.5t5.5 28.5q6 23 14 42t16 42q16 8 26.5 14.5t18.5 10.5q23 0 44.5 -1t43.5 1q6 2 12.5 9t14.5 15q4 -4 8 -5t8 -5q6 -8 13.5 -8t15.5 -2q20 -4 37.5 -5t36.5 5 q16 6 24 -17q2 -2 2.5 -3t2.5 -3q4 -41 15 -74.5t9 -74.5q-2 -47 1 -96.5t3 -96.5q0 -31 -3 -60.5t-5 -58.5v-65q2 -14 3 -26.5t-1 -26.5q-2 -63 -3 -130t-3 -132q0 -27 -1 -58t-5 -59q-4 -23 -13.5 -43.5t-19.5 -42.5q-2 -4 -8 -7l-12 -6q-33 -4 -67 -8t-69 -8q-12 0 -28 8 q-29 12 -51 8q-6 -2 -17 3q-12 4 -24.5 9t-26.5 9q-33 8 -33 49q-2 8 -1 15.5zM104 70q2 31 3.5 64.5t3.5 68.5q2 6 5 14t7 16t9 15.5t11 17.5q10 4 21.5 7t21.5 8q6 -4 15.5 -7.5t23.5 0.5q20 4 42 2t42 -2q8 0 15 -6q33 -27 71 -14q10 4 23 -8l9 -13.5t7 -13.5 q10 -43 17.5 -87t-0.5 -85q-4 -27 -14.5 -38t-35.5 -11q-37 2 -71 -16q-20 -12 -43 2q-16 10 -35 12t-39 4q-20 4 -41.5 10t-44.5 17q-27 12 -23 43z" />
<glyph unicode="&#x22;" horiz-adv-x="993" d="M88 1317q-2 39 9.5 72.5t39.5 62.5q16 14 33.5 28.5t34.5 26.5q10 6 20.5 8.5t20.5 4.5q14 4 27.5 5t27.5 3q4 0 10 2t11 -2q20 -10 41.5 -18.5t37.5 -28.5q23 -29 39.5 -56.5t26.5 -62.5q2 -10 1 -23.5t-1 -29.5q6 -33 -10.5 -60.5t-38.5 -52.5q-29 -33 -54.5 -68.5 t-41.5 -76.5q-18 -49 -66.5 -58.5t-89.5 11.5q-4 2 -8 11t-2 17q0 12 4 23.5t8 21.5q8 20 15 39t16 39q8 18 6 24.5t-21 16.5q-23 10 -47 27q-45 31 -49 94zM541 1372q12 49 40.5 87t80.5 57q39 12 75.5 14t75.5 -2q16 0 25 -8q20 -20 38.5 -41t26.5 -49q4 -16 9.5 -33 t9.5 -33t-2 -29q-16 -37 -33 -72.5t-35 -70.5q-16 -29 -31.5 -55.5t-32.5 -55.5q-10 -20 -23 -34.5t-42 -8.5q-4 2 -10 -1t-11 -5q-23 -10 -43 4q-10 10 -9 21.5t5 21.5q8 23 16.5 42.5t16.5 39.5q4 8 7 16.5t7 20.5q-10 2 -18 3t-16 1q-47 2 -78 41q-25 29 -42.5 58.5 t-6.5 70.5z" />
<glyph unicode="#" horiz-adv-x="1828" d="M61 512q6 0 13.5 1t17.5 3q4 25 18.5 30t34.5 7q47 2 94.5 6t94.5 8q8 0 14 2t12.5 6.5t1.5 14.5q-4 8 -18 8q-39 0 -78 -6q-41 -6 -80 -1t-80 17l-4 4t-10 6l24.5 3.5t20.5 1.5q55 -4 110.5 2t110.5 10q18 4 25 20q14 47 26.5 96.5t28.5 104.5q-33 4 -59.5 5t-52.5 5 q-25 4 -51.5 5t-51.5 16q2 4 2 12q25 -4 50.5 -7t50.5 -7q25 -2 50 -3t52 1q-10 2 -20.5 3t-20.5 3q-29 4 -58.5 8t-58.5 8q-23 4 -28.5 11.5t-10.5 33.5q-2 16 -3 31.5t3 32.5q6 43 -8 78q-14 29 4 59q6 10 9.5 22.5t7.5 22.5q8 25 32 23q43 -4 86.5 -9.5t83.5 -11.5h11 q49 -4 70.5 10.5t39.5 67.5q16 49 29.5 99t30.5 102q4 10 6 19t6 20q2 0 3 -1.5t3 -1.5q2 -10 2 -17t2 -17l4 -2q4 6 6.5 14t6.5 12t11 5t13 3q4 -10 6 -19t6 -24q10 10 14.5 16.5t8.5 10.5q14 -4 25.5 -5t23.5 -3q0 -2 2 -4t4 -6q4 4 8.5 6t8.5 6q10 -20 21 -37.5t34 -19.5 q2 -16 4 -29.5t2 -28.5q0 -14 -3 -26.5t-7 -26.5q4 0 5 -1t3 -1q4 14 9 28.5t9 28.5q4 8 9 25q14 25 30 12q4 -4 8.5 -12t4.5 -15q-2 -16 -5 -33.5t-6 -33.5q-8 -39 -5 -44t38 -3q57 2 113.5 1t116.5 -1q18 0 35.5 -2t35.5 -4q27 -2 39 26q10 27 18.5 50.5t16.5 48.5 q10 33 21.5 65.5t23.5 63.5q49 12 70 -37l14 7t10 7q25 -25 56 -31q8 -2 13 -6t11 -8q14 -10 27.5 -18.5t23.5 -24.5q4 -4 11.5 -3t11.5 1q39 0 33 -39q-4 -23 -9.5 -45.5t-9.5 -44.5q29 -12 57.5 -5t55.5 -11q-10 -18 -20.5 -22.5t-24.5 -0.5q-35 12 -68 -2q-4 -4 -10 -9 t-6 -9q2 -14 22 -11q16 2 33 4t33 2q27 2 37 -8t16 -41q4 -23 0 -46t2 -46q4 -6 -6 -16q-2 -4 -5 -7t-3 -6q8 -29 2 -56t10 -52q-10 -14 -20.5 -25.5t-20.5 -25.5q-18 -25 -51 -25q-39 -4 -76 -5t-76 -3q-33 0 -45 -37q-10 -37 -23 -72.5t-24 -72.5q-4 -10 -6 -21.5 t-6 -25.5q18 -2 36.5 -2h35.5h13t13 -3q10 -4 15 -18q0 -4 -4.5 -9t-8.5 -5q-39 -8 -86 -13q-12 0 -16 -2t-14 -12q14 -14 28.5 -14h28.5q25 0 46.5 -3t41.5 -18q10 -10 16 -22q6 -10 5 -23.5t14 -23.5q4 -4 -1 -22.5t-14 -24.5q-4 -4 -10 -9.5t-16 -13.5q25 -6 45 -14 q-4 -6 -6 -10.5t-6 -8.5q-10 -8 -13.5 -16t6.5 -23q4 -4 5.5 -11t-0.5 -11q-8 -16 -16.5 -32.5t-18.5 -33.5q-4 -8 -13 -8q-23 -4 -45 -9t-45 -7q-29 -4 -56.5 -3t-55.5 3q-16 0 -22.5 -7.5t-12.5 -21.5q-10 -35 -23.5 -68.5t-27.5 -68.5q-8 -20 -17.5 -22.5t-25.5 3.5 q-10 4 -18.5 3t-18.5 1q-23 2 -44.5 3.5t-43.5 3.5q-6 23 -19.5 28.5t-31.5 10.5q-16 2 -33 8t-29 24q-2 4 -11 5t-20 6q6 23 12.5 43t10.5 43q-33 10 -63.5 13t-63.5 -5q-10 -4 -23.5 -3t-23.5 1l-154 6q-27 2 -39 -31q-8 -29 -18 -54.5t-21 -53.5q-6 -18 -18 -25.5 t-29 -11.5q-29 -6 -56.5 -6h-55.5q-10 0 -17.5 3t-15.5 7q-10 4 -18.5 8t-18.5 4q-16 0 -31.5 3t-29.5 13q-8 6 -18.5 9.5l-22.5 7.5q4 35 17 63.5t22 63.5q-16 10 -35 12t-37.5 2t-37.5 1t-38 9q10 14 18.5 10.5t12.5 -1.5q-4 10 -9.5 17t-9.5 17q-8 27 -10 51.5t6 53.5 q4 12 2 27.5t11 25.5q-6 20 -19.5 20.5t-23.5 4.5q-2 14 -3.5 26.5t-3.5 28.5zM190 233h13v3q-4 0 -6.5 1t-6.5 1v-5zM662 233h30q0 2 2 3h-32v-3zM702 569l17.5 -7t17.5 -5q14 -4 27.5 -4h28.5q31 -2 61.5 -4t63.5 -4h108q14 0 21.5 6t3.5 24h-58q-63 4 -124.5 6.5 t-125.5 6.5q-10 0 -20.5 -2t-20.5 -4v-13zM717 633l6 -3t6 -1q59 -4 118.5 -5t119.5 -6h71q31 0 37 33q16 49 29.5 97.5t28.5 97.5v18q-10 0 -18.5 1t-18.5 1q-74 -2 -146.5 -3t-146.5 -3q-27 0 -33 -31q-12 -43 -24.5 -85t-24.5 -85q-2 -6 -2 -13t-2 -13zM815 227h41v2h-41 v-2zM895 1221q4 -2 6 -4.5t4 -2.5q86 -2 171 -2h171q4 0 5 2.5t5 4.5v10q-16 2 -31.5 3t-31.5 5q-18 2 -36.5 5t-37.5 3q-29 0 -58.5 -2t-57.5 -4h-84q-6 -2 -14.5 -2t-10.5 -16zM924 221q0 -2 2 -2h10v2h-12zM1012 887h55q2 0 2 2h-57v-2z" />
<glyph unicode="$" horiz-adv-x="1458" d="M55 447.5q2 11.5 2 23.5q2 18 8.5 23.5t28.5 3.5v43q16 4 17.5 18t9.5 31q12 -10 20.5 -18.5t20.5 -18.5q10 16 2 31.5t-2 31.5q6 -8 11 -15t15 -15q2 8 4.5 17t4.5 15q14 -4 26.5 -8t22.5 -10q6 -4 11 -7t11 -7q10 -6 18.5 -14.5t20.5 -6.5q8 0 12 -12q31 -45 73 -76 t87 -55q16 -10 36 -15.5t40 -9.5q18 -6 23 15q4 8 4 14t2 16q0 25 -1 50.5t1 50.5q2 16 4 31.5t4 31.5q0 14 4 25q0 16 -23 26q-61 10 -120.5 34t-114.5 57q-23 16 -46.5 31.5t-45.5 35.5q-53 43 -80 98.5t-37 120.5q-6 33 -7 62.5t3 60.5q4 57 32.5 104.5t69.5 88.5 q35 31 76 55.5t84 44.5q20 10 38.5 19.5t41.5 17.5q25 10 51.5 16t52.5 17q20 4 24.5 9t4.5 25q2 23 4 44.5t4 43.5q0 14 3 22.5t20 12.5q2 0 4 6.5t6 10.5q6 -18 18.5 -22.5t22.5 -2.5q23 4 44.5 1t43.5 -5q14 -2 27.5 -10t29.5 -15q8 -4 19 -4q37 0 51 -37q18 -31 12 -71 q-4 -23 -1 -28t26 -11q78 -18 144.5 -58t131.5 -85q27 -16 46.5 -41t39.5 -52q18 -23 12.5 -45t-32.5 -39q-10 -8 -19.5 -17t-17.5 -19q-45 -51 -113 -48q-35 2 -69.5 7.5t-67.5 21.5q-23 12 -48.5 18.5t-49.5 14.5q-2 -10 -3 -15.5t-1 -11.5v-112q0 -20 4 -26.5t24 -10.5 q18 -4 38 -5t40 -3q70 -10 131.5 -37t110.5 -80q33 -35 63.5 -71t49.5 -81q33 -72 41 -144.5t-17 -148.5q-8 -23 -13 -43t-13 -43q-6 -14 -13.5 -25t-23.5 -18q-8 -4 -13.5 -10t-15.5 -14q16 29 28.5 54.5t24.5 53.5q-2 0 -2 1t-4 1q-4 -10 -11 -20t-13 -21q-4 -10 -9.5 -19 t-13.5 -19q-47 -76 -114.5 -123t-151.5 -76q-20 -8 -42 -15.5t-44 -11.5q-16 -4 -21.5 -13t-3.5 -28q0 -23 1 -46t1 -48q-2 -18 -5 -22.5t-21 -8.5q-4 0 -21 -4q-29 -14 -62.5 -15t-68.5 7q-4 6 -18 6q-20 -8 -39 -2t-39 10q-29 4 -31 37v41t-2 41t-5 24.5t-24 10.5 q-35 10 -65.5 20.5t-61.5 22.5q-6 4 -12 7t-16 9h45q-25 12 -44.5 22.5t-39.5 20.5q-37 16 -77 32t-75 32q-109 55 -162 158q-6 16 -3 30.5t-1 28.5q-4 10 -2 21.5zM504 1077q18 -12 33.5 -21.5t31.5 -19.5q2 2 3 2t3 2q0 18 2.5 36t-6.5 38q-18 -4 -34.5 -15.5t-32.5 -21.5 zM893 360q6 0 17.5 4.5t23.5 8.5t21.5 9t11.5 7l2 4q-2 12 6 16.5t14 12.5q25 25 29 55.5t-14 52.5q-16 23 -35 39.5t-47 24.5q-27 8 -29 -19v-49v-166z" />
<glyph unicode="%" horiz-adv-x="1333" d="M79 207.5q1 13.5 15 32.5q23 33 46.5 63.5t45.5 63.5q6 12 12.5 24t14.5 27q10 14 16.5 27.5t16.5 25.5q23 35 45 66.5t45 64.5q12 16 25.5 34.5t27.5 35.5q23 31 44.5 61.5t43.5 59.5q35 43 66.5 87t66.5 85q23 29 44.5 53t43.5 51q57 61 113.5 120.5t106.5 125.5 q14 16 29.5 32.5t29.5 32.5q51 -25 104 -6q14 4 17.5 -3t7.5 -17q6 4 12 5t15 5q0 -23 10 -32t26 -19q4 4 10.5 9t14.5 11q4 -16 8 -27.5t8 -23.5q2 2 27 8q-6 -14 -11 -24.5t-12 -26.5q12 4 20.5 7t18.5 7q-12 -66 -40.5 -121t-73.5 -102q-53 -55 -103.5 -111.5 t-103.5 -113.5q-12 -14 -24.5 -29.5t-22.5 -30.5q-35 -41 -67 -78.5t-60 -78.5q-35 -55 -77 -103.5t-79 -101.5q-16 -23 -35.5 -42t-38.5 -42q-29 -31 -55.5 -61.5t-54.5 -59.5q-31 -33 -54.5 -68.5t-48.5 -72.5q-6 -8 -16 -19q-10 6 -19.5 11.5t-17.5 9.5q-4 2 -9 4t-9 6 q-16 10 -35 23.5t-35 23.5q-4 4 -9 5t-7 5q-10 23 -28.5 38.5t-35.5 33.5q-16 16 -15 29.5zM186 1262q4 8 0 18q-6 41 11.5 67.5t46.5 49.5q23 20 51.5 29.5t56.5 15.5q10 4 23.5 2t23.5 -6q35 -10 64 -28.5t53 -45.5q35 -43 33 -90v-27h2q-2 -23 -3 -43t-3 -41 q-2 -10 -6 -19t-15 -14q-4 0 -7 -5t-7 -9q-8 -10 -13 -20.5t-14 -20.5q-23 -29 -54.5 -39t-66.5 0q-29 10 -51 8q-35 -4 -57.5 11.5t-36.5 44.5q-18 39 -28.5 78t-2.5 84zM276 1222.5q5 -34.5 21 -67.5q4 -8 13 -12l18 -8q6 -2 13 -1t15 1q4 0 11.5 -1t15.5 1 q33 6 53.5 24.5t7.5 54.5q-4 10 -4 20.5t-4 20.5q-16 88 -110 72q-27 -6 -39 -33q-16 -37 -11 -71.5zM830.5 237.5q0.5 53.5 33.5 102.5q10 16 16.5 32.5t18.5 33.5q18 23 40 31.5t48 13.5q39 8 75 -0.5t71 -28.5q12 -12 20 -16q47 -29 65.5 -70t18.5 -94q0 -35 -8 -66 t-31 -57q-10 -10 -16 -23.5t-13 -23.5q-27 -31 -54.5 -50.5t-72.5 -15.5q-31 2 -59.5 6t-56.5 19q-29 16 -48.5 36.5t-35.5 47.5q-6 4 -8 14q-4 55 -3.5 108.5zM930 210.5q6 -20.5 20 -38.5q23 -29 60 -29q16 2 28.5 1t28.5 -1q6 0 12 -1t13 -1q16 0 22 4.5t12 20.5 q2 4 4.5 10t2.5 10q0 14 2 27.5t-2 26.5q-6 14 -7.5 26.5t-5.5 26.5q0 10 -10 14q-18 16 -40.5 27.5t-55.5 11.5q-23 4 -39 -24q-2 -2 -5 -4.5t-3 -6.5q-10 -16 -19.5 -27.5t-13.5 -27.5q-10 -25 -4 -45.5z" />
<glyph unicode="&#x26;" horiz-adv-x="1337" d="M76 414.5q6 23.5 10 50.5q12 63 43 119q39 76 100 137q16 16 33 30.5t33 30.5q14 10 27.5 22.5t27.5 24.5q-41 -20 -72.5 -47.5t-60.5 -56.5q-31 -33 -58.5 -65.5t-47.5 -71.5q-2 0 -3.5 1t-3.5 1q2 6 4.5 11t6.5 11q16 23 33.5 46.5t33.5 46.5q23 25 45.5 46t44.5 42 q12 14 25.5 23t28.5 20q12 8 13 11t-3 23q4 -4 8 -6l8 -4q10 0 13 2q2 2 2 10q-2 8 -13 21q-16 25 -32.5 48.5t-32.5 47.5q-14 27 -25.5 53.5t-15.5 55.5q-10 39 2 71q18 47 47 78q12 16 14 23q2 4 8 10q18 20 36 39.5t36 38.5q14 12 28.5 23.5t29.5 23.5q16 12 32.5 15 t32.5 7q35 4 66.5 7.5t66.5 5.5q16 2 31.5 1t32.5 -3q86 -12 149 -82q16 -16 30.5 -34.5t27.5 -37.5q59 -86 36 -188q-8 -33 -16 -58q-4 -10 -9 -22t-18 -19q-2 0 -6 -8q-29 -41 -60.5 -74.5t-64.5 -68.5q-8 -6 -13 -12.5t-13 -14.5q6 -8 11 -14t11 -14q20 -23 41 -44.5 t41 -44.5q23 -23 45.5 -47t44.5 -49q20 -23 27.5 -22.5t28.5 22.5q8 6 15 12.5t17 10.5l22.5 18t18.5 21q10 14 23.5 16t25.5 6h7q10 -6 23.5 -11t25.5 -9q16 10 23 6t12 -23q4 -12 16 -26q4 -4 9 -3t9 3q4 6 10.5 9t12.5 -1t6 -12.5t-4 -14.5q0 -8 -8 -16l-4 -8t-4 -11 q8 6 14 7q-2 -4 -4 -9.5t-6 -13.5q6 2 14 6q-6 -29 -25 -53q-23 -31 -46 -58.5t-46 -56.5q-6 -10 -11 -18t-7 -19q-2 -10 4 -24q16 -20 30.5 -41t30.5 -41q6 -10 15.5 -19.5t17.5 -19.5q4 -8 9 -15.5t12 -15.5q4 -10 8 -18t8 -17q-4 -10 -13.5 -11t-19.5 -3v-12 q-4 -16 -16 -27q-12 -4 -20.5 -10t-10.5 -21q-10 2 -17 6.5t-16 -6.5q-8 -8 -12 -17t6 -19q-20 -18 -35.5 -10t-27.5 18q-16 -16 -22.5 -16.5t-22.5 16.5q-23 18 -42.5 38.5t-35.5 45.5q-10 16 -21.5 30.5t-23.5 30.5q-10 -6 -18.5 -12t-16.5 -10q-55 -37 -113.5 -68 t-122.5 -49q-100 -29 -208 -16q-88 6 -162 38q-39 16 -70 42t-59 55q-68 78 -78 184q0 12 -2 18q-8 29 -2 52.5zM336 391.5q2 -16.5 12 -29.5q16 -16 30.5 -28t35.5 -19q35 -10 68.5 -12t68.5 4q59 10 110.5 32.5t100.5 57.5q4 4 9 10.5t11 10.5q-14 10 -24 20.5t-23 20.5 q-37 43 -75.5 85t-79.5 83q-6 4 -12.5 6t-16.5 -4q-10 -8 -23 -11h-2q8 8 15.5 13.5t13.5 13.5q-8 14 -13 15.5t-16 -7.5q-23 -10 -41 -26.5t-34 -32.5q-27 -23 -48.5 -47.5t-40.5 -52.5q-20 -39 -26 -70q-2 -16 0 -32.5zM371 842h2q4 0 5 1t5 1q-2 2 -2 4q-4 -2 -5 -3 t-5 -3zM530 1085q2 -6 2 -13t5 -11q12 -16 25 -31.5t28 -32.5q2 -2 7 -2t9 -2q18 20 33 29q10 8 15 19.5t14 23.5q18 31 4 72q-10 18 -27 18q-16 0 -34.5 1t-35.5 1q-4 0 -8 -1t-4 -3q-35 -27 -33 -68z" />
<glyph unicode="'" horiz-adv-x="495" d="M61 1317q-2 39 9.5 72.5t40.5 62.5q16 14 33.5 28.5t33.5 26.5q10 6 20.5 8.5t20.5 4.5q14 4 27.5 5t27.5 3q4 0 10.5 2t10.5 -2q20 -10 41.5 -18.5t38.5 -28.5q23 -29 39 -56.5t26 -62.5q2 -10 1 -23.5t-1 -29.5q6 -33 -10 -60.5t-39 -52.5q-31 -33 -55.5 -68.5 t-40.5 -76.5q-18 -49 -66.5 -58.5t-89.5 11.5q-4 2 -8 11t-2 17q0 12 4 23.5t8 21.5q8 20 15.5 39t15.5 39q8 18 6 24.5t-20 16.5q-23 10 -47 27q-45 31 -50 94z" />
<glyph unicode="(" horiz-adv-x="677" d="M55 694q2 27 3 51.5t1 51.5q2 61 12.5 121.5t20.5 121.5q14 86 42 163t63 153q20 41 46.5 74.5t55.5 68.5q27 10 50.5 25.5t53.5 7.5q16 -4 33 -3t33 1q25 2 43 -17q14 -12 28.5 -22t28.5 -21q16 -12 23 -18q25 -25 4 -61q-23 -31 -43.5 -62t-36.5 -63 q-35 -59 -59.5 -123t-34.5 -135q-4 -29 -10 -53.5t-11 -51.5q-4 -20 -6 -38.5t-4 -37.5q-2 -2 -1 -3t-1 -3q-12 -49 -2 -95t23 -91q8 -29 22 -62q6 -16 9 -30.5t-5 -30.5q-6 -12 2 -31q12 -31 22.5 -62.5t33.5 -56.5q4 -4 7 -12t1 -12q-2 -29 7 -49.5t21 -40.5q7 -7 13 -19 q-10 -10 -11.5 -20t2 -20.5t6.5 -20.5t3 -18q-35 -43 -49 -95q-23 -10 -25 -17t2 -36q-4 4 -7 4t-7 2q-16 10 -33.5 22.5t-34.5 22.5q-4 2 -7 4t-7 2q-23 4 -41.5 15.5t-34.5 27.5q-29 29 -54.5 58.5t-43.5 66.5q-16 29 -28.5 59.5t-22.5 61.5q-18 49 -35 98.5t-31 100.5 q-10 33 -15.5 65.5t-11.5 67.5q-2 4 -2 14z" />
<glyph unicode=")" horiz-adv-x="604" d="M66 1370q-6 18 8 31q23 23 42 44t42 42q10 10 24 10q23 2 40.5 10.5t31.5 28.5q10 -4 20.5 -5t20.5 -3q27 -6 39 -35q27 -61 67 -117q37 -53 64 -109.5t39 -121.5q12 -61 20 -122.5t17 -125.5v-35q0 -39 -1 -76.5t1 -76.5q4 -66 -7.5 -129.5t-31.5 -124.5 q-10 -35 -20.5 -68t-24.5 -65q-16 -37 -32.5 -72t-37.5 -70q-16 -31 -34.5 -59.5t-41.5 -54.5q-12 -16 -28.5 -28.5t-32.5 -27.5q6 16 -3 26.5t-9 26.5q-6 -4 -12.5 -5t-10.5 -3q-4 63 -61 31q4 20 8 37.5t0 40.5q-8 -6 -13.5 -12.5t-9.5 -10.5q-4 0 -4 2q4 14 7 27.5 t8 28.5q-14 -4 -20.5 6t-12.5 20q-6 -2 -19 -10q-2 0 -2 1t-2 1q4 10 7 18.5t8 18.5q51 106 92 221q12 41 26.5 79t18.5 81q2 10 2 21.5v21.5q0 25 -1 49.5t-1 48.5q0 20 2 40t0 40q-4 47 -9.5 95t-9.5 96q-6 47 -26 77q-23 35 -43.5 72t-40.5 72q-23 35 -39 65 q-4 10 -7 18.5t-7 18.5z" />
<glyph unicode="*" horiz-adv-x="653" d="M70 1274q4 14 6 26.5t10 24.5q8 18 31 18q12 0 24.5 1.5t24.5 1.5q10 0 17 -1.5t18 -3.5v2q-10 16 -20.5 29.5t-20.5 30.5l-29 29q-12 10 0 22q6 8 12.5 15.5t14.5 13.5q4 4 7 5t7 5q10 4 21.5 8t23.5 8q10 2 18.5 2t18.5 2q4 0 12 -8q23 -23 41 -47q10 -14 20.5 -26.5 t20.5 -26.5q14 16 26.5 32.5t26.5 32.5l29 29t29 31q4 -4 9 -7t9 -7h2q10 10 20.5 9t20.5 -1q6 0 11.5 -2t11.5 -4q-2 -4 -2 -13q8 -12 14 -16q4 -4 10 -4t15 -2q-4 -6 -6.5 -10.5t-6.5 -8.5t-6 -9t0 -15q2 -2 -4 -13q-10 -12 -20.5 -24t-20.5 -25q-8 -10 -14 -20t-15 -21 q8 0 10.5 5.5t10.5 7.5q-2 -4 -3 -7.5t-3 -7.5q16 -6 31.5 -7t31.5 -11q-2 -2 -6 -10q-6 -6 0 -13q8 -16 4 -41q-2 -4 -3 -7t-3 -7q-6 -8 -2 -22v-9q-8 -4 -13 -10t-14 -8q-10 -2 -20 -3t-23 -1q-4 -2 -20 -2q4 -4 5 -8.5t3 -8.5q6 -10 12.5 -21t14.5 -22q4 -8 3 -17t-1 -17 q0 -4 -8 -9q-4 0 -8.5 -2t-8.5 -4q-16 -20 -37 -22q-2 0 -8 -6q-2 0 -3 -2.5t-3 -2.5q-12 2 -18 -10q-8 -8 -13 -2q-8 8 -20 12q-8 0 -13 13q-10 12 -17 24.5t-15 24.5l-2 2q-2 0 -4 2q-18 -23 -34 -44.5t-34 -41.5q-2 0 -2 2t1 3t1 3q16 18 29.5 36.5t27.5 37.5q8 8 6 14 q-6 0 -6 -2q-10 -16 -22 -29.5t-21 -29.5q0 -4 -2 -4q-8 -4 -13 -11.5t-9 -11.5q-8 -8 -21 -2q-8 4 -12 8l-8 4l-8 4q-12 0 -18.5 7.5t-10.5 17.5t-11 18.5t-14 16.5q-12 25 4 49q4 6 8.5 11t8.5 12q4 4 4 8q-6 6 -23 2q-6 0 -12 -2t-14 -4q-29 -6 -41 20q-18 35 -8 74z" />
<glyph unicode="+" horiz-adv-x="1001" d="M36 745.5q1 18.5 3 36.5v31.5t2 32.5q4 16 5 33.5t5 33.5q2 10 9.5 14.5t17.5 4.5h91t91 -2q23 0 43.5 -1t42.5 -1q14 -2 19.5 2t5.5 20q2 35 2 71v73v120q0 4 1 6.5t1 4.5q4 4 6 4q12 8 24.5 1t22.5 -3q12 4 22.5 7t22.5 -1q14 -4 27.5 -4t27.5 -2l36 -4l36 -4 q8 -2 15.5 -2t15.5 -3q16 -6 31.5 -12t29.5 -16q4 -2 6 -10.5t2 -16.5q0 -23 -1 -45t-3 -45q-2 -31 -3 -61.5t-3 -65.5h111q25 0 49 1t51 1q55 -2 45 -59q-2 -6 0 -12.5t2 -12.5q4 -14 2 -20q0 -16 -1 -29.5t-3 -30.5q-2 -10 -4 -22.5t-4 -22.5q0 -6 -4 -14v-62 q-4 -20 -21 -20q-10 -2 -18 -2h-16h-183q-6 0 -10 -2v-6h88h105l20 -4t23 -4q-10 -10 -19.5 -11.5t-17.5 -1.5h-185q-16 0 -19 -5t-3 -21l18 -203q6 -47 -41 -49q-14 -2 -27.5 -5t-27.5 -6q-14 -4 -27.5 -6t-27.5 -2h-42.5t-41.5 2q-10 0 -18.5 -1t-18.5 -1q-18 0 -24.5 5.5 t-8.5 23.5q-6 59 -12 117.5t-12 117.5q-2 4 -2 9.5t-3 13.5q-14 0 -27 2t-26 2h-182q-16 0 -33.5 2t-34.5 4q-6 29 -12 52.5t-10 48.5q-2 18 -1 36.5zM98 618q63 10 126 2t126 3q-63 0 -126 6.5t-126 -11.5z" />
<glyph unicode="," horiz-adv-x="464" d="M63 162q10 45 36 77.5t73 49.5q33 10 65.5 13t67.5 -1q6 -2 13.5 -3t11.5 -5q16 -18 33.5 -36.5t23.5 -45.5q4 -14 8 -27.5t8 -29.5q4 -14 -2 -27q-14 -33 -28.5 -64.5t-30.5 -64.5q-14 -25 -28.5 -49.5t-28.5 -48.5q-10 -16 -22.5 -29.5t-37.5 -9.5q-4 2 -9 -1t-9 -5 q-10 -4 -19.5 -4.5t-17.5 10.5q-10 8 -10 17t4 20l31 73q4 8 7 15.5l7 17.5q-10 2 -17.5 3t-15.5 1q-41 2 -72 37q-23 25 -37 53.5t-4 63.5z" />
<glyph unicode="-" d="M104 740.5q2 9.5 2 19.5q4 16 6.5 33.5t4.5 33.5q6 43 30 80q14 23 50 23q43 -2 87 -3t87 3q100 6 199.5 5t201.5 1q35 0 68.5 -3t68.5 -13q23 -8 30.5 -12t23.5 -27q-2 -4 -4.5 -9.5t-4.5 -9.5t-3 -11t3 -7q14 -10 10.5 -20.5t-1.5 -20.5q0 -14 -4.5 -27.5t-0.5 -30.5 q2 -10 -3 -22t-9 -25q-2 -10 -4 -19t-2 -20q2 -18 -18 -28q-6 -4 -12.5 -8.5t-14.5 -8.5q-12 -8 -21 -8q-10 -2 -22 -2h-23q-86 0 -173 1t-173 -1q-43 0 -86 -3t-86 -5h-63q-16 0 -30.5 1t-31.5 -1q-23 0 -34 8t-17 31t-11 45t-18 45q-4 6 -2 15.5z" />
<glyph unicode="." horiz-adv-x="481" d="M87 96.5q-7 32.5 1 71.5q6 43 31.5 70.5t60.5 46.5q43 20 78 2q29 -16 58.5 -30.5t52.5 -37.5q33 -31 41 -69.5t-29 -79.5q-27 -31 -66 -46.5t-100 -19.5q-23 2 -45.5 7t-44.5 24q-31 29 -38 61.5z" />
<glyph unicode="/" horiz-adv-x="1282" d="M39 176q29 47 58.5 93t58.5 93q43 66 87 132.5t87 132.5q78 123 155.5 244.5t155.5 244.5q59 92 116.5 183.5t116.5 183.5q18 29 50 45q23 10 34 8t29 -18q8 -6 15.5 -10.5t17.5 -8.5q4 -2 16 -6q23 -16 46.5 -30.5t47.5 -28.5q18 -10 36 -20.5t28 -31.5q0 -4 6 -4 q25 4 29 -13t14 -32q10 -20 8 -37.5t-14 -35.5q-43 -63 -86 -127t-86 -129q-66 -98 -128.5 -197.5t-127.5 -198.5l-221 -344q-35 -51 -65.5 -100t-63.5 -101l-25 -36q-20 -27 -51 -27q-20 2 -41 1t-41 -1h-12q-39 0 -60.5 1t-40 6t-38 15.5t-52.5 30.5q-27 18 -57 49 q-29 31 -2 74z" />
<glyph unicode="0" horiz-adv-x="1091" d="M92 1014q2 66 23.5 122t60.5 107q16 23 35.5 40t38.5 38q10 10 10 14q0 10 5 14.5t9 8.5q29 23 61 39t66 20q49 4 98.5 13.5t96.5 5.5q25 -2 45.5 -8.5t42.5 -14.5q37 -16 70.5 -38.5t64.5 -49.5q20 -20 39 -40.5t35 -41.5q18 -23 29.5 -50.5t19.5 -55.5q10 -33 19.5 -67 t17.5 -69q6 -33 10 -65.5t8 -67.5q6 -41 5 -84t-5 -84q-4 -121 0 -233q0 -119 -47 -219q-18 -37 -41.5 -72t-50.5 -65q-20 -23 -45 -36.5t-47 -27.5q-29 -18 -61 -31q-41 -14 -76 -8q-10 2 -21.5 1t-21.5 -3q-16 -2 -29.5 -3t-28.5 7q-4 2 -6 1t-6 -1h-25.5t-25.5 6 q-16 6 -31.5 5t-32.5 2q-14 2 -26.5 4t-28.5 6q-27 6 -47 26q-16 16 -32.5 26.5t-33.5 25.5q-104 90 -127 233q0 16 -3 33.5t-3 34.5q-2 23 -2 44v44h4v172q0 29 -2 55.5t0 54.5q4 59 -3 115.5t-5 116.5zM164 1196q0 -6 1 -15.5t3 -19.5q18 47 51 82t60 78q-8 -2 -9 -2 q-33 -20 -56.5 -48t-43.5 -59l-4 -8t-2 -8zM373 1012q20 23 37.5 50.5t56.5 39.5q-4 -4 -5 -6t-3 -4q-25 -16 -41.5 -37t-30.5 -43q-20 -23 -10 -49q4 -12 7 -23.5t7 -24.5q12 -41 4 -63q-4 12 -5 25.5t-5 23.5q-2 0 -4 -2q2 -10 4 -21.5t0 -21.5q-2 -68 1 -137.5t1 -136.5 q-2 -4 -1 -6.5t1 -4.5q-2 -25 -3 -48t-3 -48q-4 -63 27 -121q27 -43 81 -47q10 -2 20.5 -1t20.5 1q16 0 37 -4q31 -8 59.5 3t37.5 42q4 10 10 20.5t16 16.5q16 12 21 29q4 16 7 29.5t3 29.5q0 25 -2 49.5t-2 50.5q-2 37 -3 73t3 71q4 41 -4 84t-13 84q-2 14 -4 28.5t-6 30.5 t-6 30.5t-6 29.5q-4 18 -6 35.5t-17 29.5q-12 12 -23 22.5t-24 22.5q-20 20 -51 21q-25 0 -45 -7q-16 -4 -30.5 -10t-30.5 -12h-9q2 4 2 6t2 6q-14 0 -29.5 -11t-25.5 -27.5t-16 -35t-2 -32.5z" />
<glyph unicode="1" horiz-adv-x="731" d="M14 1151q-2 4 2 12t9 13q35 27 70.5 53t76.5 49q35 20 66.5 45t66.5 43q8 4 13.5 11t9.5 16q8 10 14 21.5t16 27.5q4 -8 5.5 -12.5l3.5 -10.5q4 4 7 6t7 7q10 -14 21.5 -10.5t21.5 10.5q20 -23 37.5 -15t34.5 19q12 -4 21 -6.5t20 -4.5q18 -4 35.5 -9t33.5 -11 q12 -4 12 -25q6 -29 6.5 -58.5t-1.5 -57.5q-4 -53 -5.5 -107.5t0.5 -107.5q4 -113 3.5 -224.5t-0.5 -224.5q0 -23 3 -46.5t1 -45.5q-2 -55 -6.5 -111.5t-8.5 -111.5v-11v-215q0 -18 -2 -28q-6 -14 -22 -15q-45 0 -84 -22q-16 -10 -33 0q-29 18 -59 10q-4 -29 11 -45t32 -33 q-10 -4 -17.5 -3t-13.5 8.5t-13.5 23.5t-19.5 47l-55 12q-18 4 -25.5 10.5t-11.5 26.5q0 6 -1 11.5t-1 11.5v42.5t1 52.5t2 52.5t1 42.5q2 63 3 125t3 125q0 16 -2 31.5t-2 32.5q-4 63 -4 124.5t-4 124.5q0 37 -1 75t-3 79q-12 0 -19.5 -6t-15.5 -10q-10 -8 -21.5 -16.5 t-23.5 -14.5q-14 -10 -20.5 -8t-16.5 12q-23 23 -47.5 39t-50.5 31h-8q-4 0 -9 4v6q10 16 9.5 21t-15.5 22q-16 20 -24.5 42.5t-12.5 47.5z" />
<glyph unicode="2" horiz-adv-x="1181" d="M80 260q10 41 40 60.5t58 35.5q57 35 110.5 74t102.5 82q23 18 46.5 37.5t45.5 40.5q45 41 88 83t88 83q0 2 2.5 3t4.5 5q35 53 52 107.5t7 117.5q-4 25 -15.5 40t-31.5 28q-41 29 -105 24q-33 -4 -63.5 -10t-58.5 -29q-8 -6 -13.5 -12t-9.5 -16q-2 -6 -3 -11.5t-3 -11.5 q-12 -25 -43 -28q-35 -2 -66.5 -5.5t-62.5 -7.5q-10 0 -23 6q-10 8 -20 16.5t-21 16.5q-25 20 -47 21l-24 6q-23 10 -29 21.5t2 35.5q8 20 12 41t13 43q14 43 33.5 80t58.5 63q25 16 47 32t45 30q39 27 81 38t83 23q90 23 177 15t171 -45q41 -18 76 -42t59 -55q2 -14 2 -23 t4 -13q31 -35 44.5 -75t29.5 -81q14 -41 21.5 -84t11.5 -86q4 -55 -11.5 -105.5t-33.5 -101.5q-16 -41 -38 -76t-54 -63q-63 -59 -127 -118.5t-129 -121.5l-31 -31q23 -2 40 -4t34 0q37 4 71.5 1t69.5 -7q6 0 13 -1t11 1q37 8 72 0t70 -18q14 -6 27.5 -10.5t31.5 -6.5 q-10 -14 -23.5 -16t-23.5 -6q20 -4 38.5 -11.5t33.5 -19.5q-4 -14 -7.5 -26.5t-7.5 -28.5q-2 0 -22 -10q10 -8 19.5 -15.5t21.5 -17.5q-6 -16 -11.5 -34.5t-11.5 -35.5q-2 -10 -18 -22q-8 -10 -15.5 -16.5t-13.5 -14.5q-12 -8 -18 -8h-35.5t-36.5 4q-29 6 -70 2 q-23 -2 -47 2t-47 4h-67.5t-67.5 -4q-41 -4 -83 -7t-83 -1q-23 0 -46 2t-48 2q-20 0 -39.5 -2t-42.5 -2q-61 -2 -121 0q-25 0 -51 10q-23 8 -16 31q4 23 7 47t-7 49q-2 4 -2 18q-2 16 -1 37t-4 37q-2 12 -6 24.5t-20 16.5z" />
<glyph unicode="3" horiz-adv-x="1220" d="M82 186q16 23 31.5 44.5t29.5 43.5l7.5 7.5l7.5 7.5q16 16 28.5 32.5t14.5 40.5q0 16 7 27.5t23 16.5q2 0 9 6q0 4 -1 9t-1 11q10 -4 16 -9t16 -11q12 12 24.5 10t27.5 -12q23 -16 48 -33t54 -31q29 -16 55 -14q117 2 226 59q25 10 32 33l7.5 15t7.5 16q10 27 7 51 t-26 41l-74 55q-29 20 -62.5 23.5t-68.5 -0.5q-8 0 -15 -6.5t-15 -10.5q-16 -10 -32.5 -9t-27.5 17q-10 12 -21 23.5t-22 24.5q-12 14 -19 29.5t-16 31.5q-14 29 -18 59.5t-20 59.5q-2 4 -1 8t1 8t1 7t-1 7q-10 35 14 50q29 16 50.5 36.5t47.5 38.5q8 6 15.5 11.5t17.5 9.5 l-6 -12q-4 -8 -8 -15q8 2 24.5 13.5t34.5 24.5t35.5 27.5t30.5 26.5q-6 0 -11.5 1t-9.5 1q-29 0 -60.5 -2t-60.5 -2h-93t-93 4q-23 0 -37 15.5t-23 36.5q-23 49 -24.5 100t20.5 104q4 10 6.5 22.5t6.5 23.5q16 49 63 49q16 0 30.5 -1t31.5 -1q33 -2 65.5 -2h67.5q25 0 50 2 t50 2q27 0 52.5 -2t49.5 -2q41 -2 81 -4.5t81 -2.5q23 -2 45.5 -1t44.5 1q8 -2 17.5 -3t17.5 -5q20 -8 23 -20q10 -25 35 -39q0 -8 -1.5 -15.5t1.5 -11.5q12 -23 14 -47t8 -49q8 -41 -12 -78q-16 -31 -6 -57q10 -29 20 -66q4 -10 -1 -17t-11 -13q-14 -12 -27.5 -23.5 t-25.5 -24.5q-12 -10 -23.5 -20t-21.5 -20q0 -12 6 -18.5t14 -12.5q88 -51 143 -125q23 -33 39.5 -70t20.5 -78q12 -150 -39 -288q-35 -96 -121 -174q-33 -29 -70 -51.5t-77 -43.5q-37 -16 -72 -34.5t-74 -32.5q-25 -12 -52.5 -20.5t-55.5 -12.5q-25 -4 -51.5 -6t-53.5 -2 q-23 0 -44 2t-44 6l10 10q-8 10 -21.5 11.5t-19.5 19.5q47 -14 91.5 -16t91.5 2q43 4 85 13t78 32q0 2 -1 3t-1 3q-12 -4 -25 -7t-24 -8q-63 -16 -124.5 -21t-125.5 3h-24q-41 0 -80 29q-6 4 -13.5 8t-15.5 10q-29 25 -65.5 38t-71.5 30q-20 12 -41 28q-23 18 -8 41z" />
<glyph unicode="4" horiz-adv-x="1331" d="M33 424q2 16 0 31.5t0 31.5q2 10 5 20.5t7 20.5q23 43 4 82q-10 12 -2 41q8 33 28.5 57.5t43.5 47.5l209 239q16 16 31.5 32.5t29.5 31.5q59 57 110.5 117.5t102.5 123.5q12 12 22.5 26.5t22.5 27.5q27 27 31 67q4 10 6 27q43 -6 83 -11t81 -10q6 -2 12 -2t10 -4 q4 -2 9.5 -5t9.5 -1q33 0 58.5 -18.5t53.5 -30.5q18 -6 15 -31q-12 -63 -4 -124.5t6 -125.5q0 -66 -6 -127q-4 -53 -8.5 -106t-8.5 -107v-32q8 4 17 6q4 -14 7 -27.5t7 -27.5h94h86q6 0 12.5 -2.5t14.5 -6.5q-4 -10 -4 -20t10 -17q6 -4 8 -11t4 -17q2 -25 5.5 -48.5 t7.5 -47.5q2 -6 1 -14.5t1 -18.5q0 -10 2 -18.5t6 -18.5q-6 -8 -10 -17.5t4 -23.5q2 -4 0 -10t-4 -11q-2 -10 -4.5 -20.5t-6.5 -24.5q-37 -2 -72.5 -3t-72.5 -1q-6 -2 -12 -1t-13 -1q-25 0 -24 -22q-2 -18 -2 -34.5v-35.5v-117q0 -25 -4 -29.5t-29 -11.5q-2 -10 -2 -20v-21 q-2 -10 -4 -16t-14 -10q-8 0 -13 -12q-6 -23 -24 -15q-25 10 -48.5 4t-48.5 -2q-16 4 -34.5 6t-34.5 5q-18 2 -34.5 9t-33.5 13q-10 4 -18 6t-19 4q-16 4 -23 10.5t-7 26.5v50t1 66t2 65.5t1 48.5v16q-16 8 -32.5 7t-33.5 -3q-20 0 -38.5 -2t-39.5 -2h-276q-41 0 -80 4 t-80 12q-27 6 -27 29q-2 25 -20 43q-16 16 -10 41zM485 647q12 -4 15 -4q35 -10 68.5 -2t68.5 4q16 0 16 21v20q2 33 3 63.5t1 61.5q2 11 2 27q-4 0 -5 1t-3 1q-41 -47 -82 -94.5t-84 -98.5z" />
<glyph unicode="5" horiz-adv-x="1212" d="M84 272q14 4 21.5 -3t17.5 -9q10 10 5 18.5t-9 18.5q-8 14 -6 24.5t18 14.5q23 4 38 15t34 22q6 4 12 4t14 4v22l37 -6q2 23 29 23q47 0 82 -14q6 -4 11 -9.5t9 -9.5q16 -16 35 -30.5t41 -24.5q29 -10 56.5 -9t54.5 9q29 6 55.5 17t52.5 22q35 12 54.5 37.5t29.5 60.5 q23 55 -2 109q-16 45 -47 73l-22.5 22.5t-22.5 24.5q-23 23 -50.5 28t-58.5 3q-39 -2 -72.5 -15.5t-66.5 -33.5q-6 -4 -13 -8t-3 -15q-14 -8 -28.5 -15t-31.5 -1q-16 4 -28.5 10t-26.5 11q-4 2 -16.5 3t-25.5 2t-26.5 2t-17.5 1q-51 10 -57 61q-2 10 -5 19.5t-5 19.5l-7 18 q-2 29 -4 61t-4 60q0 20 3 42t5 44q4 47 6.5 92.5t4.5 92.5q2 23 3 47t-1 49q0 14 -2 28.5t-4 30.5q-4 33 0 63.5t10 59.5q0 2 4 2q8 -2 25.5 -4t37 -4t36 -4t26.5 -4q18 -4 36.5 -9t36.5 -3q29 4 53.5 4h51.5q41 2 81 3t81 3h307q6 0 13 -1t12 -1q8 -16 14 -35 q4 -6 4 -13.5v-11.5q-4 -18 -6 -36.5t4 -38.5q2 -4 0 -11.5t-4 -11.5q0 -4 -1 -9t3 -9q12 -14 -2 -31q-4 -4 -4 -12.5t-2 -16.5l-4 -12t-7 -10q-20 -8 -34 -8h-258h-86t-84 -3q-23 0 -27 -5t-4 -25l-6 -99q0 -4 4 -16q20 4 33 4q66 10 130 10t130 -20q20 -6 32 -14 q98 -47 185 -121q104 -94 143 -236q27 -102 10.5 -194.5t-69.5 -180.5q-27 -41 -55.5 -76.5t-69.5 -62.5q-57 -41 -121 -70.5t-131 -46.5q-37 -8 -74 -15t-74 -9t-73.5 3t-71.5 11q-20 4 -39.5 13.5t-38.5 19.5q-35 20 -69.5 39.5t-63.5 50.5q-14 18 -26.5 35.5t-24.5 36.5 q-10 16 -19.5 33.5t-19.5 35.5z" />
<glyph unicode="6" horiz-adv-x="1052" d="M53 444q0 49 8.5 98.5t30.5 96.5q8 20 6 43q0 10 1 24.5t7 24.5q29 59 55.5 117.5t55.5 116.5q16 35 34.5 64.5t37.5 62.5l4 8t6 8q35 39 68.5 78t68.5 74q35 33 72 60.5t72 55.5q10 6 21 11.5t26 5.5q4 0 20 12q10 4 18.5 11t18.5 14q16 12 21 0q4 -16 20 -13 q2 -10 9 -11t14 -5q10 -6 12 -13.5t4 -15.5q4 -20 12 -22q12 -4 16.5 -16.5t16.5 -16.5q10 -6 16.5 -16.5t16.5 -18.5q-6 -8 -11.5 -15t-9.5 -16q12 -16 22.5 -29.5t6.5 -29.5q-31 -16 -45 -27q-33 -20 -63.5 -40.5t-59.5 -45.5q-18 -16 -35.5 -33.5t-36.5 -33.5 q-12 -14 -24.5 -27.5t-28.5 -30.5q10 -4 20.5 -7l24.5 -7q-8 -6 -17.5 -5t-18.5 2t-17 -1t-14 -12q16 -2 31.5 -5.5t31.5 -3.5q31 0 59.5 -12t57.5 -22q12 -4 23.5 -10.5t21.5 -10.5q14 -10 27.5 -19.5t25.5 -19.5q33 -35 63.5 -71.5t59.5 -77.5q16 -29 26.5 -57.5 t12.5 -63.5q4 -29 8 -56.5t4 -54.5q-4 -127 -76 -223q-41 -59 -95 -102t-120 -74q-10 -6 -19 -11t-22 -7q-23 -8 -43 -14.5t-41 -12.5q-18 -4 -36.5 -8t-38.5 -8q-6 -2 -13 2q4 4 9.5 8t15.5 14q-10 -2 -14.5 -3t-8.5 -1q-14 -4 -20 -2q-45 16 -92 28.5t-90 39.5 q-29 16 -55.5 35.5t-49.5 45.5q-8 10 -15 18.5t-18 14.5q-25 20 -39 46t-24 55q-10 41 -19.5 79.5t-9.5 83.5zM358 469q6 -31 14.5 -58.5t41.5 -43.5l6 -7q33 -27 80 -32q12 0 23.5 -1t23.5 -1q10 0 21.5 -2t19.5 2q35 23 59.5 51.5t26.5 75.5q-2 10 -3 21t-5 22 q-8 14 -18.5 27.5t-20.5 25.5t-17 16q-18 10 -36.5 18.5t-34.5 14.5q-10 6 -25 2q-35 -4 -63.5 -14.5t-49.5 -40.5q-4 -6 -11 -9.5t-11 -9.5q-10 -14 -17.5 -27.5t-3.5 -29.5z" />
<glyph unicode="7" horiz-adv-x="1067" d="M106 170q4 16 11.5 30.5t15.5 28.5q33 55 66.5 110.5t64.5 115.5q39 66 73 137.5t71 138.5q25 47 48 95t52 96l110 184q0 2 -2 2q-41 0 -79.5 -1t-79.5 -1q-31 -2 -61.5 -1t-61.5 -1q-23 0 -43.5 -2t-40.5 -4q-33 -4 -62 0q-18 2 -30.5 13t-16.5 28q-20 53 -30.5 107 t0.5 112q2 10 4 16t6 12q10 25 22.5 34.5t38.5 9.5h52.5t52.5 2q49 2 96 5t94 3q63 -2 125 -3t123 -5q31 -2 59.5 -7.5t57.5 -9.5q14 -2 26.5 -5t22.5 -13q6 -4 13 -5t14 -3q4 -2 10 -2.5t14 -2.5q-2 -8 -2 -16t-4 -16q-4 -12 -3 -24.5t11 -27.5q8 -10 14.5 -21t12.5 -22 q14 -29 47 -34q25 -6 16 -29q-4 -14 -10 -24.5t-10 -22.5q-4 -10 -9.5 -20.5t-9.5 -22.5q8 -4 14.5 -8t12.5 -9q2 -16 -5 -29.5t-18 -27.5q-25 -43 -52 -84l-54 -82q-27 -45 -54.5 -88t-52.5 -90q-35 -68 -68.5 -136.5t-68.5 -135.5q-29 -61 -61.5 -119.5t-67.5 -118.5 q-18 -33 -37.5 -63.5t-36.5 -59.5q-6 -10 -13 -19t-17 -14q-8 -4 -13.5 -14t-9.5 -18q-10 -20 -35 -21q-45 4 -82.5 20.5t-72.5 39.5q-45 33 -84 77q-23 29 -13 66z" />
<glyph unicode="8" horiz-adv-x="1169" d="M83 445.5q3 76.5 40 150.5q25 41 51.5 80t61.5 72q4 4 10 8q-6 4 -10 16q-29 39 -43.5 81t-20.5 89q-4 31 -6 61.5t-2 63.5q0 23 6 45.5t10 44.5q0 6 4 14q27 23 41.5 52.5t40.5 52.5q23 16 43.5 32.5t40.5 34.5q10 6 17.5 11.5t11.5 13.5q12 16 25.5 25.5t29.5 15.5 q53 16 105.5 23.5t105.5 7.5q70 0 125 -29q18 -10 37.5 -19.5t38.5 -21.5q74 -43 106 -121q8 -23 17.5 -46t19.5 -50q23 -66 14.5 -132.5t-38.5 -129.5q-8 -18 -18.5 -35.5t-22.5 -34.5q-6 -14 -5 -21t11 -18q10 -12 20.5 -24.5t26.5 -20.5q6 -2 11 -9t9 -13 q23 -41 42.5 -81t29.5 -85q16 -61 18.5 -122.5t-16.5 -121.5q-29 -98 -98 -166q-39 -41 -88 -78q-25 -18 -50.5 -33.5t-54.5 -31.5q-16 -6 -30 -6q-2 0 -2 2v4q16 18 37.5 28.5t37.5 32.5q-29 -12 -54.5 -24.5t-53.5 -24.5q-29 -10 -58.5 -17t-60.5 -18l-6 13 q-10 16 -20.5 24t-28.5 4q-16 -2 -30.5 -4t-31.5 -2q-98 -6 -180 49q-135 86 -190 234q-29 78 -26 154.5zM440 399q6 -10 11.5 -19t11.5 -20q10 -16 17 -27t24 -16q10 -2 21.5 -4t21.5 -4q31 -2 39 -4.5t26 -25.5q4 2 6.5 2t6.5 2q20 14 40.5 26.5t41.5 26.5q12 6 22 29 q10 16 -4 26t-10 27q4 29 -9.5 53.5t-23.5 46.5q-10 23 -37 32t-49 3q-16 -4 -31.5 -6t-27.5 -6q-27 -6 -60 -19q-4 -4 -10 -8t-4 -14t-2 -18.5t-12 -18.5q-25 -29 -9 -64zM465 1004q0 -14 2 -25.5t12 -22.5q12 -14 24.5 -26t24.5 -25q10 -10 23 -6q14 6 27.5 6t27.5 -4 q10 -2 21.5 -2t21.5 6q-6 14 -3 24.5t7 22.5q10 14 17.5 30.5t13.5 33.5q6 18 1 37.5t-17 31.5q-33 33 -73 35t-81 -6q20 -2 39.5 -1t42.5 -3q35 -2 55.5 -21.5t30.5 -54.5q0 -12 2 -18q-8 -2 -8 4t-2 10q-10 27 -26.5 45.5t-43.5 22.5q-27 6 -51.5 5t-48.5 -5 q-16 -4 -26.5 -14.5t-10.5 -22.5q-2 -16 -2 -30.5v-26.5z" />
<glyph unicode="9" horiz-adv-x="1085" d="M68 967q0 35 1 69.5t13 69.5q10 27 21.5 52.5t35.5 43.5q33 18 27 51q-2 35 29 58q57 47 121.5 77.5t134.5 53.5q18 4 36.5 7t38.5 -1q23 -4 43.5 -4t42.5 -4q16 -4 33 -7t35 -8q35 -8 64.5 -26.5t56.5 -40.5q20 -20 41.5 -40t42.5 -42q33 -35 60.5 -72t43.5 -80 q16 -45 26.5 -91t-3.5 -95q-6 -20 -11.5 -42t-9.5 -44q-4 -12 -2 -16q6 -14 2 -25.5t-8 -24.5q-10 -16 -12 -33.5t-2 -37.5q14 -16 5 -30.5t-16 -29.5q-8 -14 -13 -26.5t-13 -22.5q-18 -27 -25.5 -57.5t-13.5 -59.5q-16 -55 -43 -104t-62 -96q-33 -47 -70.5 -88t-80.5 -76 q-59 -45 -121.5 -78t-134.5 -49q-10 -4 -20.5 -4h-20.5q-8 0 -17.5 1t-7.5 17q0 2 -2 2q-16 6 -13 16.5t7 22.5h-28q2 8 2 17.5t2 19.5q-4 4 -7.5 5t-7.5 5q-8 8 -6 17q4 25 -5 43t-26 35q14 23 18.5 28.5t20.5 16.5l-8 16q8 4 15.5 8t15.5 6q164 78 250 240q12 29 18 51 q2 6 2 17q-47 -123 -139 -203q-2 2 -4 2q16 20 34.5 39.5t32.5 42.5q34 41 52 100h-21.5t-19.5 -2q-166 -6 -291 113q-39 37 -66.5 79t-44.5 95q-4 10 -6 17t-4 16q-8 23 -13 45t-5 45zM390 1044.5q-7 -16.5 3 -61.5l2 -4q10 -35 30.5 -57.5t55.5 -32.5q23 -6 43.5 -8.5 t36.5 -6.5q27 -2 48.5 13.5t27.5 34.5q4 12 6 24t6 23q8 23 -6 41q-20 23 -36.5 43t-37.5 41q-4 8 -22 12q-29 6 -55.5 -4t-53.5 -21q-41 -20 -48 -36.5zM647 920q2 0 2 -1t2 -1q2 4 3 7t3 7q-4 0 -6 2q-2 -4 -2 -7t-2 -7z" />
<glyph unicode=":" horiz-adv-x="501" d="M86 432.5q-6 34.5 0 75.5q8 43 33.5 71.5t62.5 47.5q43 20 80 2q29 -16 59.5 -31.5t55.5 -38.5q35 -33 43 -71.5t-31 -81.5q-29 -33 -68 -48.5t-102 -19.5q-23 0 -47.5 5t-44.5 26q-35 29 -41 63.5zM98 1059q4 35 25 63q23 37 57.5 60.5t81.5 25.5t86 -30.5t49 -79.5 q4 -12 5.5 -25.5t3.5 -25.5q2 -29 -10.5 -52.5t-30.5 -42.5q-35 -39 -79 -56t-98 -1q-76 18 -88 94q-6 35 -2 70z" />
<glyph unicode=";" horiz-adv-x="512" d="M63 492q12 53 43 91t84 56q39 14 78 16t80 -2q6 0 14.5 -2t12.5 -6q23 -23 42 -44t27 -50q4 -18 9.5 -34.5t9.5 -35.5q2 -6 2 -15t-4 -15q-16 -39 -34.5 -77t-37.5 -75q-16 -29 -33.5 -57.5t-33.5 -57.5q-10 -20 -24.5 -35.5t-43.5 -9.5q-4 2 -10 -1t-11 -5 q-27 -14 -45 4q-10 10 -10 22.5t4 22.5q8 23 16.5 43.5t18.5 42.5q4 8 8 17.5t8 19.5q-25 6 -36 6q-49 2 -84 43q-27 29 -43.5 63t-6.5 75zM85 1022q-5 33 5 68q16 70 76 92q10 4 16 7t17 7q29 10 57.5 9t54.5 -23l55.5 -55.5t36.5 -67.5q8 -35 2 -61.5t-32 -49.5 q-39 -33 -81 -53t-91 -16q-29 0 -45.5 2t-26.5 10t-16.5 23.5t-12.5 39.5q-10 35 -15 68z" />
<glyph unicode="&#x3c;" horiz-adv-x="1165" d="M27 909q20 -4 30.5 5.5t22.5 19.5q16 16 37.5 28.5t42.5 26.5q49 33 99 64.5t99 64.5q76 47 151 92t153 93q23 14 45 27t45 24q16 10 31.5 15t31.5 13q8 4 15.5 7.5t15.5 7.5q16 8 33.5 17t35.5 16q27 8 43.5 -4.5t22.5 -36.5q0 -12 2 -15q16 -10 18.5 -28.5t12.5 -32.5 q8 -12 15 -23.5t11 -23.5q14 -31 17 -60q0 -33 16 -55q12 -20 -4 -37l-7 -7t-3 -7q8 -23 -5.5 -30t-25.5 -15q-104 -59 -207.5 -121t-208.5 -121q-4 -2 -7 -4t-7 -6q16 -10 29.5 -17.5t25.5 -15.5q184 -115 381 -197q35 -14 35 -47q2 -23 1 -43t-23 -34q0 -2 -1.5 -3.5 t-1.5 -3.5q-16 -49 -43.5 -90t-54.5 -82q-4 -10 -9 -19t-11 -20q-8 -16 -17 -24q-29 -27 -67 -8q-90 41 -178.5 82t-174.5 94q-88 53 -180 97t-186 85q-33 14 -57 27q-23 14 -29 27.5t0 41.5q12 55 31 103q23 55 -19 102q-10 10 -18 20.5t-4 30.5z" />
<glyph unicode="=" horiz-adv-x="987" d="M90 547q29 43 37 88q4 12 7 23.5t9 21.5q6 16 17.5 20.5t27.5 4.5q29 -4 58.5 -4.5t58.5 -0.5q10 -2 17.5 -1t15.5 1q59 4 115.5 6.5t115.5 4.5q16 2 30.5 -1t31.5 -3h178q12 0 24.5 -2.5t24.5 -4.5q33 -6 39 -36q-10 -10 -13 -21.5t-3 -26.5q-2 -14 -5.5 -27.5 t-5.5 -27.5q-4 -14 -2 -20q4 -20 -12 -31q-8 -6 -12 -21q-4 -14 -6 -27t-7 -28q-2 -4 -2 -8t-4 -4q-18 -10 -32.5 -23.5t-34.5 -17.5q-35 -6 -70 -5t-70 5q-23 0 -43 1t-43 -1q-35 -2 -68.5 -5t-68.5 5q-10 4 -21.5 3t-21.5 -1q-39 2 -77.5 2t-77.5 2q-23 0 -34 10.5 t-18 32.5q-10 29 -19 54.5t-20 52.5q-2 2 -16 10zM115 928q0 37 5 71.5t19 67.5q23 61 86 47q6 0 12.5 -2t10.5 0q29 6 54.5 3t51.5 -3q27 0 53.5 2t53.5 2q47 2 93 2h93h82t82 -6q12 0 16 -4q12 -6 26 -12.5t28 -14.5q-16 -12 -17.5 -28.5t-1.5 -32.5q0 -23 -4 -45.5 t-14 -42.5t-18.5 -39t-18.5 -39q-4 -10 -12.5 -15t-16.5 -10q-14 -4 -25.5 -11t-25.5 -11q-16 -4 -32.5 -8t-32.5 -4q-25 -2 -48.5 -1t-48.5 -1q-47 -4 -91 -7.5t-91 -7.5h-74h-53q-6 0 -11 -1t-9 -1q-41 -4 -66 9.5t-41 58.5q-14 41 -14 84z" />
<glyph unicode="&#x3e;" horiz-adv-x="1273" d="M78 362q6 10 26 7q10 0 19.5 -2t21.5 -7q-8 23 -15 41.5t-11 36.5q-10 29 -4 40t28 24q53 29 106.5 58.5t106.5 57.5q41 20 83 38t83 38q27 12 52.5 24.5t50.5 24.5q4 2 8 5.5t8 7.5q-10 10 -20.5 20t-20.5 21l2 2q16 -10 30.5 -17.5t29.5 -17.5l4 4q-4 4 -5.5 7t-5.5 7 q-78 59 -159.5 111.5t-169.5 97.5q-35 16 -68 37t-68 43q-23 14 -25.5 23.5t5.5 38.5q12 39 22.5 76.5t34.5 70.5q10 14 7 29.5t-7 31.5q-6 23 -1 29t30 16q4 -10 7 -18t5 -12q14 10 26.5 21.5t27.5 23.5q18 14 28 14t31 -12q57 -33 115.5 -64.5t113.5 -66.5 q59 -35 116.5 -72t117.5 -76q23 -14 43 -28.5t43 -28.5q37 -23 73.5 -43t75.5 -41q10 -6 22.5 -9t24.5 -7q10 0 11 -2q10 -20 27.5 -27.5t33.5 -17.5q29 -23 36 -45.5t-7 -57.5q-4 -16 -9.5 -29.5t-9.5 -29.5q-2 0 15 -8q-4 -8 -10.5 -14.5t-12.5 -14.5q4 -23 19.5 -25 t31.5 -6q-8 -6 -15 -12t-15 -10q-29 -12 -49.5 -33t-43.5 -41q-8 -10 -16 -18.5t-18 -14.5q-61 -37 -125 -72.5t-127 -70.5q-8 -4 -25 -17v2q-35 -16 -70.5 -32.5t-70.5 -32.5q-29 -12 -56.5 -24.5t-56.5 -26.5q-43 -20 -85 -41t-85 -43q-14 -6 -26.5 -13.5t-24.5 -15.5 q-23 -10 -31 -8t-24 18q-27 27 -50.5 53.5t-50.5 53.5q-6 6 -14 11t-18 9q-16 8 -30.5 13.5t-31.5 11.5q-8 4 -13 10t-1 16z" />
<glyph unicode="?" horiz-adv-x="960" d="M48 1030.5q-7 18.5 5 54.5q4 20 10.5 40t22.5 36q6 10 10 21q8 29 23.5 48t36.5 38q18 16 36.5 32.5t38.5 32.5q25 20 50.5 36.5t52.5 35.5q49 31 110 35q100 4 188.5 -25t166.5 -94q16 -12 29.5 -30.5t25.5 -37.5q25 -41 41 -85t20 -95q4 -47 -5 -93t-36 -89 q-29 -43 -63.5 -80t-79.5 -66q-23 -16 -43 -30.5t-43 -28.5q-27 -18 -34 -43t-5 -53q2 -18 2 -34.5t-6 -33.5q-4 -6 -3 -14t1 -16q-2 -14 -5 -26.5t-15 -23.5q-4 -4 -6.5 -9t-6.5 -9q-2 2 -6 10q-2 -4 -5 -6t-3 -4q-10 4 -21.5 10t-21.5 10q-4 -4 -8 -10t-15 0q-2 2 -4 2 q-23 -10 -34 1.5t-25 21.5q-12 8 -25 4q-20 -8 -37 8q-2 2 -3 4t-3 4q-29 16 -34 46t-13 59q-2 2 4 12q14 10 18.5 22.5t8.5 28.5q4 25 12 47.5t19 46.5q16 35 41.5 62.5t54.5 50.5q12 10 25.5 20.5t25.5 20.5q2 2 5 3t3 5q4 10 10.5 14.5t8.5 14.5q16 31 39.5 53.5 t38.5 50.5q6 10 6 21.5v21.5q-2 14 -7.5 21.5t-15.5 13.5q-55 45 -131 33q-20 -4 -31 -12q-23 -16 -44 -37t-40 -43q-14 -14 -16 -37q-2 -41 -47 -53q-104 -25 -199 18q-4 2 -5 3t-5 3q-33 23 -40 41.5zM297 242q4 27 22 37q20 8 42 17t42 17q10 4 16.5 10.5t4.5 16.5 q0 6 4 14q4 4 10 4t8 -4q2 -2 3 -6q4 -25 19 -32t36 -11q18 -2 34.5 -8t34.5 -16q14 -14 13 -27q0 -20 -2 -29q-8 -47 -17.5 -94t-21.5 -96q-4 -12 -6 -31q-4 -14 -19 -16q-12 -4 -22 12q-2 0 -4 2q-12 -2 -24.5 -7t-23.5 13q-23 -12 -40 6q-4 4 -8.5 4t-8.5 5q-14 6 -27 10 q-16 12 -26 8q-8 -4 -12.5 0t-6.5 10q-4 10 -7 21.5t-9 25.5q-4 8 -3 19.5t1 21.5v80q0 6 -1 11.5t-1 11.5z" />
<glyph unicode="@" horiz-adv-x="1519" d="M76 711q-2 16 0 30.5t4 30.5q6 53 21.5 104.5t31.5 102.5l4 12t2 10q4 23 11.5 41.5t15.5 36.5q4 10 9 16.5t11 14.5q12 16 20.5 37.5t20.5 38.5q14 14 29 39q6 6 6 12q-2 12 6 20q10 8 20.5 17.5t20.5 17.5q35 25 72 47.5t78 34.5q27 10 52.5 18.5t53.5 16.5 q23 4 47.5 7t49.5 7q27 2 52 4.5t52 4.5q41 4 82 3t82 -12q27 -6 52.5 -11t49.5 -15q43 -10 80 -29.5t72 -44.5q63 -45 114 -102q16 -18 30.5 -39t27.5 -41q20 -37 38.5 -75t30.5 -79q4 -12 7.5 -23.5t3.5 -21.5q2 -12 0 -25.5t-2 -25.5l-13 -111q0 -16 -2 -32.5t-4 -36.5 q0 -2 2 -2h4q-2 -18 -10 -41q-4 -14 -7 -25.5t-7 -26.5q-8 -53 -28.5 -99t-49.5 -89q-57 -78 -141 -121q-8 -4 -16.5 -7t-18.5 -7q-23 -4 -43.5 -10.5t-42.5 -3.5q-12 0 -25 6q-2 0 -4 1t-6 1q-16 4 -34.5 6t-35.5 6q-27 2 -45 25q-2 6 -8 12q-47 27 -70 82q0 4 -2 4 q0 -2 -4 6q-16 -4 -20 -6q-10 -4 -18.5 -5t-16.5 -3q-6 -4 -11 -5t-9 -10q0 -4 -4.5 -5t-8.5 -1q-12 -2 -22.5 -2h-22.5q-59 2 -121 25q-18 6 -35.5 17t-33.5 24q-25 18 -43.5 42.5t-34.5 53.5q-20 37 -34.5 75t-20.5 79q-4 23 -4.5 44t8.5 44q4 10 3 20t1 21q4 27 8 51 t16 47q27 59 70 102q18 20 38.5 37t45.5 29q23 12 45.5 20t46.5 11q29 4 57.5 8t57.5 0q10 -2 23.5 -3t23.5 -3q4 -2 9 -2t9 -3q12 27 23 54q20 -10 37 -15q2 0 4 -1t4 -1q6 4 13 2t16 -6q4 -2 8 -2t6 -2q6 -2 13 -3t7 -11q0 -4 9 -4q6 -2 13 -3t13 -3q14 -4 19 -15 q2 -6 3 -12t11 -4q4 0 4 -6v-11q-8 -29 -7 -55t3 -55v-41q4 -29 6 -60.5t2 -62.5q2 -18 2 -37.5v-38.5v-104q0 -23 -1 -44.5t-1 -43.5v-33q8 2 23 2q10 6 22.5 12t22.5 17q25 14 28 43q0 4 9 16q8 10 13 20.5t11 20.5q4 12 10.5 23.5t10.5 21.5q4 4 4 6q4 23 6 42.5t6 39.5 q2 14 2 25.5t2 25.5q0 18 -1 36t1 38q0 47 -24 84q-10 12 -16.5 25.5t-14.5 25.5q-12 23 -28.5 38.5t-33.5 31.5q-43 41 -90 63q-6 4 -9 9.5t-7 9.5q-4 2 -6 4t-6 4q-6 2 -13.5 4t-15.5 4q-23 4 -45.5 9.5t-44.5 9.5q-23 2 -42.5 1t-41.5 -5q-29 -4 -58.5 -9.5t-58.5 -9.5 q-25 -4 -47 -10t-45 -14q-6 -4 -11 -6.5t-14 -4.5q-29 -10 -51 -25.5t-45 -35.5q-31 -18 -45 -51q-4 -10 -7 -22.5t-7 -24.5q-10 -43 -22.5 -86t-28.5 -84q-6 -20 -8.5 -41t-6.5 -41q-6 -37 2 -73t21 -71q10 -25 18 -46t21 -44q4 -10 10 -19t16 -20q14 -16 28.5 -33.5 t27.5 -35.5q10 -16 25.5 -28.5t31.5 -25.5q27 -18 57.5 -31.5t63.5 -25.5q29 -10 55.5 -18.5t54.5 -16.5q20 -6 39 -10t37 -2q27 0 47 -12q-6 0 -9 -1t-7 -1q4 -4 6 -4q16 -4 33.5 -6.5t34.5 1.5q27 6 57 7q29 0 54.5 5t51.5 9q57 8 109 35q16 6 29.5 13t29.5 13q4 4 11 6 q-10 -16 -23.5 -23t-23.5 -15q16 4 30.5 6t28.5 6v-2q-16 -10 -34.5 -22.5t-37.5 -26.5q10 -2 17.5 2t11.5 8q8 2 24 10v-8q2 0 23 4q-6 -6 -13 -10t-5 -15q0 -8 -11 -12q-2 -2 -18 -14q16 -6 25.5 2t25.5 8q-4 -4 -5 -6t-3 -4q-2 -4 -6 -6t2 -8l-2 -3l-2 -2q-6 -6 -6 -10 q0 -10 -6.5 -17t-14.5 -11q-10 -6 -15 -13.5t-12 -13.5q0 -2 3 -4q14 6 28 14l2 -2q-10 -8 -20 -15t-21 -18q4 -2 5 -4t3 -2q-14 -10 -26 -18t-29 -13l-24 -6q-4 -2 -11.5 -2t-13.5 -2q-35 -4 -69.5 -9t-69.5 -5q-14 0 -27.5 -1t-25.5 -1q-16 0 -33 1t-33 1q-4 0 -8 1t-8 1 q27 -6 57 -6q41 0 80 -1t80 9q20 4 41 7t41 7q29 -2 59 15q25 16 49.5 30.5t48.5 28.5q0 2 8 0q-10 -6 -18 -13t-18 -16q-20 -14 -39 -28.5t-41 -26.5q-18 -12 -47 -16q-49 -8 -98.5 -13.5t-98.5 -3.5q-8 0 -16.5 -1t-18.5 -1q-16 0 -33.5 1t-33.5 3q-12 2 -24.5 4t-27.5 5 q-25 0 -47 5t-47 9t-49.5 8t-46.5 12q-45 14 -89 29.5t-85 42.5q-29 20 -54.5 39.5t-54.5 40.5q-18 14 -30 37q-43 53 -88 112q-53 70 -80 154q-16 49 -26.5 98t-12.5 101zM96 741h2v19h-2v-19zM98 684v14v-14zM588 792.5q0 -22.5 2 -44.5q0 -6 2 -7q6 -8 5 -15t-5 -17 q-10 -16 4 -35q2 -4 4 -7t2 -8q4 -20 31 -26q6 -2 10 -4t8 -2q59 -16 103 14q4 2 9 4t9 2q33 12 33 45v17q0 2 1 3t1 5q2 -2 4 -2v-45h2q0 20 1 39.5t-1 40.5v129q0 6 -1 12t-7 10q-8 4 -16.5 10.5t-18.5 10.5q-12 8 -22 4q-20 -4 -40 -6t-38 -11q-57 -16 -76 -71 q-6 -23 -6 -45.5zM647 66q16 -4 33 -5.5t33 -5.5q0 4 2 4q-16 2 -32.5 3t-35.5 6v-2zM743 47q16 -2 29 -2t27 -2v2q-14 2 -26.5 2t-27.5 2q0 -2 -2 -2z" />
<glyph unicode="A" horiz-adv-x="1175" d="M49 14q2 12 12.5 44t20.5 67t20.5 67.5t14.5 45.5q16 47 29.5 97t29.5 97q4 10 3 23.5t3 27.5q4 10 10.5 19.5t10.5 19.5q10 33 19 64.5t20 64.5q16 53 30.5 107.5t30.5 109.5q16 53 36.5 107.5t37.5 109.5q12 39 23.5 78t21.5 78q8 23 -4 49q-6 14 -11.5 27.5t-9.5 25.5 q-4 8 -4 25q16 -18 24.5 -39.5t18.5 -44.5q0 27 9.5 49.5t0.5 48.5q-2 4 0.5 9.5t6.5 7.5q14 8 24 19.5t29 8.5q8 -2 15 2.5t18 6.5q18 2 36.5 4t34.5 6q12 2 24.5 3t22.5 3q12 4 24.5 9t18.5 22q25 -29 46.5 -57.5t31.5 -65.5q4 -8 7 -14.5t6 -14.5q27 -82 49 -164t47 -163 q29 -90 57.5 -177.5t54.5 -177.5q16 -53 29.5 -106.5t20.5 -108.5q6 -47 19 -92t24 -90q4 -16 7 -29.5t7 -25.5q7 -20 7 -39t-5 -47q-6 -33 -35 -39q-33 -4 -35 -31q-20 6 -31.5 -5t-25.5 -16q-16 -4 -27.5 -14t-17.5 -33q-12 18 -14 25q-16 -8 -28.5 -14.5t-25.5 -10.5 q-3 -1 -5 -1q-6 0 -9 4l-8 12t-7 14t-10 12q-4 -4 -11 -6t-11 -6q-6 2 -8 8q-14 33 -26.5 66t-24.5 67q-4 14 -7.5 27.5t-7.5 26.5q-6 20 -28 20q-12 0 -21.5 -1t-19.5 -1h-106.5t-106.5 2q-25 0 -34 -5t-20 -28q-4 -8 -12 -34.5t-19.5 -57.5t-23.5 -56.5t-20 -29.5 q-25 -18 -48 -18q-33 -4 -65.5 -7.5t-63.5 -5.5h-16q-28 0 -57 5q-24 2 -24 24q0 5 1 10zM512 528q31 -3 60 -3h14q35 1 73 3q-20 59 -35 117t-38 117h-11q-14 -59 -30.5 -115.5t-32.5 -118.5z" />
<glyph unicode="B" horiz-adv-x="1187" d="M109 244q-4 8 -4 15t5 15q9 14 13 31q0 4 7 4t13 2q10 2 18.5 1t14.5 3q18 4 22.5 10.5t4.5 22.5q0 66 1 128.5t1 125.5q2 29 3 53.5t1 49.5q1 27 1 55v28.5v28.5q0 28 1 57q2 35 5 71t3 71v56.5t-2 57.5q0 10 -16 17q-10 4 -17.5 8t-15.5 8q-14 8 -17.5 17.5t-5.5 25.5 t-2 33q-1 22 3 44q6 38 12 77q0 4 1 8t-1 8q-6 16 0 31.5t10 30.5q2 15 20 15q4 0 9 -1q41 -4 83 -7t82 -7q23 -4 48 0q42 3 84 3q129 0 258 -32q84 -23 150.5 -67t117.5 -115q63 -88 63 -187q0 -47 -14 -96q-10 -35 -31.5 -61.5t-46.5 -51.5q-6 -8 -14 -14t-19 -16 q25 -25 43 -49q33 -35 59.5 -73t37.5 -85q10 -38 10 -75q0 -9 -1 -18q-3 -46 -17 -91q-4 -8 -7 -9q-23 -10 -29.5 -29.5t-11.5 -35.5q-4 -8 -9 -15.5l-9 -13.5l-4 -4q-8 -33 -35 -71.5t-51 -59.5q-43 -33 -88 -63.5t-92 -53.5q-39 -20 -78 -31.5t-82 -15.5q-35 -6 -70 -8 t-69 -4q-9 -1 -18 -1l-18 1q-18 2 -38 2h-35q-26 -3 -51 -3h-13q-30 1 -63 11q-6 4 -13 4t-16 2q-12 2 -23 4t-17 17q-4 4 -11.5 7t-13.5 7q-4 33 -9 65q-2 14 -2 29q0 18 3 37q2 10 2 21q0 23 -10 45zM471 330q4 -4 7 -8.5t7 -8.5q5 -2 10 -2t11 2q78 4 137 40t100 102 q17 30 17 57t-33 53q-4 4 -9 10.5t-1 16.5q6 -4 12 -10q4 -4 6 -5.5t6 -5.5q-19 27 -37 49q-13 16 -38 15q-9 0 -21 -2q-29 -6 -58.5 -5t-58.5 -1t-36 -10.5t-9 -36.5q-1 -30 -1 -60t1 -62v-18q0 -54 -10 -104q-2 -2 -2 -6zM489 915q10 0 16.5 -1t14.5 -1q12 -1 25 -1 q26 0 50 6q36 8 71 20q23 10 44.5 21.5t37.5 31.5q16 10 19 18.5t-1 24.5q-4 8 -7 16.5t-9 14.5q-12 12 -26.5 21.5t-29.5 19.5q-37 23 -79 30t-83 15q-7 1 -12 1h-6q-8 -1 -18 -3zM772 489q2 0 3 -1t3 -1v13q-2 2 -4 2q0 -4 -1 -6.5t-1 -6.5z" />
<glyph unicode="C" horiz-adv-x="1296" d="M78 862v14q0 34 8 67q10 40 27 77q10 25 22 48.5t25 47.5q2 8 8 14q16 14 31.5 29t31.5 31q63 66 135 117t152 92q35 18 71 25.5t70 13.5q34 7 67 7q12 0 26 -1q46 -4 94 -12q133 -16 239 -89q31 -23 60 -46t57 -48q10 -10 17.5 -21t1.5 -28q-4 -8 -1 -17.5t7 -21.5 q-20 0 -30.5 -7t-20.5 -17q-24 -29 -58 -29q-16 0 -33 6q-23 4 -43 14.5t-45 -0.5q-8 -4 -14 -6t-10 -12q-12 -28 -37 -28q-8 0 -18 3q-18 4 -37 9.5t-37 13.5q-40 15 -79 15q-9 0 -17 -1q-48 -4 -95 -22q-31 -12 -60.5 -25.5t-60.5 -30.5q-33 -14 -49 -43q-2 -12 -14 -26 q-48 -68 -48 -156q0 -15 1 -31q4 -47 7 -92t7 -90q4 -27 9.5 -51.5t9.5 -50.5q2 -16 14 -27q43 -41 92 -64.5t111 -23.5q131 2 246 57q16 8 30.5 13.5t32.5 -0.5q6 -2 12 1t15 5q12 4 22 2q-10 -10 -20.5 -19.5t-26.5 -19.5q10 -2 15.5 -5t9.5 -1q10 3 20 3q20 0 43 -13 q20 -12 47 0q-4 -8 -4 -9q10 -16 17.5 -34.5t23.5 -28.5q2 -2 7 -1t9 1q-4 -10 -6 -20.5t-6 -20.5q10 0 17.5 -1t17.5 -3q-6 -23 -12 -41t-13 -37q4 0 13 4q6 -25 -17 -41q-41 -31 -84 -57.5t-90 -48.5q-47 -23 -96 -38.5t-100 -21.5q-54 -8 -107 -8q-31 0 -60 3 q-81 7 -159 42q-41 16 -78 34.5t-76 39.5q-63 35 -108 102q-20 33 -41 65t-41 64q-10 12 -12 23l-19 80v24q6 0 8 2l6.5 -13t4.5 -11q8 -53 31.5 -96t56.5 -82q10 -14 19 -28.5t20 -29.5q35 -49 82 -73q66 -35 132 -66t138 -47q37 -9 72 -10q3 0 7 1q38 1 79 5q35 4 68.5 11 t68.5 15q8 2 18 13q-25 -4 -47 -10.5t-45 -10.5q-57 -9 -113 -9q-42 0 -84 5q-96 12 -188 62q-23 10 -43 22t-43 23q-76 37 -113 108q-8 14 -17 26.5t-17 24.5q-29 35 -44.5 75t-25.5 83q-23 96 -33 192.5t-14 196.5z" />
<glyph unicode="D" horiz-adv-x="1353" d="M104 1147q2 23 0 42q-1 6 -1 13q0 14 3 29q2 23 5.5 44t7.5 44q2 12 2 23.5t2 25.5v23q6 29 12 32.5t35 8.5q43 2 84 4t80 4q68 -4 131 -5t125 -5q63 -4 125.5 -19.5t122.5 -38.5q137 -47 239 -155q31 -31 55.5 -67t45.5 -73q16 -27 31.5 -50t21.5 -52l8 -40l8 -40 q6 -37 11.5 -75t11.5 -72q12 -52 11 -102q0 -99 -46 -189q-33 -61 -71 -118.5t-91 -107.5q-10 -10 -20.5 -19t-20.5 -15q-53 -35 -106.5 -69t-112.5 -58q-14 -4 -28.5 -8.5t-26.5 -8.5q-14 -4 -26.5 -10t-24.5 -10q-14 -8 -27 -10q-18 -4 -38.5 -7.5t-39.5 -7.5 q-4 -2 -12 -2q-29 6 -54.5 5t-54.5 -5q-14 -4 -28.5 -3t-28.5 1q-37 0 -74 -2t-74 -10q-30 -6 -60 -9q-7 -1 -13 -1q-23 0 -45 8q-23 6 -28 15t1 30q6 12 5 20t-5 21q-4 10 -4 19v18q-2 16 -2 32.5v32.5q0 4 -2 7t0 5q10 23 8 46.5t2 46.5q6 25 27 24q20 2 41 0q25 -6 26 15 q0 10 2 17t2 15q-2 35 -3 72t-3 72q-4 55 -6 109.5t-6 107.5q-4 47 -5 95t-3 95q-2 35 -2 70t-2 69q0 12 -1 24.5t-3 25.5q-4 16 -9.5 20t-21.5 2h-21.5t-21.5 2q-20 3 -20 22q0 3 1 7zM522 1075q2 -14 2 -25.5v-23.5v-53.5t2 -52.5q4 -43 7.5 -87.5t7.5 -87.5 q8 -63 10 -124.5t6 -122.5q2 -31 3 -58.5t3 -56.5q2 -27 9.5 -34t33.5 -7q29 2 58.5 4t58.5 4q0 12 2 17q6 8 13 14t16 12q41 33 72.5 72t60.5 80q20 27 20 63q0 50 1 100v33q0 33 -1 64q-4 82 -53 137q-25 23 -49.5 43.5t-52.5 36.5q-16 8 -28.5 16.5t-23.5 24.5l-9 9 t-11 7q-32 11 -66 19q-26 6 -54 6h-15q-17 0 -21 -6q-3 -4 -3 -14q0 -4 1 -9z" />
<glyph unicode="E" horiz-adv-x="1232" d="M111 1309q2 10 2 17v17q2 10 1 19.5t1 19.5q6 29 16 37t39 11q29 0 55.5 2t55.5 2h145.5t146.5 -2q12 0 23.5 1t21.5 3q23 2 47 2q17 0 34 -1q40 -3 81 -3q4 0 5 1t6 -1q35 -12 71 -12h20q24 2 48 3q21 0 43 -2q49 -4 98 -7t96 -7q2 0 15 -6h-84v-4q18 -4 35.5 -5 t33.5 -5v-5h-71q0 -2 -1 -3t-1 -3l24 -4t25 -6q0 -2 -1 -2t-1 -2h-76q0 -12 -2 -18q-8 -2 -16 -9v-4q16 -4 31.5 -6t35.5 -6q-6 -4 -8 -5l-6 -3l55 -13q-14 -10 -27.5 -9t-27.5 3q-23 4 -30 -3t-13 -34q18 -4 38.5 -5t45.5 -3q-12 -10 -21.5 -9t-19.5 1q-10 -2 -17.5 -1 t-15.5 -1q-12 0 -20 -12t10 -23l4 -6q-10 -4 -18.5 -9t-6.5 -22q2 -10 -1 -22t-7 -25q-6 -20 -16.5 -26.5t-30.5 -3.5q-23 0 -45.5 2t-44.5 2q-25 0 -49.5 -1t-50.5 -3q-33 -6 -66 -6q-4 0 -7 -1l-59 4q-39 4 -77.5 4.5t-77.5 2.5q-4 2 -15 -2q-10 -37 -13 -75 q-2 -23 -2 -47q0 -16 1 -32q4 -20 19 -20h12q30 0 60 -8q23 -7 46 -7q13 0 27 2q32 6 65 6q24 0 46 -3q56 -7 110 -11q6 0 12.5 -1t16.5 -5q-12 -10 -26.5 -9t-14.5 -18q25 -4 49.5 -7t46.5 -7v-8q-12 -4 -23.5 -2t-23.5 4q-20 2 -51 -4q20 -4 35 -9q-10 -14 -23.5 -8 t-23.5 -2q-6 -18 14 -22q10 -2 20.5 -3t20.5 -5l24 -9q-18 -10 -35.5 -6t-33.5 -2q0 -8 -4 -29q6 -4 11 -6l15 -6q-10 -4 -17 -6t-18 -4q-2 -10 -2 -19.5t-4 -17.5q-4 -10 -6 -18.5t6 -18.5l-4 -10q-4 -12 -4 -21v-7q0 -40 -41 -40q-47 0 -95 1t-95 3h-99l-2 -2v-4 q-4 -47 -5 -96v-20q0 -39 3 -78q0 -27 25 -27q16 -2 30.5 -3t30.5 -1q63 -4 126 -5t126 -3q23 0 46.5 3t50.5 7q2 -10 6 -24q8 -2 18 -3.5t21 -3.5q2 -10 -5.5 -22t13.5 -17q-8 -18 -11.5 -34.5t9.5 -30.5q4 -4 3 -9t-1 -9q-4 -23 -8.5 -44.5t-8.5 -44.5q-2 -4 4.5 -10 t4.5 -8q-10 -16 -7.5 -33.5t-11.5 -32.5q-12 -12 -22 -12q-45 -4 -88 -5h-29l-57 1q-53 2 -104.5 6t-104.5 8q-6 2 -14.5 3.5t-16.5 -1.5q-4 -2 -11.5 -5t-7.5 -7q-2 -23 -15 -33t-32 -16q-4 4 -5 7t-5 7q-14 -4 -28.5 -3t-26.5 -9q-4 -4 -11.5 1t-17.5 9q-9 -15 -23 -15h-1 q-14 1 -29 11q-6 4 -19 4q-29 -6 -55 1.5t-53 19.5q-10 4 -10 11v15v81t-2 79q0 10 1 18.5t-3 16.5q-12 45 -14 89q-1 24 -2 49q0 20 1 40q2 57 2 113.5t2 113.5q0 8 1 15.5t-3 13.5q-12 20 -12 41t-2 43q-4 33 -4 63.5v59.5q0 12 4 33q4 14 7 28.5t5 26.5q4 29 6 57.5 t5 59.5q4 27 -11 45q-6 10 -7 22.5t-5 22.5q-4 6 -4 12t-2 10q-16 34 -16 67q0 32 6 71z" />
<glyph unicode="F" horiz-adv-x="1130" d="M76 821q12 6 24.5 6h22.5q16 -2 29.5 1t17.5 24q20 18 22.5 42t2.5 46q0 23 2 42t2 40q0 25 -1 48.5t-3 45.5q-4 6 -7 6q-16 2 -25 5t-13.5 7.5t-6.5 12.5t-4 24q-6 33 -22 66q-4 12 -5 23.5t-1 23.5q4 16 3 34.5t1 35.5q-1 16 -21 16q6 6 13.5 12.5t11.5 14.5 q12 25 39 22q35 -4 55 15q4 4 11 3t16 1q10 0 19 -2t20 2q39 15 77 15h4q40 -1 82 -9q4 0 10.5 -1t12.5 -1q20 -2 24.5 2t14.5 20q4 -6 7 -14t9 -12t14.5 -3t16.5 1q59 0 117 -1h40q39 0 78 1q45 0 90.5 3t90.5 5q16 0 29.5 -1t29.5 -3q4 -2 10 -4t8 -6q4 -14 17.5 -19.5 t28.5 -9.5q2 0 6 -6l-39 -39q16 -8 37 -21q-4 -10 -8.5 -18t-0.5 -21q4 -6 3 -16t-5 -20q-6 -12 -6 -22.5t23 -18.5q-10 -4 -17.5 -8.5t-13.5 -8.5q4 -29 -8 -39t-45 -12q-45 -2 -90 -3t-92 -3q-43 -2 -87.5 -2h-87.5h-57q-29 -2 -35 -7.5t-6 -27.5v-135q0 -18 -1 -34.5 t1 -35.5q0 -23 27 -22q47 0 91 1t91 1q16 0 31.5 -1t32.5 -3q4 0 6 -2.5t6 -4.5q10 -6 18 -11t19 -13q-10 -14 -18.5 -29.5t20.5 -32.5q-16 -25 -11 -51q4 -12 -4 -33q-2 -10 0 -18t19 -12q-8 -4 -13.5 -8.5t-9.5 -6.5q2 -10 5 -18t1 -16q-10 -35 -63 -35q-55 0 -110.5 -1 t-112.5 -3q-4 0 -9.5 -1t-13.5 -3v-43q2 -86 3 -173.5t1 -175.5q-2 -39 -5 -78.5t-7 -80.5q0 -14 -5 -25.5t-28 -13.5q-4 0 -8 -3t-8 -7q-25 23 -55 12q-4 0 -7.5 -2t-7.5 -2q-18 10 -36.5 4t-37.5 0q-16 6 -24 12h-78q-18 2 -31.5 12.5t-15.5 28.5q-2 23 -2 43.5v42.5 q0 35 1 67.5t3 67.5v13q-16 29 -14 61.5t0 62.5v99q1 11 1 22q0 28 -4 56q-5 38 -16 75q-10 33 -10 64t-4 63v13q-4 14 -10 19t-23 5q-16 2 -29.5 1t-29.5 1z" />
<glyph unicode="G" horiz-adv-x="1320" d="M72 657q0 12 1 26.5t3 31.5q4 -8 5 -9t3 -4q2 2 2 3q9 32 9 61v6q-1 31 1 62q10 80 32 157.5t65 149.5q14 23 29.5 43t43.5 33q4 2 8 10q10 16 23.5 29.5t30.5 25.5q2 2 4 3t4 5q6 31 28.5 43.5t43.5 24.5q55 31 114.5 50t120.5 30q43 8 89 8q55 0 114 -12 q33 -6 65.5 -13.5t63.5 -19.5q39 -16 73.5 -38t69.5 -48l7 -7l8 -8q16 -10 24 -24t12 -31q-8 -10 -16 -20.5t-18 -20.5q8 -20 8 -24q-16 -23 -29.5 -43.5t-28.5 -40.5q-4 -8 -5 -18.5t-5 -16.5q-6 -18 -18 -31q-16 -12 -23.5 -12t-21.5 14t-37 21q-27 4 -43 20 q-83 61 -180 61q-25 0 -50 -4q-76 -12 -137 -45q-49 -27 -81.5 -64.5t-47.5 -90.5q-20 -63 -25 -128l-10 -130v-16q0 -33 7 -67q8 -42 34 -79q14 -29 33 -59q4 -8 11.5 -13.5t11.5 -11.5q29 -23 53 -41t51 -35q16 -12 29 -12q45 -2 89 -2t85 6q10 2 19.5 -1t19.5 -5 q12 -4 20 -6q18 -2 24.5 4t8.5 24q2 25 2 50.5v48.5q0 16 1 28.5t1 28.5q0 14 -3 18.5t-17 6.5q-49 4 -99.5 6t-99.5 6q-16 2 -32.5 2h-33.5q-4 10 -8 19.5t-8 19.5q-6 8 -6 20q-2 12 -1 25.5t-3 24.5q-8 29 -3 54t15 50q4 12 6 22.5t-2 22.5v6q-4 29 2 36t33 11q49 6 97 6 h24q61 -2 125 -8q12 -2 25.5 -6t25.5 -4q35 -2 66.5 -2t64.5 -2q20 0 42 1t44 -9h6q8 -2 17.5 -2t13.5 -4q8 -8 11 -18.5t7 -20.5q0 -2 -2 -6.5t-4 -8.5q22 -5 22 -25q0 -3 -1 -7q0 -18 -1 -37t-3 -37q-8 -68 -9 -136q-1 -28 -1 -58q0 -39 1 -79q0 -25 -1 -49t-1 -49v-55 q0 -16 1 -29.5t-1 -30.5q-2 -25 -3 -49t5 -53q4 -20 -2 -35.5t-16 -32.5q-4 -4 -12 -9t-13 -3q-10 3 -18 3q-27 0 -33 -36q-4 6 -7 8.5t-3 6.5q-12 18 -37 8t-45 -4q-16 0 -22 -2q-27 -12 -50.5 -4t-48.5 18q-6 4 -10 10t-10 13q-27 -8 -53.5 -15.5t-55.5 -15.5h-41h-20 h-14.5t-14.5 -8q-4 -4 -12 -4h-17q-33 0 -62.5 6t-57.5 16q-45 16 -87 35.5t-77 48.5q-43 35 -83 74t-69 86q-12 14 -22.5 26.5t-20.5 28.5q-57 78 -80.5 167t-25.5 185zM115 698q2 -27 1 -51t3 -47q4 -20 9 -39t9 -35q-2 -16 1 -30.5t14 -24.5q-4 12 -8.5 26.5t-6.5 28.5 q-4 23 -6 43.5t-4 42.5q-2 23 -3 43.5t-1 42.5h-8zM119 779.5q0 -25.5 6 -38.5q-1 17 -1 35q0 40 6 79q10 55 20 112q-10 -29 -16.5 -64t-10.5 -66.5t-4 -57zM248 1180l4 -4q4 4 6 8t6 8q23 20 45.5 38.5t46.5 41.5q2 2 3 5t3 5l-4 4q-18 -16 -35.5 -31.5t-35.5 -31.5 q-8 -6 -12.5 -14.5t-10.5 -16.5q-4 -4 -8 -6t-8 -6zM399 1307q0 -2 1 -2t1 -5q7 9 15 15q8 4 15 7t15 7q-4 0 -4 4q-8 -4 -14 -9t-12 -9q-8 -2 -17 -8zM522 1360q20 8 40 13t38 13q8 0 14.5 1.5t12.5 1.5v6q-6 -2 -12.5 -4.5t-12.5 -4.5q-23 -4 -43 -8t-37 -18zM614 -4 q10 0 22.5 -1t25.5 -3v2q-12 2 -25 2h-23zM729 1423q15 0 23 -2v2q-6 0 -11.5 1t-11.5 1v-2z" />
<glyph unicode="H" horiz-adv-x="1380" d="M90 721q-1 9 -1 17q0 16 5 28q12 27 12 57q-4 10 0 17q4 29 15.5 47t38.5 22q10 0 20 6q16 6 21.5 11.5t3.5 23.5q-4 35 -9.5 69t-11.5 68q-10 43 -14 87q-1 12 -1 24q0 31 7 62q4 18 5 40q1 19 1 45q0 40 37 62q73 35 143 38h11q65 0 133 -32q35 -18 39 -59q4 -20 5 -41 t-3 -39q-5 -33 -5 -66q0 -44 9 -88q4 -8 5 -16t3 -19q9 -39 17 -77q3 -16 4 -32q0 -23 -7 -48q8 -4 9 -4q68 -4 135 -6.5t135 -4.5h18q16 2 21.5 5.5t5.5 17.5q4 51 6 101t4 104q1 35 1 71v35.5v34.5q0 36 1 72q0 10 2 22.5t4 26.5q12 0 17 2q35 20 70.5 20t70.5 13 q8 4 29 0q18 -4 37.5 -7.5t40.5 -7.5q10 -4 21 -6t24 -4q33 -6 39 -41q0 -14 2 -26.5t2 -26.5q0 -41 1 -82v-28q0 -28 -1 -56q0 -53 -2 -103.5t-2 -103.5q0 -31 3 -62.5t1 -60.5q-2 -53 -4 -105t-4 -106q-1 -23 -1 -48v-24q1 -38 3 -75v-99.5t-2 -101.5q-2 -33 -4.5 -63.5 t-4.5 -61.5q-1 -9 -1 -16q0 -33 14 -55q5 -9 5 -16q0 -2 -1 -6q-4 -8 -17 -17q-6 -4 -12 -7.5t-10 -7.5l-8 -4t-7 -2q-27 14 -52 5t-52 -5t-52.5 0t-53.5 -2q-23 2 -48.5 8t-48.5 33q2 -10 2 -15t2 -9q-14 8 -18 16t-8 24q-5 25 -5 49q0 12 1 24q4 36 6 75q2 10 3 22.5 t1 24.5v256q0 10 -4 27l-6 3t-7 1q-74 2 -145.5 4t-142.5 4h-13q-23 -2 -27.5 -7t-2.5 -28q0 -41 2 -84t6 -84q4 -51 8 -101t8 -104q2 -20 4 -41.5t7 -42.5q4 -35 -14.5 -53t-51.5 -20q-23 0 -42 -2t-42 -4q-31 -4 -61.5 -8.5t-61.5 -8.5q-10 0 -20.5 2t-18.5 4q-16 4 -22 4 h-20.5t-18.5 13q-8 10 -15.5 22.5t-3.5 28.5q4 20 4 38.5t-10 39.5q-4 4 -2 10t2 12q-2 14 -3 29.5t-3 32.5q0 4 -1 6t-1 6q-4 39 -5 77t-3 77q0 10 -4 22q-8 31 -10.5 61.5t4.5 61.5q2 10 2 20.5v20.5q4 25 -19 33q-10 4 -14 14t-8 21q-6 25 -13.5 50t-11.5 50zM897 90 q10 110 14 218q1 27 1 54q0 81 -9 164q0 -55 1 -109.5t1 -109.5v-24q0 -41 -5 -83q-4 -35 -4 -70q0 -20 1 -40zM907 926h8v86q4 31 5.5 60.5t5.5 60.5h-11v-121q-2 -20 -3 -42t-5 -44zM920 1216q-2 -9 -3 -18q0 -16 7 -33q2 51 6 101q1 17 1 34q0 34 -5 68q-2 -25 -3 -50.5 t1 -49.5q2 -28 -4 -52z" />
<glyph unicode="I" horiz-adv-x="614" d="M98 1236q2 44 4 91v30.5t2 31.5q0 16 6.5 23t22.5 11q23 6 44.5 10.5t41.5 10.5q23 7 46 7q11 0 23 -2q34 -5 68 -7q27 -2 51.5 -6t47.5 -21q42 -27 42 -68q0 -5 -1 -10q-8 -59 -10 -121v-33q0 -45 3 -89q4 -37 8.5 -75t8.5 -79q2 -25 3 -50.5t3 -51.5q2 -43 3 -88t1 -91 q0 -33 -1 -65.5t-1 -67.5q-2 -25 -2 -48t-2 -48q-2 -57 -4 -114.5t-2 -114.5v-121v-5q0 -35 -26 -57q-22 -19 -49 -19q-7 0 -15 1q-22 1 -42 1t-40 -1q-29 -2 -55.5 0t-53.5 -2h-10q-18 0 -35 5q-22 7 -43 15q-14 6 -21.5 21.5t-9.5 32.5v39q2 35 4.5 70.5t4.5 70.5 q2 29 3 56.5t1 56.5q4 59 7 118.5t5 118.5q1 24 1 47t-1 46t-1 46t1 47q1 25 1 49q0 67 -8 131q-11 88 -22 179q-3 30 -3 60q0 14 1 29z" />
<glyph unicode="J" horiz-adv-x="1214" d="M14 380q0 7 6 17t13.5 18.5t7.5 22.5q0 4 4 7.5t8 7.5q29 16 55.5 31.5t55.5 27.5q37 16 74.5 26.5t74.5 22.5q16 6 25 -8q10 -12 19.5 -19.5t25.5 -9.5q25 -4 29 -30q4 -41 26.5 -64.5t57.5 -40.5q23 -10 49 -8q14 2 28.5 1t28.5 -3q29 0 51 16q18 16 39 30.5t41 29.5 q18 12 19 39l-7 122q-2 49 -5 98q-2 30 -2 60q0 19 1 39q1 17 1 35q0 44 -4 88q-5 63 -11 125q-2 29 -1 56.5t1 56.5t1 58.5t1 57.5q0 16 -2 30.5t-6 29.5q-4 23 -1 35t13 18t26.5 9t37.5 9q35 10 67 17q24 6 51 6h15q23 -2 44 -4t42 -6q18 -6 33.5 -8.5t25.5 -7.5t13.5 -15 t0.5 -29q-10 -74 -10 -146.5t10 -144.5q4 -33 8.5 -64.5t6.5 -66.5q2 -16 -1 -31.5t-3 -31.5q2 -31 4 -60.5t4 -58.5q4 -55 5 -109.5t3 -107.5q2 -25 3 -49.5t1 -50.5q2 -16 2 -35v-35q-2 -35 -39 -61q-12 -8 -19 -24.5t-15 -31.5q-4 -6 -4.5 -13t-4.5 -11 q-33 -45 -63.5 -89t-75.5 -79q-43 -33 -91 -50.5t-99 -29.5q-28 -7 -55 -7q-11 0 -22 1q-38 4 -77 4q-29 2 -55.5 4t-53.5 6q-37 6 -69 23q-37 20 -75 38.5t-71 47.5q-23 20 -45 39.5t-45 39.5q-16 12 -28.5 26.5t-34.5 12.5q-4 0 -9.5 5.5l-9.5 9.5q-23 29 -31 64 q-14 62 -14 72z" />
<glyph unicode="K" horiz-adv-x="1349" d="M109 174v186q2 45 4 89.5t6 87.5q2 20 2 39.5v37.5q1 27 1 54v26v26q0 26 1 52q2 61 4 122.5t4 125.5q1 20 1 41t-1 42q-2 42 -2 83q2 53 5 108.5t7 110.5q0 6 3 13t8 18q23 -15 41 -15q26 0 43 29q10 -2 16 -4t14 -6q10 -4 19.5 -7t23.5 1q16 6 28.5 -1.5t24.5 -21.5 q23 10 46 -8q10 -14 25.5 -25.5t29.5 -21.5t18 -21.5t4 -27.5v-209q0 -14 2 -30.5t2 -35.5q6 6 9.5 8t7.5 7q33 45 69.5 87t77.5 78q29 29 53.5 60t49.5 59q23 29 46 54.5t48 50.5q10 10 29 10h44t44 -4q10 0 21 -6t22 -6q27 2 50 -7.5t46 -17.5q12 -6 23.5 -13.5 t21.5 -15.5q23 -10 39 -20q4 -4 7 -8.5l7 -10.5q-27 -27 -54.5 -52t-51.5 -52q-12 -14 -24.5 -26.5t-22.5 -28.5q-20 -29 -44 -52.5t-53 -44.5q-12 -10 -21 -18t-20 -19q-29 -37 -57.5 -73.5t-56.5 -73.5q-12 -16 0 -31q12 -16 25.5 -34.5t27.5 -32.5q53 -53 95 -111.5 t71 -124.5q8 -20 19.5 -35.5t23.5 -31.5q-4 10 -5 18t-5 16q10 10 18 7.5t12 -11.5q20 -31 35 -59q23 -47 43.5 -93t42.5 -93q14 -25 33 -54q4 -6 7 -12t7 -10q-8 -12 -14 -22.5t-14 -20.5q4 -12 12 -21.5t15 -18.5q8 -8 10 -20q1 -3 0 -7q0 -9 -5 -19q-2 4 -14 12 q-6 -4 -10 -10t-10 -12q-8 -12 -18.5 -20.5t-29.5 -6.5q-10 0 -21 -3t-17 -18q-2 -4 -19 -8q-14 -4 -27.5 -6t-27.5 -6q-17 -6 -33 -6q-35 0 -63 28q-10 14 -25 17q-23 4 -35 19.5t-20 33.5q-25 53 -48.5 103.5t-48.5 103.5q-8 16 -16 33.5t-18 34.5q-14 27 -27.5 53 t-28.5 53q-23 49 -51.5 95t-60.5 89q0 4 -6 4q-10 -2 -17.5 -9t-17.5 -17q-6 -6 -12.5 -10.5t-16.5 -1.5q-29 0 -35 -31q-4 -10 -5 -21.5t-3 -21.5v-96q-2 -8 -4 -18.5t-4 -20.5q-4 2 -12 2q-2 16 -2 33q0 24 4 48q2 13 2 25q0 27 -9 55v-47q-2 -41 -4 -83t-4 -83 q-2 -35 -2 -68.5t-2 -68.5q0 -16 -2 -45.5t-5 -60.5t-8 -59.5t-13 -43.5q-8 -12 -21 -12q-45 -10 -90 -15q-15 -2 -30 -2l-60 7q-16 4 -29.5 5t-28.5 5q-20 2 -27 9t-7 30q0 6 -1 24.5t-1 40t-1 41t-1 25.5zM1212 143q0 -10 2 -16h5q0 12 -2 18q-4 -2 -5 -2z" />
<glyph unicode="L" horiz-adv-x="915" d="M109 104q10 8 11 20.5t-1 27.5q-2 23 -3 43t-1 43q-6 111 -6 219q0 166 6 331q4 41 6 80q1 20 1 40t-1 40q-2 27 -4 50.5t-2 50.5q2 35 4 71.5t4 71.5q2 29 2 57.5t2 57.5q2 31 3 60.5t5 62.5q0 23 27 20q10 0 18 -1t19 -3q4 0 6 -1t4 -1q12 7 25 7h4q14 -1 27.5 -5 t27.5 -6t29 2q10 4 22 -4q8 -6 16.5 -6t18.5 -2q14 -2 26.5 -8.5t22.5 -14.5q10 -6 17.5 -14.5t21.5 -8.5q8 0 12 -14q4 -10 7 -21.5t3 -23.5v-58.5t-2 -58.5q-2 -45 -5 -88t-5 -86v-68.5t4 -68.5q3 -26 3 -52v-13q-1 -32 -3 -64q-6 -80 -6 -164q-2 -59 -3 -118.5t-1 -118.5 q0 -4 4 -13q23 -2 46.5 -3t47.5 -3q41 -4 83 -5t83 -3q29 -2 55.5 -4t55.5 -4q39 -2 39 -39q0 -3 -4 -49q-2 -22 -2 -47q0 -14 3 -26.5t-1 -29.5q-4 -16 -3 -32.5t-4 -30.5q-8 -23 -14 -36t-16 -34q-4 -10 -14 -13q-6 -2 -13 -2q-4 0 -8 1q-33 2 -66.5 3t-66.5 5 q-12 1 -23 1l-47 -3q-23 -3 -46 -3q-11 0 -23 1q-43 2 -86 3t-89 1q-35 0 -70.5 -2t-72.5 -4q-4 0 -11 -1t-13 1q-29 0 -43 29q-8 20 -19.5 39.5t-23.5 39.5z" />
<glyph unicode="M" horiz-adv-x="1820" d="M111 858q0 41 2 82q2 53 5 106.5t7 106.5v16.5t-4 16.5q-10 18 -8 37.5t6 38.5q4 16 5 33.5t3 35.5q4 31 12.5 59t28.5 48q18 4 34.5 9t33.5 5q29 2 58.5 2h57.5q6 0 13.5 -1t13.5 -1q18 0 26.5 -7t22.5 -20q8 -4 15.5 -8t15.5 -8q25 -10 24 -33q18 -35 29.5 -50 t30.5 -32q82 -74 161.5 -145.5t169.5 -134.5q4 -2 17 -10q8 6 15 12l14 12q90 98 180 193q18 23 37.5 41t42.5 36q14 14 39 25q29 16 51 49q18 29 39.5 35t50.5 27l16 8t13 8q10 -6 20 -7t20.5 0t20.5 1t20 -4q14 -8 32 -9t36 -4q53 -4 96 -28q10 -8 27 -8q27 -2 27 -29 q0 -12 1 -25.5t-1 -25.5q-4 -66 -8.5 -130.5t-8.5 -129.5q-4 -31 0 -60.5t12 -60.5q4 -20 7.5 -40t3.5 -40q4 -162 7 -322.5t7 -322.5l1 -24q0 -12 -13 -21q-10 23 -9 44t-1 44t-2.5 44t-4.5 44q-6 -10 -6 -21.5t2 -21.5q4 -47 6 -94v-24q0 -35 -4 -71q-4 -23 -9 -41t-1 -40 q4 -20 -22 -25q-6 -2 -12.5 -2t-12.5 -4q-36 -23 -73 -23h-6q-40 2 -81 6q-18 2 -37.5 3.5t-38.5 1.5q-31 0 -40 8t-9 41q-2 47 -2 96t-4 98q-2 72 -5 142.5t-7 142.5q-4 86 -4 173t-4 173v14.5t-2 18.5l-10.5 -7t-8.5 -8q-39 -41 -78 -82.5t-75 -87.5q-35 -39 -70 -76.5 t-70 -78.5q-17 -21 -40 -21q-10 0 -21 4q-16 6 -34.5 0t-37.5 -2q-12 0 -16 -4q-16 -8 -29.5 -2t-23.5 17q-35 35 -79 80t-79 79q-4 4 -6 7.5t-6 7.5q-33 25 -54.5 50t-52.5 50q-4 4 -10 5t-14 5q-2 -10 -2.5 -19t-0.5 -20q2 -72 2.5 -144.5t4.5 -143.5q1 -24 1 -46 q0 -24 -1 -46q-2 -44 -7 -89q-4 -29 -2 -56.5t7 -55.5q2 -25 6 -49.5t8 -49.5q4 -23 -7.5 -45t-33.5 -34q-45 -27 -100 -33q-45 -6 -91 -7h-5q-43 0 -87 15q-37 14 -49 31.5t-14 58.5q0 70 -2 138.5t-4 138.5q0 12 1 24t1 25l8 102t4 105q-2 39 -7 75.5t-7 77.5q-4 41 -4 82 z" />
<glyph unicode="N" horiz-adv-x="1310" d="M106 1228q0 4 -1 7q0 32 12 63q4 10 4 33q0 14 -1 26.5t-1 28.5q8 2 20 3q31 4 43 24q20 23 47 14q20 -6 40 -4l40 4q4 -6 10.5 -11t14.5 -13q16 14 30.5 11t30.5 -15q12 -12 27.5 -20.5t28.5 -22.5q12 -10 20 -26.5t18 -31.5q43 -53 75 -113.5t67 -119.5q33 -68 74 -121 q35 -47 63.5 -96t52.5 -100q18 -37 43 -68q2 23 2 46.5t2 45.5q2 53 3 108.5t1 110.5q2 63 3.5 125t1.5 125q0 29 -2.5 70t-4.5 69q0 18 4.5 36t14.5 36q16 -10 33.5 -10t33.5 4q2 0 3.5 1t3.5 1q29 -8 56.5 -12t57.5 -2q4 2 7 -2.5t8 -8.5q12 -8 17 -8t26 6q0 -4 6 -6 q35 -20 46 -50t11 -69q0 -86 3 -185t3 -185q0 -63 -1 -126t-1 -124q0 -63 1 -126t1 -126q0 -12 -4 -24.5t-6 -26.5q-3 -38 -3 -77v-20q1 -50 13 -98q-27 -2 -33 -16.5t-8 -34.5q0 -14 -4 -40t-8 -38q-2 -6 -16 -20q-6 10 -10.5 16t-8.5 10q-27 -16 -50.5 -31.5t-47.5 -27.5 q-29 -12 -62 0q-14 6 -27.5 14t-27.5 17q-16 -10 -24.5 -9.5t-24.5 17.5q-10 12 -19.5 23.5t-19.5 23.5q-66 90 -130.5 190.5t-129.5 192.5q-16 23 -31.5 50.5t-36.5 51.5q4 -33 9.5 -65.5t9.5 -65.5q0 -10 1 -20t1 -21q0 -4 -12 -16q-27 121 -33 252q-4 0 -5 -1t-3 -1 v-26.5t2 -31.5q4 -29 8 -57.5t8 -56.5q0 -10 1 -19.5t3 -19.5q0 -23 1 -65t2 -87t1 -87v-64q0 -27 -5 -50.5t-9 -48.5q-6 -29 -43 -32q-10 0 -22 -4q-7 -2 -14 -1q-6 0 -11 1q-27 0 -52.5 2t-50.5 6q-27 4 -51 9t-49 11q-16 2 -20 27q0 39 -2.5 96t-4.5 118.5t-4 119 t-2 96.5q-2 25 -3 51.5t-5 50.5q-10 63 -10 126v21q2 74 2 150q0 23 1 46.5t-1 45.5q-4 49 -4 99.5t-8 101.5q-3 35 -5 71z" />
<glyph unicode="O" horiz-adv-x="1542" d="M87 673q-2 15 -2 31q0 30 7 60q2 10 1 18.5t-1 18.5q0 66 11.5 127t41.5 121q6 14 12.5 30.5t16.5 32.5q16 37 43 57q18 16 33.5 34t32.5 36q82 94 192 147q33 16 63.5 31t65.5 21q32 6 64 7h5q29 0 62 -11q20 -4 42 -5.5t42 -3.5q29 -2 55.5 -2h53.5h6q48 0 88 -32 q20 -12 40.5 -25.5t37.5 -30.5q25 -18 49.5 -37.5t40.5 -46.5q41 -51 79 -106t72 -111q23 -37 38.5 -76.5t35.5 -76.5q16 -35 29.5 -70t17.5 -74q5 -45 5 -89v-14q-1 -50 -21 -102q-8 -23 -14.5 -47t-14.5 -51q-29 -70 -65.5 -131t-96.5 -110q-16 -12 -29.5 -24.5 t-29.5 -23.5q-39 -31 -92 -57q-41 -23 -82 -40t-86 -28q-35 -6 -67.5 -12t-65.5 -14q-17 -4 -35 -5h-6q-15 0 -33 5q-10 4 -24.5 3t-30.5 -1q0 2 1 5t1 5q-29 2 -55.5 2t-55.5 2q-41 4 -80 18.5t-73 32.5q-37 20 -72 44t-61 57q-25 29 -45.5 62.5t-38.5 68.5 q-39 68 -64 140.5t-33 148.5q-6 45 -11 91zM481 657q0 -20 2 -38.5t9 -38.5q10 -29 20 -57.5t20 -57.5q14 -35 40 -56.5t61 -31.5q33 -10 64.5 -18.5t64.5 -18.5q10 -2 22 -7q8 -4 15 -3h6q37 8 73.5 17t65.5 38q23 20 43.5 42t42.5 44q4 4 9 8l10 8q18 23 28 47q7 17 7 36 q0 8 -1 16q-4 33 -9 65.5t-9 67.5q-12 88 -55 164q-12 23 -23.5 45t-28.5 43q-12 18 -28.5 33.5t-32.5 31.5q-10 8 -23.5 10.5t-25.5 2.5q-23 1 -48 1h-25q-38 -1 -81 -1q-14 -2 -34.5 -4.5t-36.5 -12.5q-27 -16 -48.5 -36.5t-37.5 -49.5q-10 -25 -21.5 -48.5t-21.5 -47.5 q-4 -4 -5.5 -11.5t-3.5 -13.5q-2 -41 -3 -82t-1 -86z" />
<glyph unicode="P" horiz-adv-x="1175" d="M106 631q6 4 10.5 6t8.5 4q-8 8 -12 13t-4 11.5t7 15.5t19 26q-25 18 -22 47q2 10 3 16t11 12t10 19q4 51 5 103v21q0 42 -3 83v30q0 41 3 82q1 18 1 35q0 23 -2 47q-2 35 -5 69t-15 66q-10 23 -6 32t26 17q29 6 21 29q-4 25 20 29q16 2 33.5 3t34.5 1q16 0 31.5 -1 t29.5 -3q53 -3 103 -3h26q62 1 125 3q47 0 93.5 -7t93.5 -16q27 -6 67 -22q29 -14 56.5 -26.5t56.5 -26.5q16 -8 30.5 -15.5t28.5 -17.5q102 -80 135 -207q16 -63 21 -135q0 -8 1 -16q0 -32 -7 -64q-8 -39 -29 -74q-12 -20 -24.5 -39.5t-26.5 -38.5q-25 -31 -62 -57 q-29 -23 -57.5 -41t-56.5 -37q-47 -29 -96.5 -45t-104.5 -22q-37 -4 -74 -8.5t-78 -8.5q-12 -2 -27.5 -1t-31.5 1q-2 -25 -5 -47t-1 -47q0 -78 2 -155.5t6 -155.5q0 -16 -2 -34t-12 -34q-23 12 -28 11t-15 -23q-6 -10 -8 -12q-16 -6 -21.5 -19.5t-15.5 -26.5q-8 12 -15 19 q-25 23 -39 -12q-4 2 -10 8q-4 -8 -8 -15q-4 4 -8 10.5t-10 14.5q0 -10 -1 -17.5t-3 -15.5q-6 6 -10.5 12.5t-10.5 12.5l-12 -6q-18 -10 -39 4q-12 10 -21.5 20.5t-13.5 26.5q0 4 -2 6q-25 23 -29 50.5t-8 56.5q-12 74 -14 148q-1 25 -1 50q0 50 3 101q2 27 4 53t6 51 q2 23 0 42t-25 34zM489 836q-1 -3 -1 -6q0 -17 22 -17h57q11 0 25 -1h9q8 0 15 1q23 4 46.5 5t44.5 13q18 10 35.5 17.5t33.5 17.5q23 10 25 35q6 22 6 42q0 16 -4 32q-4 23 -14.5 36t-26.5 23q-10 8 -19.5 15.5t-19.5 13.5q-14 8 -26.5 15t-24.5 12q-33 8 -65 10t-66 2 q-37 -2 -44.5 -8.5t-7.5 -42.5q-1 -14 -1 -28q0 -39 4 -79q2 -20 3 -40q0 -33 -6 -66v-2z" />
<glyph unicode="Q" horiz-adv-x="1617" d="M58 726q1 50 18 103q6 25 11 50.5t15 50.5q12 35 30 63.5t38 57.5q29 39 57.5 75.5t63.5 67.5q104 98 248 139q4 0 12 4q-8 10 -4 18.5t12 12.5t19.5 4t21.5 2q-8 6 -14 11.5t-13 9.5q10 23 27 22q2 2 6 2q18 25 43 23t47 -2h74q-10 10 -21.5 10t-25.5 4q20 2 37 2 q48 0 82 -12q59 -23 117.5 -48.5t117.5 -49.5q72 -29 129 -70q10 -8 19.5 -15.5t19.5 -17.5q8 -10 15.5 -16t19.5 -10q4 -2 8 -7.5t8 -9.5q66 -68 97.5 -150.5t42.5 -179.5q7 -59 7 -117v-14q-1 -65 -5 -131q-2 -31 -5 -63.5t-18 -65.5q-10 -25 -20.5 -49t-22.5 -47 q-6 -16 -12 -32.5t-17 -33.5q6 -6 11.5 -14t13.5 -12q45 -41 83 -87t79 -93q4 -6 9 -15q3 -4 3 -11q0 -5 -2 -11q-10 2 -21.5 3t-21.5 3q4 -6 8 -10t8 -9q2 -2 3.5 -4t3.5 -4t2 -4q-10 -14 -1 -20t13 -17q-4 -6 -8 -13t-10 -11q-8 -10 -2 -17.5t2 -17.5q-10 -6 -9.5 -21.5 t-3.5 -31.5q-14 12 -27.5 22t-29.5 23q10 -20 27.5 -29.5t21.5 -32.5q-16 -8 -26.5 -2t-22.5 10q4 -12 8 -18h-24q2 -6 4 -10t4 -10h-19v-7q0 -26 -12 -26q-4 0 -10 4q-29 20 -61.5 32.5t-55.5 41.5q-23 25 -45.5 47t-44.5 45q-10 10 -24.5 22.5t-24.5 24.5q-4 4 -8.5 8 t-8.5 4q-10 0 -12 7.5t-4 17.5q-20 -12 -34.5 -23.5t-31.5 -21.5q-23 -14 -41 -24.5t-45 -8.5q-16 0 -30.5 -4t-32.5 2q10 4 19.5 5t17.5 3q8 4 15 7t13 14q-20 -4 -40.5 -8.5t-38.5 -6.5q-23 -1 -44 -1h-21q-30 1 -60 1q-16 0 -34 -1t-36 1t-36 2l-46 -3q-16 -2 -32 -2 l-50 5q-78 16 -143.5 54t-118.5 94q-23 23 -41 51.5t-37 54.5q-53 84 -81.5 174t-37.5 185q-3 42 -3 83v20zM387 1233l2 -2q4 2 6 4t6 4v2q-2 0 -4 2q-2 -4 -4 -5t-6 -5zM408 621q6 -37 19 -72t30 -74q47 -100 149 -127q39 -12 77 -21.5t79 -17.5q13 -3 26 -3h6q17 1 33 1 q10 2 17.5 6t15.5 9q-2 6 -6 10q-20 23 -40.5 44t-39.5 42l-9 9l-9 9q-12 14 -13.5 22.5t7.5 24.5q4 8 6 13.5t2 9.5q0 16 9 22.5t19 12.5q23 10 43.5 23.5t32.5 35.5q5 4 17 12q12 -2 22 5.5t21 15.5q8 6 18 12t8 27q20 -18 43 -31q12 -16 23 -16q16 0 26.5 -6.5 t20.5 -14.5q6 -4 11 -11t13 -13q25 40 25 77v5q-4 49 -9 99t-14 99q-12 121 -124 174q-47 23 -98.5 42.5t-98.5 39.5q-8 4 -16.5 4t-16.5 2q-4 -27 -10 -35t-29 -12q4 -12 -2 -16t-14 -6q-16 -4 -32.5 -9.5t-33.5 -13.5q-61 -23 -101 -69t-77 -99q-2 -4 -2 -7t-2 -7 q-29 -76 -29 -152q0 -38 7 -75zM477 1276l8 4v2q-4 0 -8 -4v-2z" />
<glyph unicode="R" horiz-adv-x="1284" d="M111 233q2 29 3 59t1 60q2 51 2 101.5v103.5v547q0 41 -2 82t-2 82q-2 20 0 38.5t6 39.5q2 16 11 36.5t22 36.5q18 -6 33.5 -1t29.5 16q12 10 23.5 12t25.5 4q12 1 24 1q24 0 48 -3l70 -8q27 -4 53 -3t53 1q37 1 74 1h36q56 -1 111 -1q10 0 18.5 1t18.5 1t19.5 -1 t17.5 -12q8 -8 16 -8q35 -4 63.5 -20.5t57.5 -34.5q117 -80 195 -201q23 -39 34 -80t17 -84q6 -36 6 -71q0 -66 -20 -126q-30 -91 -97 -175q-10 -14 -21 -28.5t-24 -27.5q-10 -10 -20 -18t-21 -18q8 -23 15.5 -43.5t17.5 -42.5q23 -55 47.5 -109.5t48.5 -110.5 q10 -23 21.5 -44t19.5 -44q5 -13 5 -25q0 -34 -44 -53q-8 -4 -16 -10t-18 -14q-16 4 -29.5 -4t-26.5 -23q-6 -6 -25.5 -12t-29.5 -4q-12 4 -19.5 1t-21.5 -17q-4 4 -9 10t-9 10h-5q-10 -20 -24 -10q-18 12 -25 22q-12 23 -24.5 45.5t-22.5 44.5q-35 80 -68.5 161t-68.5 163 q-2 4 -4 6t-4 6q-2 -2 -6 -2q8 -29 16 -54.5t18 -53.5q-4 0 -5 -1t-3 -1q-14 23 -23 46t-20 50q-4 -12 -4 -14h-4q-2 0 -2 2q-9 35 -47 35q-5 0 -10 -1q-27 0 -52.5 1t-52.5 4q-18 0 -23 -5.5t-5 -23.5v-6q-12 -35 -12 -71q1 -11 1 -21q2 -25 2 -49q0 -22 -2 -44 q-4 -37 -9 -73.5t-11 -71.5q-2 -31 -31 -39q-12 -6 -20 -22q-8 -18 -11 -33q-4 -25 -21.5 -37t-35.5 -23q-2 -1 -5 -1q-2 0 -6 1q-8 2 -18 4q18 20 32.5 38t19.5 44q-23 -10 -40.5 -4t-35.5 13q-23 8 -53 8q-16 2 -27.5 10t-22.5 23q-31 39 -32.5 80.5t-1.5 86.5zM461 973 q0 -33 2 -63.5t2 -63.5q2 -23 6 -28t29 -7q59 -2 117.5 -4t117.5 -6h5q30 0 48 24q6 10 11.5 18.5t13.5 18.5q15 16 15 46q0 7 -1 14q-4 53 -31.5 90t-74.5 61q-4 2 -16 6q-47 7 -94 7h-11q-52 -1 -106 -3q-6 0 -14.5 -2t-18.5 -4v-104z" />
<glyph unicode="S" horiz-adv-x="1222" d="M67 412v7q0 6 1 13q6 -10 12 -19.5t10 -19.5h4q-2 12 -3 27.5t-1 32.5q12 -4 21.5 -7.5t19.5 -7.5q6 12 0 24.5t0 29.5q10 -8 16.5 -19.5t10.5 -28.5q2 14 2 26.5v23.5q8 4 10 4q2 -4 3 -8.5t5 -12.5q8 10 12.5 18.5t10.5 16.5q8 -8 16 -7t16.5 5t15.5 7t17 -1q2 4 4 9 t6 14q4 -14 7.5 -25.5t7.5 -21.5q6 0 12 -1.5t12 -1.5q4 -10 7.5 -18t7.5 -18h14q4 -6 10 -13.5t13 -15.5q4 4 8 14q8 -14 13 -26.5t11 -22.5q16 -35 54 -47q63 -19 128 -19q40 0 81 7q12 4 18 8q18 12 38.5 26.5t41.5 28.5q32 23 32 60q0 6 -1 12q-4 29 -14.5 57.5 t-28.5 50.5q-10 14 -21.5 21.5t-28.5 11.5q-41 14 -82 22.5t-81 18.5q-72 12 -135.5 39t-118.5 70q-27 20 -43 43q-37 51 -58.5 106.5t-21.5 118.5v11q0 67 22 123q24 62 68 114q102 121 254 164q25 6 51 6q25 2 49 2q59 0 115 -14q78 -20 151 -62q41 -23 80 -52.5t74 -64.5 q20 -20 36.5 -42.5t24.5 -51.5q4 -12 9.5 -26.5t9.5 -28.5q2 -6 2 -13.5v-13.5h-4q-6 12 -12.5 23.5t-10.5 25.5q-4 12 -6 23.5t-6 23.5q-4 10 -9 17.5t-9 17.5q-16 -14 -7 -30q12 -23 15 -52q0 -12 5 -25.5t9 -29.5q-12 6 -18 10q-4 -4 -10.5 -7t-10.5 -7 q-16 -25 -38.5 -29t-49.5 -8q-4 0 -6 -1t-6 -1q2 -23 13 -45.5t22 -44.5q-29 12 -35 33q-4 16 -8 29.5t-9 29.5q-6 25 -24 6q-12 -16 -27 -8q-29 14 -43 27q-33 33 -73.5 49t-81.5 33q-18 6 -34 6q-26 0 -50 -15q-16 -10 -30.5 -17t-27.5 -15q-33 -18 -26 -50q6 -31 36 -40 q41 -14 84 -23.5t89 -19.5q61 -12 122 -31q16 -4 30.5 -11.5t29.5 -15.5q18 -10 34.5 -21.5t34.5 -23.5l9 -8q39 -29 63.5 -69t48.5 -81q25 -43 38 -90t20 -96q5 -30 5 -58q0 -56 -18 -106q-28 -76 -82 -143q-6 -8 -12 -13.5t-14 -11.5q-53 -47 -108.5 -87t-121.5 -68 q-33 -13 -84 -27q-39 -10 -70 -11q-9 0 -18 1q4 8 4 10q-63 4 -127.5 10t-128.5 25q-113 35 -190 121q-29 31 -52.5 66.5t-33.5 76.5q-4 10 -5 23.5t-3 27.5q-2 10 -3 22.5t-3 24.5q-2 5 -3 15zM172 1047h2v12h-2v-12zM379 1370l2 -2q4 2 5 2t5 2l-2 4q-2 -2 -10 -6z M479 1409q8 4 10 4q0 4 -2 6q-2 -2 -4 -3t-4 -3v-4zM541 1427h118q0 2 3 5h-121v-5zM709 1415q8 -2 16 -3t16 -3q20 -10 43 -16q10 -4 20.5 -10.5t20.5 -10.5q2 2 2 6q-10 4 -21 7.5t-22 7.5q-23 6 -43 16q-8 4 -15 5t-17 5v-4zM946 1303q0 -4 1 -5.5t1 -3.5q4 0 4 2z M1006 1243q4 -4 10 -9t10 -9l2 2l-9 9t-11 9z" />
<glyph unicode="T" horiz-adv-x="1165" d="M61 1264q0 10 5 22q10 23 19 44.5t19 43.5q6 10 9 12q20 10 35.5 25.5t35.5 28.5q6 4 15.5 5t17.5 1q39 -2 77 -3t77 -1q18 0 35.5 2t33.5 0q41 -2 79 -4t77 -6h70q66 -2 129 -3t129 -6q57 -4 108 -12q23 -4 40.5 -24.5t21.5 -42.5q4 -16 5 -36t5 -36q0 -14 4 -19 q7 -12 7 -23v-2q-1 -11 -5 -26v-53q0 -20 -11.5 -33.5t-17.5 -30.5q-2 -4 -6 -5t-8 -3q-2 -2 -8 -2q-20 2 -41 2q-30 0 -60 -4q-38 -5 -75 -5q-12 0 -25 1q-29 0 -59.5 3t-65.5 7q4 -29 5 -53t3 -47v-86q0 -25 -1 -47.5t-1 -44.5q2 -70 3 -138.5t1 -138.5q0 -57 -4 -111.5 t-6 -109.5q0 -35 3 -69.5t5 -69.5q4 -29 8.5 -57.5t-1.5 -59.5q-6 -23 -18.5 -35t-37.5 -16q-23 -4 -46 -4t-48 -4q-10 0 -20.5 -1t-20.5 -1q-5 -1 -10 -1h-4q-6 1 -15 1q-23 4 -41 8t-38 8q-8 2 -15.5 2t-13.5 2q-20 6 -25 31q-2 41 -5 79t-7 79v9t-2 9q-10 33 -10 66 q0 8 1 17q3 42 7 83q4 18 4 37.5v40.5q0 86 2 167q1 27 1 55q0 55 -3 112q-2 36 -2 72q0 27 1 53q2 38 2 77q0 26 -1 52q0 27 -4 31.5t-29 4.5q-51 2 -101 3t-99 4q-10 2 -19.5 2h-17.5q-29 4 -31 28q0 10 -4 19q-20 28 -20 59q0 25 3 66z" />
<glyph unicode="U" horiz-adv-x="1198" d="M102 416q2 10 2 20t2 21q4 41 6.5 84t4.5 86q4 47 6 93t4 93q0 20 2 39.5t0 40.5q-2 47 -4 95t-6 97q-1 25 -1 50v25.5v24.5q0 25 -1 50v81t-2 81q0 18 16 24q14 6 27.5 11.5t25.5 9.5q11 5 21 5q5 0 11 -1q16 -4 32 -2q10 0 18 -1t19 -1q23 -2 47 -2t49 -2q20 -4 20 -25 q2 -8 2 -16t3 -17q0 -29 16 -53q12 -12 12 -39q-2 -29 0 -55.5t10 -52.5q8 -23 8.5 -45.5t2.5 -44.5q2 -31 3 -62t3 -63q3 -31 3 -62q0 -15 -1 -31q-2 -46 -2 -92q-2 -49 -7 -98l-10 -98q-2 -27 -3 -52.5t-1 -50.5q0 -12 13 -24q29 -29 65 -49q32 -18 72 -17h8q0 -2 2 -2 q2 -2 4 -2q-12 -5 -27 -5q-19 0 -43 8q-42 16 -94 56q-2 -12 4.5 -20t12.5 -12q16 -12 32.5 -24.5t36.5 -18.5q33 -11 65 -11q13 0 27 2q46 7 91 27q12 8 14 17q2 27 35 26q2 29 5 54.5t3 52.5q2 71 3 141v28q0 56 -3 111q-1 18 -1 35t1 34v11q0 28 -8 57q-4 10 -3 20.5 t1 20.5q-2 43 -3 85t-1 87q0 20 1 39t1 37q1 15 1 40v28v27q0 25 1 40q0 16 3 21.5t19 11.5q4 2 9.5 2t9.5 4q18 16 40.5 16.5t45.5 -3.5q10 0 15 1t15 1q14 0 26.5 1t25.5 1q12 0 18 2q18 6 32.5 3t31.5 -11q20 -6 22 -27q0 -16 1 -41t2 -51.5t3 -51t2 -42.5 q4 -53 4 -107.5t4 -110.5q2 -49 5.5 -99t5.5 -101q1 -56 1 -112.5t-1 -115.5q-2 -23 -2 -46t4 -46q1 -5 1 -10q0 -9 -2 -17q-3 -14 -7 -26q-12 -45 -24.5 -88t-23.5 -88q-2 -2 -2 -8q0 -41 -21.5 -73t-53.5 -54q-104 -84 -246 -109q-64 -9 -129 -9q-38 0 -76 3 q-49 4 -95 18.5t-89 36.5q-57 27 -106.5 66t-82.5 96q-4 4 -4 8q-15 47 -27 95q-9 35 -9 71q0 12 1 25z" />
<glyph unicode="V" horiz-adv-x="1454" d="M70 1406q2 6 16 9q14 2 25.5 -10t19.5 0q6 8 16 12l68 25q25 10 55 10q19 0 39 -4q18 -4 37 -6t39 -2q29 -2 43 -11.5t23 -37.5q8 -27 15 -46.5t14 -38t13.5 -39t12.5 -46.5q10 -59 22.5 -118t28.5 -118q14 -53 27.5 -105.5t29.5 -105.5q6 -27 16.5 -50.5t20.5 -45.5 q10 -29 19.5 -59.5t19.5 -59.5q4 -4 5 -9t5 -11q12 10 13.5 20.5t1.5 20.5q6 8 11 15t9 17q25 66 49.5 129.5t46.5 128.5q23 66 45.5 133.5t45.5 133.5q16 47 32.5 92t34.5 92q6 18 16.5 35.5t20.5 34.5q0 6 6 6q29 2 51.5 20.5t55.5 14.5q14 -4 28.5 2t30.5 10q23 4 43.5 3 t36.5 -24q12 -16 32.5 -20t43.5 -6q43 0 43 -31q0 -6 -2 -14q-10 -33 -19.5 -66t-19.5 -63q-39 -111 -77 -219.5t-77 -219.5q-14 -39 -28.5 -75.5t-30.5 -75.5q-10 -29 -21.5 -59.5t-21.5 -59.5l-62 -154l-12 -43v2q-18 -27 -26.5 -54t-14.5 -56l-7 -7t-3 -7 q-6 -35 -27.5 -76t-46.5 -64q-6 -4 -10 -10t-8 -10q-8 -6 -15.5 -11.5t-15.5 -9.5q-31 -10 -61.5 -14t-63.5 -8q-25 -2 -49.5 -5t-48.5 -10q-8 -3 -15 -3q-4 0 -8 1q-10 2 -20 5q-23 4 -46.5 8t-47.5 8q-4 16 -5.5 32.5t-3.5 32.5q4 2 7.5 2t9.5 5q-10 20 -21.5 38.5 t-21.5 36.5q-2 0 -4 -2q14 -31 22 -57q-4 -4 -6 -4q-12 12 -16 20q-16 31 -33 62t-29 63q-27 66 -53.5 129.5t-42.5 130.5q-10 37 -24.5 74t-26.5 74q-29 82 -56 176q-16 66 -31.5 129t-31.5 129q-10 45 -18.5 90t-18.5 90q0 6 -1 13.5t3 11.5q10 12 8 23.5t-6 23.5 q-4 16 -10 32.5t-10 32.5q-3 11 -3 17q0 3 1 5zM233 696q12 -29 25 -55t23 -53q4 -8 8 -25q0 2 4 2q-4 6 -6 11.5t-6 11.5q-4 29 -16.5 55.5t-22.5 54.5q-2 0 -4 -1t-5 -1z" />
<glyph unicode="W" horiz-adv-x="2121" d="M86 1294q-5 15 -5 29q0 36 34 63q43 31 90 39q8 0 18 7q35 16 72 16t74 -6q41 -4 69.5 -32t34.5 -67q10 -45 22.5 -89t28.5 -85q20 -53 40 -107t34 -112q14 -66 39 -127t49 -123q6 -18 14.5 -36.5t18.5 -36.5q2 -2 10 -6v14q25 55 49.5 110.5t44.5 112.5q18 49 33.5 99.5 t24.5 103.5q0 20 10 41q6 18 20 24q35 20 72 35t78 19q14 2 29.5 0t29.5 -6q16 -4 35 -8.5t35 -6.5q25 -4 33 -13t8 -34q0 -23 10 -43q23 -41 36 -83t23 -85q6 -23 14.5 -46.5t16.5 -45.5q23 -59 46.5 -118.5t45.5 -119.5l3 -6t6 -8q8 14 9 24.5t-3 22.5q-4 8 -8.5 18.5 t-8.5 20.5q-25 63 -48 127t-48 127q-2 4 -4 9t-2 9q-4 41 -20.5 79t-36.5 73q-14 25 -15 49q8 -8 8 -12q25 -47 48.5 -94t29.5 -101q4 -23 12.5 -44t18.5 -42q16 -45 33.5 -89t36.5 -89q2 -6 5 -13t7 -18q10 33 20.5 62t14.5 57q10 53 26.5 103.5t38.5 97.5q16 35 31.5 67.5 t30.5 65.5q16 47 32.5 91t32.5 89q4 10 5 19.5t3 19.5q6 25 11.5 48.5t11.5 45.5q6 31 39 39q29 10 55.5 18.5t54.5 14.5q13 3 27 3h7q18 -1 34 -11q25 -16 56 -16q15 0 32 4q37 6 37 -31v-12q-12 -53 -17.5 -107.5t-25.5 -105.5q-2 -4 -2 -15q-8 -16 -15.5 -31.5 t-13.5 -29.5q-4 -10 -8 -19.5t-8 -19.5q-8 -16 -12 -27l2 2q-4 -6 -8.5 -10t-6.5 -10q-18 -47 -37.5 -93t-38.5 -94q-10 -29 -14 -57.5t-12 -56.5q-16 -76 -35.5 -149.5t-36.5 -147.5q-10 -43 -20.5 -84t-22.5 -82q-6 -23 -14 -44.5t-19 -43.5q-10 -25 -21 -49.5t-22 -46.5 q-12 -29 -43 -35q-10 -2 -18 -8.5t-18 -10.5q-6 -2 -12.5 -4t-12.5 -2q-18 -2 -38.5 -1t-39.5 -3q-15 -4 -31 -4q-7 0 -15 1q-24 3 -46 3q-29 0 -61 6q-10 0 -11 6q-12 16 -24.5 31.5t-20.5 34.5q-12 20 -20 39.5t-15 42.5q-16 41 -36.5 79t-40.5 72l-16.5 33t-14.5 33 q-10 29 -20.5 59.5t-20.5 61.5l-19 37q-6 -12 -10 -20.5t-6 -16.5q-20 -51 -38.5 -100.5t-39.5 -98.5q-8 -18 -17 -33.5t-20 -29.5q-4 -6 -10 -10.5t-14 -8.5q4 -12 4 -18q4 -14 2 -35t-8 -42.5t-17.5 -38.5t-23.5 -24q-35 -20 -75 -27t-79 -20q-29 -6 -54.5 -8t-51.5 -6 q-12 -2 -28.5 -2t-27.5 6q-12 6 -21 19.5t-15 27.5q-6 10 -9.5 28.5t-6.5 38t-5 38t-6 28.5q-25 51 -42 105.5t-34 107.5q-16 45 -32.5 88t-32.5 86q-16 41 -33 81t-33 81q-10 25 -14 50.5t-10 52.5q-16 51 -33 102t-35 102q-12 41 -25.5 82t-25.5 82q-8 23 -15.5 44.5 t-15.5 43.5z" />
<glyph unicode="X" horiz-adv-x="1443" d="M76 205q0 13 22 39q78 92 155 184t155 184q29 33 53 66q14 14 2 33q-10 12 -20.5 24.5t-20.5 26.5q-66 88 -133.5 176t-132.5 178q-16 23 -31.5 48.5t-32.5 49.5q-2 4 -3 12.5t3 12.5q8 16 17.5 31.5t19.5 32.5q37 53 90 84.5t111 58.5q8 4 15 6t17 2h4q29 0 50 -31 q23 -39 47 -76.5t53 -74.5q43 -59 87 -116.5t89 -117.5q8 -10 16.5 -14t22.5 10q-2 -8 -5 -15t-4 -14.5t2 -12.5t13 -11q4 4 10.5 10t10.5 13l289 344q4 4 6 8l4 8q18 33 48 46t62 24q6 -4 9.5 -11.5t6.5 -14.5t8 -12t17 -1q4 -12 8.5 -24.5t22.5 -12.5q4 0 8 -8.5t10 -14.5 q6 2 19 13q2 -23 14.5 -37.5t24.5 -28.5q6 -6 13 -12t13 -15q15 -16 15 -33q0 -13 -8 -26q-53 -86 -110.5 -166t-123.5 -156q-41 -43 -77 -89t-74 -91q-12 -16 0 -30q33 -45 64.5 -90.5t64.5 -90.5q25 -33 49 -63.5t49 -63.5q37 -49 73.5 -100t75.5 -100q12 -15 12 -29 q0 -5 -2 -10q-6 -19 -8 -37q0 -2 -10 -12q-37 -23 -72.5 -43.5t-72.5 -40.5q-27 -14 -52.5 -25.5t-54.5 -21.5q-10 -4 -20 -4q-21 0 -41 20q-16 18 -30.5 36.5t-31.5 39.5l-122 159l-99 136q-4 6 -18 20q-12 -12 -22.5 -24.5t-20.5 -22.5q-2 2 -4 2t-4 2q8 10 14 19.5 t14 19.5q10 16 9 22.5t-19 22.5q-4 -4 -16 -12q-49 -59 -99.5 -118.5t-99.5 -119.5q-23 -27 -45.5 -51.5t-44.5 -50.5q-18 -23 -36.5 -28t-51.5 11q-20 10 -39 21.5t-41 15.5q-10 0 -18 17q-18 23 -38 45t-42 39q-4 4 -6.5 6t-6.5 6q-24 26 -24 39z" />
<glyph unicode="Y" horiz-adv-x="1263" d="M56 1292q3 13 26 29q10 8 21.5 16.5t21.5 18.5q8 8 11 19t9 24h43q33 -2 56 20q12 16 28.5 24.5t34.5 12.5q6 1 12 1q18 0 29 -15q6 -10 11.5 -17.5t9.5 -13.5q35 -53 66.5 -105.5t66.5 -103.5q25 -37 50.5 -70.5t53.5 -70.5q6 4 11.5 8t9.5 8q51 51 101 103.5t101 103.5 q12 14 26.5 27.5t29.5 25.5q14 12 26 27q23 27 48.5 45t60.5 27l8 4l8 4q27 10 33 -19q2 -8 2 -13t2 -13q2 0 4 -2q8 4 16.5 6t18.5 6q2 0 2 -4q-2 -8 -6 -16.5t-8 -18.5q16 0 26 -2q-2 -8 -2 -22q8 0 15.5 1t11.5 1q4 -6 9 -12.5t14 -14.5v-21q4 -10 15 -7t7 -13 q0 -4 11.5 -8t13.5 -8q3 -9 3 -17q0 -12 -7 -20q-29 -55 -72 -99.5t-86 -87.5q-33 -35 -65.5 -69.5t-65.5 -69.5q-31 -31 -60.5 -61.5t-58.5 -61.5q-27 -25 -27 -63q2 -53 3 -105v-22q0 -42 -3 -84q-1 -23 -1 -46q0 -49 5.5 -97.5t5.5 -97.5q0 -23 -1 -46q-2 -35 -6.5 -73 t-8.5 -72q-4 -16 -10 -30.5t-14 -31.5q-10 10 -21.5 16.5t-25.5 14.5q-16 -6 -35 -11t-25 -28q-10 0 -27 4q-6 0 -12 1t-14 3q-2 -4 -5 -8t-7 -14l-21 20q-25 25 -37 -6q-4 -12 -8 -15.5t-22 -11.5q-8 18 -14.5 36t-12.5 34q-4 10 -5 18.5t-5 18.5q-2 8 -4 15t-2 18 q-4 47 -5.5 93t-3.5 93q-2 18 -3 37.5t-1 40.5q0 4 -1 7t-1 7q4 47 8 93t7 94q2 29 -0.5 56.5t-4.5 55.5q-2 8 -14 25q-51 72 -102.5 143.5t-100.5 143.5q-31 45 -61.5 91t-61.5 91q-10 16 -19 32.5t-19 34.5q-11 20 -11 33q0 3 1 6z" />
<glyph unicode="Z" horiz-adv-x="1277" d="M113 1243q12 23 10 46.5t-4 45.5q0 12 1 24.5t1 22.5q4 12 4 19q0 16 6 23.5t25 7.5q98 2 195.5 3t195.5 3q78 0 158.5 -1t158.5 -1q10 0 20.5 -1t20.5 -3q20 -2 39 -4.5t41 2.5q25 2 49.5 -1.5t46.5 -19.5q6 -4 15.5 -7t19.5 -7q-2 -8 -2 -14.5t-2 -12.5q-8 -4 -15 -6 t-18 -6q10 -6 18.5 -10.5t16.5 -8.5q4 -16 -8 -17t-19 -9q10 -29 17.5 -34t46.5 -3q0 -23 -14.5 -37t-18.5 -39q10 14 23 23q4 -8 8 -15q18 29 35 47q4 -4 8 -4q-18 -47 -47 -87t-58 -83q16 10 29.5 25.5t40.5 11.5q-8 -10 -14 -20.5t-15 -20.5q-10 -16 -20 -33.5t-23 -33.5 q-29 -43 -58.5 -85t-61.5 -83q-45 -59 -90.5 -113.5t-92.5 -110.5q-43 -57 -87 -114.5t-89 -114.5q-4 -6 -7 -13t-9 -16q10 -2 16 -2h15q29 -1 57 -1h28h28q28 0 57 -1q47 -2 92 -5t92 -5q14 -2 27.5 0t29.5 4h7q50 0 50 -47q0 -8 -2 -18q-2 -4 -2 -7.5t-2 -7.5 q-2 -12 9.5 -21t1.5 -26q-4 -10 -2 -23.5t6 -23.5q8 -16 2 -29.5t-4 -29.5q4 -10 2 -23.5t2 -25.5q6 -18 -1 -33t-18 -29q0 -4 -7 -7t-13 -3q-35 0 -69 1t-68 3h-6q-66 2 -130.5 4t-130.5 2q-68 0 -134 -2q-33 -1 -66.5 -1t-67.5 1q-41 2 -82 8t-82 10q-10 2 -17 2.5 t-18 0.5q-27 0 -34 26q-2 10 -2 20.5t-2 20.5t-4.5 18.5t-6.5 18.5q-10 25 -9 34t5 38q2 10 2 22q0 27 -10 58q-4 10 -6 22t2 25q4 10 0 20q0 16 18 27q27 16 41 37q33 39 62.5 78.5t58.5 80.5q25 35 51.5 67t51.5 64q12 16 25 35t30 35q10 12 21.5 22.5t21.5 20.5 q4 6 10 13.5t12 15.5q14 14 26.5 29.5t27.5 29.5q0 4 2 4q35 10 51 38t39 50l55 68q2 4 2 7t4 7q-4 2 -4 3t-2 3l-82 4t-82 2q-35 0 -69.5 -2t-69.5 -2q-27 -2 -53.5 0t-53.5 2q-53 0 -108 -6q-23 -4 -41 3.5t-41 13.5q-8 4 -9 11t-1 15q-2 16 -2 29.5v30.5q0 14 -4 16 q-11 11 -11 21q0 12 11 24z" />
<glyph unicode="[" horiz-adv-x="772" d="M104 795q0 18 2.5 37.5t2.5 37.5q0 27 1 75t1 107.5t1 124t1 123t1 106.5t1 75q2 18 3 36.5t1 34.5q4 45 7 90.5t7 90.5q2 23 16.5 33t36.5 -1q10 -4 19.5 -7t21.5 5q4 2 8.5 1t8.5 -1q4 -2 9 -4t11 -2q4 -2 10.5 -1t14.5 1q6 8 14 25q20 35 57 28q16 -2 35 -5t35 -3 q39 0 76 6q61 8 125 -4q10 -2 18 -8t17 -12q10 -6 12 -15.5t2 -19.5q0 -31 1 -60.5t1 -58.5q0 -14 -4 -20q-18 -31 -25 -66q0 -8 -8 -16q-16 -10 -30.5 -22.5t-36.5 -16.5q-25 -4 -48.5 -9t-48.5 -10q-23 -4 -26.5 -9t-5.5 -27q0 -18 -1.5 -59.5t-1.5 -92.5v-107.5v-107.5 t-1 -92t-1 -60q-2 -39 -3 -76.5t-1 -76.5q0 -31 1 -62.5t3 -62.5q0 -18 1 -65.5t2.5 -110t2.5 -130t2 -130t3 -109.5t2 -65q0 -10 4 -27q4 -18 9 -23.5t26 -7.5q33 -4 64.5 -7t64.5 -7q12 -2 23 -8t22 -13q12 -8 8 -26q-2 -8 -1 -15.5t1 -15.5v-20q-2 -23 -3 -42.5t-3 -39.5 q0 -12 -2 -23.5t-11 -21.5q-6 -8 -8 -19.5t-4 -21.5q0 -25 -20 -33q-12 -4 -15 -8q-6 -8 -13 -9t-17 -1q-35 2 -71 4t-71 4h-25.5t-25.5 -2q-8 0 -17.5 -2t-15.5 -7q-12 -12 -25.5 -12t-27.5 4q-20 4 -40.5 5t-41.5 6q-20 4 -28 6q-35 6 -44.5 17t-11.5 46q-2 47 -2 92 t-4 90q-2 41 -5 79t-7 77q-2 12 -2 54t-1 98.5t-2 120t-2 120t-2 98.5t-1 54q-2 51 -3.5 101t-1.5 104z" />
<glyph unicode="\" horiz-adv-x="1257" d="M25 1408q2 13 24 32q20 14 39 33q29 27 70 32q23 4 42 7.5t42 9.5q23 8 47 9t49 -1q25 0 41 -23l215 -307q10 -14 20.5 -27.5t20.5 -29.5q29 -41 53.5 -85t48.5 -89q27 -49 53.5 -98.5t55.5 -98.5q45 -82 89 -163t91 -160q23 -41 47.5 -79t46.5 -79q25 -41 49.5 -79 t49.5 -79q14 -23 2.5 -42t-39.5 -21q-7 0 -17 2q-8 0 -16 -6q-12 -10 -25.5 -14.5t-29.5 -8.5q-41 -8 -78 -17.5t-78 -17.5q-14 -4 -28.5 -2t-28.5 6q-4 0 -6.5 6.5t-6.5 10.5q-20 37 -39.5 74.5t-42.5 74.5q-35 55 -69.5 112.5t-63.5 117.5q-20 41 -42.5 78.5t-45.5 78.5 q-45 82 -95 160t-91 164q-25 51 -56.5 97t-62.5 93q-16 29 -35.5 53.5t-36.5 53.5q-33 49 -68.5 95t-76.5 91q-20 23 -18 36z" />
<glyph unicode="]" horiz-adv-x="813" d="M90 -78q-4 23 2 44.5t14 43.5q4 10 13.5 12.5t19.5 4.5q43 6 86 3t88 -5h45l7 30q0 18 1 85t2 143.5t1 143.5v85q0 76 -1 150.5t-6 148.5q-2 45 -4 133t-4 185.5t-2 185.5t2 133q2 14 -2 18t-20 4h-59.5t-59.5 -2h-14q-35 0 -41 33q-10 51 -15.5 102.5t0.5 102.5 q6 45 31 78q10 12 29 16q16 4 34.5 5t34.5 3q41 0 81 2t81 -2q20 -2 43 -3t41 -19q6 -6 15.5 -8t19.5 -4q18 0 35.5 -9.5t36.5 -1.5q2 2 6 0q12 -8 24.5 -16t22.5 -18q6 -6 8 -16.5t2 -20.5q2 -35 2 -70v-70v-118.5v-172t1 -171t1 -117.5q0 -39 3 -78t5 -78q2 -27 2 -53.5 v-54.5v-709v-229v-18.5t-12 -18.5q0 59 2 113.5t-14 107.5q2 -14 4 -27.5t2 -29.5v-138q0 -23 -5 -28.5t-28 -10.5q-12 -2 -23.5 -5t-23.5 -5q-14 -2 -27.5 -2t-29.5 -2q-14 0 -28.5 -2t-29.5 -4l-24 -4t-27 -2q-61 -2 -122.5 -2h-120.5h-19q-41 0 -49 37q-10 41 -24.5 82 t-8.5 88q0 6 -4 22zM680 51h2v619h-2v-619zM680 715h2v12h-2v-12z" />
<glyph unicode="^" horiz-adv-x="1099" d="M66 1079q16 16 29.5 32.5t29.5 33.5q29 31 59.5 62.5t59.5 64.5q57 63 98 131q16 29 35.5 54.5t38.5 51.5q31 43 84 33q12 -4 25.5 -6t27.5 2q4 2 6 0t6 -2q16 -4 34.5 -8t35.5 -8q2 -2 4 -2q10 0 17.5 6t17.5 -2q16 -12 36.5 -20.5t32.5 -26.5q4 -6 8.5 -11.5t6.5 -9.5 q4 -20 14 -35.5t21 -32.5q18 -27 34.5 -53t34.5 -53q16 -23 32.5 -41t33.5 -41q16 -25 28 -47q16 -29 35 -57.5t43 -51.5q12 -8 13 -18q-6 -12 -21 -16q-35 -6 -63 -27q-4 -4 -11.5 -4t-13.5 -2q-10 -4 -18.5 -5t-18.5 -3q-2 -2 -10 -2q-12 0 -24.5 2t-26.5 2 q-25 4 -46.5 12t-37.5 27q-14 16 -29.5 28.5t-28.5 28.5q-14 16 -25 34.5t-24 37.5q-33 49 -78 90q-4 -6 -4 -9.5t-2 -5.5q0 -2 -1 -2t-1 -2q-12 -4 -16 -6q-47 -41 -88 -84t-78 -92q-20 -27 -47 -36t-60 -9q-10 2 -30 -2q-4 0 -6 -1t-5 -1q-37 10 -73.5 17t-71.5 26 q-4 4 -8 5t-8 5q-31 20 -6 49z" />
<glyph unicode="_" horiz-adv-x="1439" d="M92 -133q4 39 11.5 74.5t27.5 68.5t44 43t58 0q41 -12 86 -8q35 0 71 -1t71 -7q23 -4 47 -3t47 -1q66 -2 128 -3t128 -5q41 -4 81 -8.5t81 -6.5q66 -4 127 0q35 0 68.5 1t68.5 3q8 2 15.5 1t15.5 1q49 6 66.5 -19.5t19.5 -64.5q0 -16 -3 -31.5t-5 -31.5v-20.5t-3 -20.5 q-4 -31 -9 -62.5t-27 -58.5q-4 -4 -7 -8q-16 -25 -29.5 -30t-41.5 -1q-23 4 -47.5 4h-46.5q-45 0 -88 -6q-41 -6 -79 -4t-79 8q-29 4 -56.5 5t-56.5 3q-47 4 -95 5.5t-97 3.5q-23 2 -45.5 3t-44.5 3q-35 2 -68 3t-66 5h-49q-23 0 -45 -2t-45 0q-29 0 -46 4t-28.5 14.5 t-19.5 26.5t-18 41q-8 18 -10.5 40t-6.5 42z" />
<glyph unicode="`" horiz-adv-x="632" d="M50 1397q3 12 24 28q8 4 13 10.5t11 12.5q20 16 39 31.5t37 31.5q8 6 21 7q18 2 35.5 3t35.5 3q14 2 27.5 4t28.5 4q43 6 63 -37q16 -35 32.5 -69.5t37.5 -69.5q29 -49 50 -101.5t40 -105.5q10 -23 14 -45.5t8 -44.5q2 -6 2 -12.5t2 -12.5q4 -23 1.5 -31t-25.5 -24 q-16 8 -21 12q-16 -8 -28.5 -15t-26.5 -11q-8 -4 -15 -4t-18 -3h-8q-10 -12 -22.5 -9t-22.5 3q-16 -2 -28.5 -4t-22.5 -12q-16 -14 -31 4q-23 23 -45 47.5t-35 56.5q-18 43 -39.5 85t-44.5 85l-80 148q-12 23 -9 35z" />
<glyph unicode="a" horiz-adv-x="1050" d="M86 778q-1 11 -1 21q0 23 6 41q9 28 40 51q29 18 55.5 37.5t55.5 38.5q53 35 112.5 50t122.5 15q35 0 65.5 -6t65.5 -10q49 -4 91 -26.5t77 -57.5q61 -59 102.5 -130t57.5 -157q10 -53 16 -104.5t11 -102.5q0 -12 -2 -20q-4 -29 -8.5 -58.5t-8.5 -58.5q-4 -14 0 -14 q12 -6 10 -14.5t-2 -18.5v-82q-2 -27 -2 -52.5t-2 -49.5q-6 -35 -39 -37t-62.5 -5t-62.5 3q-29 6 -59.5 2t-60.5 -15q-61 -16 -124 -22t-124 -10h-11q-47 0 -89 16q-46 18 -87 53q-10 10 -15 19.5t-15 19.5q-23 29 -40.5 57.5t-33.5 57.5q-19 41 -27 83q-2 13 -3 27 q0 28 11 56q10 29 29 51.5t41 40.5q16 14 35.5 27.5t36.5 29.5q10 8 20.5 17.5t20.5 19.5q4 4 4 6q0 25 17.5 37t33.5 25q10 8 19.5 14t19.5 14q16 14 36 19.5t40 3.5q-45 -10 -76 -36t-66 -52q-2 0 -8 -14q10 2 15.5 2t9.5 4q49 23 101 32t108 11q27 0 43 18q4 8 26 19 q-14 16 -31.5 22t-33.5 10q-33 8 -64.5 9.5t-60.5 -11.5q-33 -10 -47 -22q-23 -14 -42.5 -31.5t-35.5 -40.5q-16 -20 -38 -20q-10 0 -21 4q-27 10 -47.5 27.5t-36.5 35.5q-55 55 -68 131zM342 336q18 -2 47 12q20 10 41 18.5t43 4.5q-25 -10 -52.5 -16.5t-47.5 -26.5 q14 -18 19 -20t28 5q14 8 29 13q0 -2 1 -3t1 -4q-13 -10 -25 -12v-4q4 0 5 -1h1t4 1q10 0 17 2q39 14 78.5 22.5t80.5 14.5q8 2 15.5 2t15.5 2q18 4 12 21v14q-2 14 -5 17t-17 5q-17 1 -34 1q-79 0 -159 -23q-8 -2 -20 -10q-23 -10 -42.5 -18.5t-35.5 -16.5zM647 330 q2 -2 4 -2q6 0 6 4q1 1 1 2t-1 2q-2 2 -2 6l-8 -8q-1 -1 -1 -2t1 -2z" />
<glyph unicode="b" horiz-adv-x="1085" d="M106 312q4 16 5 32q0 27 3 53.5t1 53.5q-1 19 -1 37q0 32 4 63q7 49 11 100q1 27 1 54v27q-1 40 -1 81q-2 33 -5 65q-2 19 -2 38q0 13 1 26q2 21 2 43q0 16 -1 32q-3 38 -3 77v249q0 35 6 70t23 68q4 10 7 19t7 20q8 2 15 1t11 3q4 3 10 3t13 -3q18 -14 41 -4q16 7 32 7 q25 0 48 -18q6 -4 14 -6t14 -6q12 -4 15 -8q10 -20 37 -16q16 2 22 -17q12 -29 15.5 -58.5t5.5 -58.5q0 -47 3 -92t7 -92v-94q2 -8 2 -15.5t4 -15.5q14 12 11 26.5t-1 28.5q2 16 1 29.5t-1 28.5v30.5t4 30.5q4 -20 5.5 -39.5t3.5 -40.5q2 -16 1 -34.5t1 -36.5q0 -18 4 -21.5 t20 -7.5q25 -6 51 -6q10 0 20 1q36 3 71 7q27 4 50 -1t48 -15q47 -23 81 -59t62 -77q14 -16 27.5 -35.5t28.5 -35.5q81 -111 81 -237q0 -44 -10 -89q-4 -23 -7 -44t-9 -44q-4 -14 -8 -27.5t-9 -27.5q-4 -12 -15 -18.5t-21 -10.5t-13.5 -9t-7.5 -13q-8 -43 -32.5 -77 t-53.5 -63t-61 -49q-33 -27 -71 -40t-77 -23l-86 -19q-16 -2 -32.5 -3t-32.5 -3q-23 -2 -42.5 -2h-39.5q-49 2 -98.5 4t-98.5 6q-31 1 -51 21q3 17 3 34q0 25 -7 47q-12 38 -35 72q-8 10 -11 21.5t-5 21.5q-2 12 -1 24.5t-4 27.5q-2 7 -2 15q0 7 2 14zM442 385q10 0 20.5 -1 t20.5 -1q49 4 96.5 13.5t94.5 25.5q2 0 2 1t2 1q16 6 18 11q1 2 1 7.5t-1 14.5q-4 29 -5 58.5t-3 57.5v19.5t-2 19.5q-4 46 -16 54q-8 6 -31 5q-11 0 -25 -1q-24 -2 -49 -2l-49 2h-10q-21 0 -29 -6q-10 -8 -14 -37q-2 -4 -2 -15q-4 -29 -7 -58.5t-5 -57.5q-4 -27 -4.5 -54.5 t-2.5 -56.5z" />
<glyph unicode="c" horiz-adv-x="1089" d="M88 599q8 93 49 185q27 57 70 96.5t96 67.5q59 31 121.5 44.5t128.5 23.5q45 8 90 8q13 0 27 -1q58 -3 118 -13q25 -4 48.5 -11.5t46.5 -23.5q20 -14 43.5 -24.5t46.5 -22.5q10 -4 20.5 -11.5t14.5 -23.5q-4 -2 -8.5 -3t-8.5 -3q2 -2 1 -4t1 -4q4 -8 6 -14.5t7 -14.5 q2 -7 2 -12q0 -13 -13 -21q-20 -10 -34 -39q-23 -31 -52 -39q-57 -10 -78 -59q-4 -14 -11 -17.5t-23 -0.5q-12 4 -24.5 6t-27.5 6q-25 8 -48 3t-46 -15q-20 -4 -30 -9q-29 -6 -56.5 -12t-56.5 -12q-8 -4 -15.5 -9.5t-9.5 -13.5q-8 -16 -13 -35.5t-7 -38.5q0 -27 2 -52t4 -52 q4 -39 39 -41q8 0 15 -1t18 -3q16 0 34.5 -1t36.5 -3q29 -6 58.5 -4t58.5 4q12 0 19 4q23 14 46 13t48 10q6 -35 37 -44q16 -4 22 -19t10 -30q4 -10 10.5 -20t18.5 -14q-2 -6 -2 -11.5t-2 -11.5q4 -6 11 -9t7 -16q-2 -10 6.5 -18t14.5 -18q2 -12 1 -27.5t1 -32.5 q6 -23 -10 -39q-10 -8 -19.5 -17t-19.5 -13q-41 -16 -85 -33t-87 -27q-36 -8 -73 -8q-11 0 -21 1q-48 3 -95 7q-25 4 -48 5t-48 5q-23 4 -45.5 6.5t-44.5 8.5q-47 14 -88 36.5t-72 61.5q-20 25 -36.5 49.5t-32.5 48.5q-27 41 -39.5 87t-20.5 94q-7 59 -7 116q0 38 3 75z" />
<glyph unicode="d" horiz-adv-x="1308" d="M45 573q4 29 6 54.5t4 54.5q6 59 34 108.5t63 96.5q23 29 45 54.5t49 47.5q31 27 78 51q49 25 100 42.5t108 21.5q25 0 50.5 2t54.5 6q27 -4 55.5 -6t57.5 -6q27 -4 34 1t7 32q2 8 0 18q-3 36 -3 71q0 47 5 94q8 81 14 165q0 16 6 28q4 10 16 15q31 2 63 4q11 1 21 1 q21 0 41 -3q12 -2 25.5 -5t26.5 7q10 -12 23 -12t26 -5q8 -2 15 -1t15 -1q20 -4 36 -14t32 -18q2 0 3 -2t3 -2q35 -10 39 -34q2 -12 2 -25.5t-2 -27.5q-19 -111 -19 -223q0 -24 1 -49q0 -45 -3 -89t-3 -87q0 -29 2 -55.5t2 -55.5q1 -20 1 -38.5t-1 -36.5q-2 -36 -2 -74 q0 -41 2 -83t4 -83q0 -23 1 -45.5t1 -44.5q0 -61 1 -122.5t1 -123.5q0 -27 -2 -52.5t-4 -51.5q-2 -27 -31 -35l-43 -12q-6 -2 -12.5 -4.5t-12.5 -2.5q-41 0 -83 -1h-7q-38 0 -76 10q-25 8 -50 11t-48 19q-10 6 -18 2t-17 -8q-35 -16 -68.5 -28.5t-72.5 -16.5q-8 -2 -16.5 -2 h-16.5q-33 4 -64.5 8t-62.5 11q-72 14 -133 48.5t-115 82.5q-41 37 -74.5 77.5t-56.5 87.5q-29 59 -46 123q-13 47 -13 96q0 18 2 35zM416 473q12 -23 33.5 -41t47 -30.5t54.5 -14.5h10q24 0 45 8q29 12 60.5 19.5t62.5 17.5q23 6 29 14.5t6 30.5q0 31 -1 60.5t-3 60.5v88 q0 6 2 11t4 12l4 -2l12 -246h4q-2 66 -4 131t-4 135q-41 4 -80 10t-80 8q-13 2 -26 2q-10 0 -19 -1q-22 -3 -45 -7q-45 -8 -75.5 -34.5t-46.5 -67.5q-16 -40 -16 -80q0 -42 26 -84z" />
<glyph unicode="e" horiz-adv-x="1079" d="M80 504q0 10 1 20.5t1 20.5q0 20 1 38.5t-1 41.5q-1 10 -1 19q1 37 13 72q16 44 37 85q16 35 43 66.5t55 60.5q14 16 28.5 31.5t33.5 25.5q16 10 34.5 17.5t39.5 17.5q39 23 80.5 34t86.5 15q10 2 20.5 2h20.5q35 -4 68 -6t64 -6q66 -10 116.5 -45t93.5 -82 q51 -59 76 -121q10 -23 15.5 -42t11.5 -42q15 -51 15 -109q0 -18 -1 -36q0 -10 2 -20.5t2 -20.5q-2 -29 -3 -55.5t-5 -55.5q0 -2 -10 -12q-6 -4 -13.5 -6t-11.5 -6q-16 -8 -22 -25q-8 -23 -37 -23q-16 2 -30.5 3t-31.5 1q-10 0 -17 -2t-9 -16q-2 0 -6 4t-4 7t-5 7 q-41 -2 -82 -2q-56 0 -112 4q-70 4 -143 4q-27 0 -54 -1q4 -12 11.5 -14.5t17.5 -2.5h59.5t61.5 -2q35 0 72.5 -1t74.5 -3q4 0 6 -4q-31 -2 -62 -2q-38 0 -76 3t-77 3q-31 0 -63 -2q4 -8 9 -10t11 -6q16 -4 33 -10.5t33 -14.5q16 -4 30.5 -1t28.5 3q23 2 43.5 4t40.5 4h6 q6 -4 34 -3t58.5 3t57.5 5t35 3q10 2 18 3.5t15 7.5q18 8 26 -6q8 -12 8 -21q6 -14 10.5 -16t20.5 0q8 -6 6 -18.5t8 -20.5q20 -18 11 -37q6 -2 10 -4t8 -2q-2 -10 -1 -19.5t13 -15.5q-2 -10 -2 -22.5t-4 -22.5q-8 -16 -22.5 -28.5t-30.5 -22.5t-52 -19.5t-77 -17.5 t-78 -14.5t-55 -10.5q-31 -6 -55 -14q-26 -7 -52 -7h-6q-29 1 -57 5q-29 6 -56.5 10t-56.5 8q-66 12 -108 47q-31 25 -59.5 49.5t-57.5 51.5q-18 16 -37 45q-31 37 -51.5 79t-24.5 93q-4 29 -8 60.5t-8 64.5zM383 643q12 -2 67.5 -2h119t118 2t60.5 4q-8 31 -20.5 57.5 t-37.5 51.5q-18 20 -40 30q-14 7 -31 7q-10 0 -21 -2q-35 -4 -65.5 -10.5t-59.5 -24.5t-51.5 -42t-34.5 -55q-2 -4 -2 -8t-2 -8z" />
<glyph unicode="f" horiz-adv-x="940" d="M84 989q18 10 24.5 22.5t8.5 28.5q4 29 16 38t43 9h53q20 0 25.5 4.5t7.5 20.5q2 8 2 31q2 66 16.5 128t41.5 122q35 84 133 108q33 8 65 13q23 5 47 5q8 0 17 -1q16 0 34.5 4t38.5 8q7 1 14 1h7q12 -1 20 -11q4 -6 15 -9q18 -8 18 -22q-2 -18 1 -21.5t18 -7.5 q8 -14 13 -25.5t9 -23.5q6 -8 11 -16.5t12 -16.5q2 -2 2 -6t2 -4q16 -10 20 -25.5t19 -25.5q6 -6 7 -15.5t1 -17.5t-12 -12q-8 -4 -19 2q-16 10 -31.5 11t-31.5 -3t-34 -6t-34 -6q-23 -4 -40 -13.5t-21 -25.5q-10 -33 -19 -65q-7 -23 -7 -49q0 -11 1 -23l4 -9q14 -2 29.5 -4 t32.5 -4q23 -2 42 -2t42 -2q16 0 28 -7t19 -26q2 -6 8 -12l10 -10q-20 -18 -21 -24.5t15 -24.5q-4 -16 -4 -29.5t-2 -26.5v-35.5t-8 -33.5q-4 -6 -2 -11.5t2 -9.5q0 -6 -1 -13t-6 -11q-10 -27 -16 -31t-35 0q-31 2 -59.5 3t-59.5 3q-18 0 -26 -2q-8 0 -13.5 -5t-1.5 -11 q6 -31 1 -60.5t-7 -58.5q-2 -57 -7 -113q-3 -30 -3 -60q0 -24 2 -48q4 -80 9 -155t10 -148q2 -31 0 -60.5t-5 -58.5q-6 -31 -34 -41q-61 -16 -122 -19q-12 -1 -23 -1l-99 12q-31 10 -43 22.5t-12 40.5q0 33 2 67q1 11 1 22q0 23 -3 44q0 27 -2 54.5t-7 54.5q-2 23 -3 44 t-1 46q-2 66 -7 127q-2 23 -2 47q0 39 5 78q4 41 6 79t7 77q2 20 -3.5 25t-27.5 5q-25 0 -37 2t-20.5 7.5t-11.5 16.5t-9 32q-2 4 -2 7t-2 7q-14 23 -16.5 48.5t-2.5 47.5q2 12 -1 23.5t-21 19.5z" />
<glyph unicode="g" horiz-adv-x="1196" d="M84 519v17q0 42 8 87q8 39 20.5 75.5t39.5 69.5q8 12 8 16q0 16 10 28.5t20 23.5q72 72 162 104q10 4 18.5 8t18.5 8t22.5 6.5t22.5 6.5q53 12 105.5 12t105.5 -10q23 -4 41 -10.5t41 -12.5q4 6 6 12.5t6 10.5q20 35 54 35q10 0 20 2t21 4q27 7 52 7q19 0 37 -4 q42 -9 85 -26q2 -2 4 -2t4 -2q12 -23 27.5 -42t19.5 -46q4 -23 6 -41t6 -39q4 -10 4 -17v-18q2 -39 2 -75.5v-75.5q2 -35 3 -69t1 -68q0 -12 -1 -23.5t-1 -24.5q0 -10 -1 -22t3 -23q6 -41 11 -84q3 -30 3 -60q0 -13 -1 -26q0 -23 -3 -43t-3 -43q2 -27 3 -52t5 -50 q5 -33 5 -65v-10q-1 -36 -13 -70q-8 -25 -16.5 -49.5t-18.5 -51.5q-18 -49 -54 -87t-79 -66q-55 -41 -114.5 -75t-123.5 -63q-29 -14 -59.5 -20t-59.5 -12q-20 -4 -39.5 -6.5t-38.5 -6.5q-28 -5 -55 -5q-28 0 -55 6q-53 10 -107 22q-4 2 -7 3t-7 5q-12 16 -29.5 22.5 t-33.5 12.5q-27 12 -51.5 28.5t-43.5 38.5q2 10 3 18.5t-1 14.5q-14 33 -7 61.5t22 57.5q4 8 5 14.5t5 12.5l8 12t8 10q23 14 23 43q10 12 21.5 15.5t22.5 2.5t22.5 -3.5t23.5 -2.5q4 2 8 -1t8 -7q35 -29 76 -44t86 -19q10 0 19.5 1t17.5 -9q0 -2 7 -1t11 3q37 14 76 28.5 t76 32.5q68 29 88 98q8 27 12 52.5t2 54.5q-2 16 -1 31.5t-1 31.5q0 14 -1 28.5t-3 29.5q-4 0 -7 1t-7 -1q-29 -10 -56.5 -16.5t-54.5 -24.5q-53 -35 -108 -39q-10 -1 -20 -1q-46 0 -95 15q-41 14 -88 35q-33 16 -60.5 38.5t-47.5 51.5q-8 10 -15.5 19.5t-15.5 17.5 q-53 49 -60 127q-2 10 -3 17.5t-3 17.5q-10 51 -12 101zM404 519q14 -42 47 -77q6 -6 20 -6h31q4 -2 10 -3t10 -5q14 -23 43 -20q2 2 8 -2q10 -8 22.5 -16.5t22.5 -16.5q4 8 9.5 15t11.5 13q16 12 25.5 27.5t17.5 34.5q9 20 9 44q0 16 -4 35q-11 46 -40 68q-37 31 -80 33 q-13 2 -26 2q-18 0 -35 -4q-27 -6 -55 -16q-14 -2 -25 -17q-25 -34 -25 -65q0 -12 3 -24z" />
<glyph unicode="h" horiz-adv-x="1251" d="M104 123q4 70 6.5 138.5t6.5 135.5q2 72 5 143.5t5 143.5q1 41 1 82v42q-1 62 -1 124l-4 172t-2 172q0 57 3 112.5t5 112.5q0 2 4 15q14 -4 24.5 -15.5t24.5 -3.5q12 6 24.5 13.5t24.5 15.5q8 -4 15.5 -10.5t15.5 -10.5t16.5 -3t18.5 11q12 -8 23.5 -15t23.5 -13 q12 -8 18 -4q14 6 22.5 1t18.5 -12q12 -10 24.5 -18t25.5 -18q4 -4 9 -11.5t5 -13.5q14 -72 25 -149q4 -16 3 -33t-1 -33q-2 -51 -2 -101.5t-3 -101.5q0 -2 5 -18q16 4 30.5 6t28.5 6q47 14 96 14t96 -4q23 -2 43.5 -10t42.5 -12q12 -4 24.5 -7t25.5 7q4 4 13 2t15 -6 q16 -10 34 -20.5t34 -22.5q35 -29 67.5 -57.5t67.5 -57.5q61 -47 78 -117q8 -33 13 -65.5t5 -67.5q-1 -18 -1 -36q0 -27 2 -53q3 -44 3 -89q0 -39 -3 -77t-5 -79q-2 -47 -4 -92t-4 -92q0 -33 -29 -35q-23 -4 -47 -9q-13 -3 -26 -3q-10 0 -21 2q-29 4 -57.5 9t-57.5 -1 q-4 0 -10 5t-14 9q-20 -16 -40 -16t-40 10q-35 17 -35 52q0 2 4 80q2 38 6 77q2 23 1 46.5t-7 45.5q-8 27 -9 55.5t-3 57.5q0 47 -16 80q-4 8 -4 17.5v19.5q0 29 -7.5 39t-31.5 20q-10 4 -19.5 8t-19.5 9q-35 12 -70 14h-8l-62 -14q-31 -14 -65 -27q-16 -4 -21.5 -14.5 t-7.5 -26.5q-2 -35 -2 -72t-6 -71q-10 -80 -11 -160t-11 -160q-6 -51 -52 -67q-35 -11 -67 -15q-6 -1 -13 0q-26 0 -53 15q-8 4 -14 4q-7 -1 -13 -1q-27 0 -49 14q-26 17 -55 32q-29 14 -29 51z" />
<glyph unicode="i" horiz-adv-x="565" d="M104 39q7 72 7 146q-1 14 -1 27q-2 87 -4 173q-1 21 -1 43q1 38 3 76q4 60 3 121q1 25 1 50v24.5v24.5q0 25 1 50v170q-2 6 0 13.5t4 13.5q6 31 18 76q16 -4 33.5 -5.5t38.5 -5.5q6 0 14 4q4 0 7 2t8 2q29 -10 58.5 -10t55.5 -14q10 -6 24.5 -6t26.5 -4q29 -6 49 -35 q18 -26 17 -54v-6q0 -23 -1 -45t-1 -45q-2 -78 -3 -154.5t-1 -154.5q-1 -39 -1 -78v-40q1 -58 3 -117q-2 -16 -3 -29.5t-7 -30.5q-4 -10 -4 -21.5t-3 -21.5q-2 -23 -1 -44t-3 -42q-4 -33 -17 -47t-36 -18t-42 -11.5t-40 -11.5q-18 -4 -38.5 -3t-43.5 -3q-16 -2 -32 -2 q-36 0 -64 10q-17 6 -23 12q-4 3 -4 10q0 5 2 11zM110 1336v28q0 28 1 55q-1 8 -1 16q0 7 1 15q2 16 12 33q4 8 5 20.5t3 24.5q29 -2 57.5 -2t57.5 -2q4 0 10 -2t10 2q11 7 20 7q4 0 6 -1q10 -4 19 -10q16 -8 33.5 -11.5t36.5 -5.5q29 -2 38 -8t13 -33q2 -4 1 -5t-1 -5 q8 4 14 6q2 -4 4.5 -10t4.5 -12q4 -16 2 -25q-2 -20 -2 -39q0 -30 4 -60q2 -19 2 -38q0 -32 -6 -66q-37 -6 -75 -12t-77 -10q-27 -2 -57 10q-16 4 -31 4t-29 -16q-14 8 -26.5 15t-26.5 13q-23 10 -22 39q0 43 -1 85zM436 1397q2 -12 1 -23.5t1 -23.5h2q-2 12 -2 23.5v23.5 h-2z" />
<glyph unicode="j" horiz-adv-x="937" d="M80 -420q-2 20 -2 38q0 58 22 110q4 4 4 10t5 10q7 29 35 29q10 0 24 -4q55 -20 111 -23q37 0 66.5 12.5t55.5 32.5q8 6 14.5 13.5t12.5 13.5q10 10 25 16q29 16 18 39q-8 12 -9 25.5t1 25.5q4 20 4 39t2 39q6 45 8 89t2 89v27.5t8 26.5q4 6 0 14q-6 23 -7 44t1 44 q4 25 1 50.5t-5 49.5v88q0 6 1 13.5t1 13.5q-3 18 -3 63v24q1 65 4 138.5t6 138t8 87.5q0 2 10 12q4 -10 6 -16.5t6 -12.5q6 6 6 4q11 30 37 30q13 0 29 -7q4 -2 10 -4t12 -2q16 4 29.5 -1t26.5 -10q10 -4 30 -8q12 -2 22.5 -6t20.5 -6q20 -6 33 -18q6 -6 11 -56.5 t10.5 -109t10.5 -108.5t11 -56v-6q-12 -41 -14 -83t-2 -83q0 -12 -3 -24.5t1 -24.5q0 -27 1 -50.5t3 -48.5v-49q0 -23 2 -42t2 -42v-55.5t2 -54.5q0 -14 2 -26.5t2 -27.5v-28.5t-2 -28.5q-4 -41 -11 -83t-30 -81q-23 -43 -45 -76q-6 -8 -12 -14t-13 -14q-47 -72 -123 -127 q-4 -2 -6 -4t-8 -4q-33 -14 -64.5 -26.5t-64.5 -25.5q-29 -10 -58.5 -12t-58.5 -2h-18q-32 0 -61 5q-39 7 -76 20q-16 6 -30.5 12t-27.5 16q-23 16 -22 39zM479 1202q2 6 2 32v54.5v54t2 31.5v6q2 18 7 34t34 26q7 1 13 1q17 0 35 -4q24 -5 51 3q8 0 10 -2q16 -4 29.5 -7.5 t29.5 1.5q4 0 8.5 -2.5t8.5 -4.5q4 4 8 11q10 -14 24.5 -18.5t30.5 -8.5q23 -6 30 -15q3 -4 3 -9q0 -8 -8 -19q-6 -10 -8.5 -39t-3.5 -62.5t-2 -63.5t-3 -40q-6 -18 -26 -26q-26 -8 -52 -8q-6 0 -12 1q-31 2 -63 13q-4 2 -12.5 3t-16.5 3q-25 6 -50.5 13t-53.5 14 q-16 5 -16 20q0 4 1 8zM555 1120q-1 2 -1 4q0 7 5 19l7 -17.5l7 -17.5q-16 6 -18 12z" />
<glyph unicode="k" horiz-adv-x="1130" d="M109 856q-1 8 -1 16q0 10 1 18q2 18 2 34q4 59 6 119.5t4 119.5q0 49 -1 100.5t-1 100.5v121q1 25 19 35q9 5 19 5t21 -5q10 -4 19.5 -7.5t21.5 3.5q4 2 12 2q29 -4 57.5 -9.5t57.5 -9.5q6 -2 10 -6t9 -8q9 2 17 2q39 0 54 -41q4 -8 7 -15.5t16 -9.5q6 -6 6 -16 q0 -18 -1 -37.5t-3 -42.5q-10 10 -9 20.5t-1 20.5v18.5t-2 18.5q-5 -33 -7 -67q-1 -19 -1 -37q0 -15 1 -31q2 -36 2 -71t-2 -69q0 -35 -1 -68.5t-1 -68.5t1 -69.5t1 -75.5q10 6 19.5 10t17.5 8q47 35 96.5 69t98.5 66q31 20 61.5 40t63.5 42q18 12 35.5 25.5t33.5 28.5 q16 12 33 22t39 -2q2 -27 9 -38t30 -15q4 -14 9 -26.5t20 -22.5q4 -4 6 -12.5t6 -14.5q16 -18 23.5 -40.5t19.5 -43.5q18 -31 -4 -57q-16 -25 -33 -37q-49 -41 -102.5 -73t-106.5 -64q-6 -4 -11 -9.5t-13 -9.5q20 -4 31.5 6.5t25.5 18.5q25 14 53 33l55 36q14 10 26.5 18.5 t27.5 18.5q12 10 24.5 19.5t24.5 19.5q-2 -14 -9.5 -21t-17.5 -16q-41 -33 -84 -61.5t-88 -50.5q-23 -10 -43 -29q-12 -10 -14 -16t6 -17q29 -53 60.5 -105t60.5 -106q23 -45 52.5 -85t57.5 -83q23 -35 39 -65q6 -11 6 -24q0 -7 -2 -15q-6 -21 -22 -29q-12 -8 -16.5 -17 t-8.5 -20q-10 -2 -20 -6t-17 -18q-2 -4 -9 -8t-11 -9q-10 -8 -18.5 -14t-18.5 -12q-4 -4 -9 -5t-11 -5q-8 -4 -11 -7q-12 -8 -16 -10q-16 -4 -23 -8q-35 -14 -57 14q-10 12 -18 25.5t-19 26.5q-6 8 -12 14t-12 14q-4 6 -13 23l-4 -4q4 -4 8.5 -9.5t8.5 -9.5q10 -16 17 -31.5 t18 -31.5q-4 -4 -5 -4q-82 102 -146.5 213.5t-123.5 222.5q-33 -6 -42 -16.5t-13 -38.5q-5 -44 -5 -88v-14q1 -52 1 -105v-29.5t-1 -41t-1 -41v-30.5q-4 -33 -33 -39q-50 -10 -98 -21q-36 -8 -71 -8q-13 0 -26 1q-20 2 -38.5 4t-34.5 6q-20 6 -27.5 15.5t-7.5 31.5 q0 23 -1 53.5t-1 63.5v63.5v53.5q2 35 3 68.5t3 68.5v53.5t-2 52.5q-4 82 -6 164t-6 166zM465 465q2 -2 2 -3t2 -3q8 4 15.5 10t15.5 10l-4 8q-8 -8 -15.5 -13t-15.5 -9zM618 311l7 -12h4q-4 8 -8 14zM674 211q4 -4 5 -7t5 -7l2 2l-4 8l-4 8zM707 162q4 -4 8 -12l4 2 q-2 4 -4 6t-4 6q0 -2 -4 -2z" />
<glyph unicode="l" horiz-adv-x="583" d="M96 739q2 147 19 295v41q-4 35 -5 67t-6 64q0 58 -2 114v28q0 42 4 84q2 18 6.5 36.5t8.5 36.5t22 17q23 -2 47.5 -1t47.5 9q3 1 6 1l6 -1q35 -8 68.5 -14.5t66.5 -14.5q33 -10 33 -37q0 -4 2 -6q17 -51 17 -103v-15q-1 -26 -1 -51q0 -34 2 -68q2 -20 2 -40t2 -42 q3 -26 3 -51q0 -13 -1 -25q-2 -37 -6 -76q-2 -37 -6 -73q-2 -18 -2 -37t2 -39q4 -8 2 -15.5t-2 -15.5q-2 -23 -2 -47.5v-46.5v-187q0 -16 1 -34.5t1 -34.5q-2 -23 -2 -44.5t-2 -43.5q-2 -35 31 -43q4 -2 9 -2t9 -5q16 -10 20.5 -13t20.5 -1q2 -10 2 -18t2 -17q0 -8 -6 -14 q-12 -10 -7 -23.5t1 -23.5q0 -2 6 -8q-14 -12 -15 -25.5t3 -34.5q4 -6 -4 -14q-18 -29 -19 -55q0 -16 -16 -29q-12 -10 -24.5 -18.5t-26.5 -14.5q-10 -4 -22 -4h-7q-96 27 -182 94q-90 68 -103 181v10q8 31 8 62q0 15 -2 30q-6 45 -6 92q-1 25 -1 50v25.5v24.5q0 25 -1 50 q2 29 1 57.5t-3 56.5z" />
<glyph unicode="m" horiz-adv-x="1505" d="M110 528q-2 32 -2 65q0 37 3 75q4 47 8 93t8 93v39q0 18 4 35.5t10 36.5q8 27 11.5 53t7.5 53q4 25 20.5 37t38.5 8q29 -4 49 2q17 3 34 3q10 0 18 -1q26 -2 51 -12q6 -2 14 -3t14 -3q18 -6 32.5 -16.5t19.5 -32.5q6 -23 16 -28t35 -5q35 2 68.5 3t66.5 1q14 0 28.5 -2 t26.5 -6q10 -4 19.5 -9.5t21.5 -7.5q8 -2 18.5 -1t22.5 3q-6 -8 -12 -14q2 -2 6 -2q53 18 108.5 24.5t110.5 6.5q23 0 44.5 -5t43.5 -12q31 -6 55 -18q27 -10 56 -27q23 -18 46 -37.5t48 -37.5q31 -31 50.5 -69t33.5 -79q18 -59 25.5 -120.5t9.5 -123.5q0 -35 2 -67.5 t0 -63.5q-1 -18 -1 -36q0 -20 1 -38q2 -36 2 -71q-2 -27 -6 -51.5t-8 -48.5q-4 -18 -8.5 -37t-14.5 -35q-9 1 -18 1q-26 0 -48 -8q-30 -12 -65 -24q-2 2 -4 2q-6 0 -10 2h-13.5t-15.5 -4q-8 -6 -16.5 -11t-20.5 -1q-2 2 -6 -1t-8 -5q-4 4 -10.5 10t-16.5 0q0 -2 -2 -1t-4 5 q-10 12 -23.5 23.5t-13.5 31.5v20.5t2 20.5q0 14 2 28.5t0 27.5q-3 24 -3 49t3 51q4 18 1 38.5t-5 43.5h-8q-2 -86 -2 -170t-2 -172q-8 8 -8 12q-2 6 -2 12.5t-2 12.5q0 31 -2.5 61.5t-2.5 59.5q0 18 2.5 36.5t2.5 36.5q2 25 2 52.5t6 52.5q10 38 10 74q0 9 -1 18 q-1 19 -1 39q0 26 2 53q0 18 1 36.5t5 37.5q0 16 -18 31q-23 20 -50.5 21t-56.5 3q2 -23 4 -42t4 -42q2 -16 2 -30.5v-30.5q2 -35 2 -68v-67q0 -94 -18 -183q-8 -20 -10 -39.5t-12 -36.5q-4 -4 -3.5 -11t0.5 -15v-39q-4 -20 -12 -26.5t-29 -10.5q-10 0 -23 -4t-28 -4 q-12 -2 -25.5 -1t-25.5 1q-6 0 -11 4t-13 0q-29 -4 -59 5t-58 20q-14 6 -17.5 9t-3.5 17q-1 18 -1 36q0 26 2 51q3 42 10 85q4 23 3 43.5t-1 42.5q0 27 -1 54.5t-1 56.5q0 31 -2.5 60.5t-2.5 60.5q0 6 2.5 13t2.5 11q8 23 7 43.5t-18 38.5q-6 8 -11 15.5t-9 15.5 q-8 25 -35 18q-18 0 -39 -10q-6 -2 -10 -5t-10 -5q-29 -6 -36 -23.5t-5 -44.5v-170q0 -10 -3 -18t-3 -17q-2 -10 -3.5 -20t-1.5 -21v-137q-2 -31 -3 -81t-1 -81q-4 -47 -53 -63q-23 -8 -44 -9t-44 -1q-14 0 -28.5 1t-30.5 1q-20 -4 -40 1t-40 9q-16 4 -21 21q-4 10 -8 22 t-4 25q0 47 2 111.5t2 109.5q0 51 -6 98q-11 71 -15 139z" />
<glyph unicode="n" horiz-adv-x="1144" d="M109 881q-1 9 -1 18q0 36 13 64q6 10 8 23t6 28l4 12t13 4q8 0 10 8q8 4 13 4t11 -4t12.5 -7t12.5 -3t11 5t11 9q29 -6 52.5 -11t52.5 -11q6 -12 17.5 -18.5t27.5 4.5q10 -12 20.5 -25.5t34.5 -9.5q-8 -6 -14 -13l4 -4q29 10 59.5 18.5t61.5 12.5q43 8 84 7 q137 0 260 -83q8 -4 13 -10t1 -18q0 -4 5.5 -10.5t9.5 -10.5q43 -41 68.5 -93t41.5 -110q14 -53 19.5 -107t5.5 -110l-6 -166v-180q0 -41 -33 -67v-31q-12 25 -23.5 30t-36.5 -1q-16 -4 -31.5 -7.5t-31.5 -7.5q-23 -6 -39 13q-4 -4 -8 -8.5t-8 -8.5q-12 0 -25.5 1t-26.5 1 q-23 2 -37 13.5t-14 33.5q-4 31 -4 61.5t12 61.5q4 12 5.5 25.5t1.5 25.5q2 35 2 71t-17 73q-2 -2 -18 -15q-2 8 -3 13.5t-1 11.5q1 13 1 26q0 26 -3 51q-4 38 -11 75q-6 37 -30 65q-20 16 -42 18.5t-44 -6.5q-29 -10 -59.5 -23.5t-61.5 -25.5q-23 -10 -23 -35v-41 q0 -70 2 -138q1 -34 1 -68t-1 -68q-2 -37 -7 -75t-11 -75q-4 -27 -29 -34q-27 -8 -52.5 -13.5t-53.5 -13.5q-4 0 -9.5 -1t-9.5 1q-31 8 -61.5 15.5t-60.5 17.5q-18 6 -25.5 20.5t-7.5 32.5q6 154 6 303q2 56 2 110.5t-2 108.5q0 20 -2 40t-4 42q-2 31 -3 61.5t-1 63.5 q-2 16 -3 31.5t-1 32.5z" />
<glyph unicode="o" horiz-adv-x="1255" d="M102 492v22q0 41 6 81q8 50 17 103q16 66 49 125.5t88 106.5q2 0 6 4q49 49 108.5 74.5t125.5 38.5q4 2 9 2t9 2q34 13 71 13q28 0 58 -7q37 -6 73 -12.5t73 -14.5q51 -12 97 -33.5t81 -58.5q33 -29 55.5 -62.5t40.5 -68.5q27 -41 44 -86t30 -94q10 -29 11 -62v-6 q0 -30 -9 -59q-8 -31 -14.5 -59.5t-14.5 -57.5q-25 -80 -72 -147q-20 -29 -40.5 -55.5t-42.5 -55.5q-25 -37 -60 -61.5t-74 -47.5q-35 -23 -72.5 -31t-78.5 -12q2 0 -6 4q6 8 18 19q-8 4 -11 7t-7 5q4 20 -2 24.5t-27 -3.5v-23q-16 0 -32.5 -2t-30.5 -2q-16 1 -33 1l-33 -1 h-7l-59 14q-23 10 -45 21.5t-45 25.5q-35 23 -67.5 47.5t-59.5 57.5q-16 20 -32.5 39.5t-32.5 42.5q-41 53 -51.5 114.5t-10.5 127.5zM479 455q0 -12 6.5 -19.5t16.5 -15.5q16 -10 33.5 -21.5t37.5 -21.5q10 -8 25.5 -11.5t28.5 -7.5q5 -3 11 -3q8 0 19 5q25 14 49.5 27.5 t49.5 30.5q16 6 20 22q6 14 11.5 30.5t9.5 33.5q1 4 1 9t-1 11q-6 35 -16.5 66t-32.5 59q-16 25 -42 40.5t-67 15.5h-8q-19 1 -41 -7q-26 -10 -49 -26q-39 -18 -47 -62q-4 -25 -7.5 -50t-7.5 -50q-2 -14 -2 -28t2 -27z" />
<glyph unicode="p" horiz-adv-x="1181" d="M104 -465q0 6 2.5 13.5l4.5 13.5q10 39 16 76q5 29 5 58q0 9 -1 19q0 66 3 128.5t7 127.5q2 15 2 31t-2 33q-6 88 -9 176t-7 176q-2 35 -2 69.5t2 67.5q4 68 6 138q1 14 1 28q0 22 -2 44q-3 36 -5 73q-2 27 -3 53.5t-3 52.5q0 8 8 21q18 29 45 43t59 18q33 5 67 5 q54 0 112 -13q23 -8 36 4q16 14 35 17.5t37 3.5q6 1 12.5 1t13.5 -1q13 -2 27 -2h52q16 0 31.5 1t31.5 -3q45 -10 92 -25q33 -10 58 -29q51 -37 97 -76.5t87 -86.5q35 -41 63.5 -83t44.5 -94q6 -25 12.5 -49t10.5 -49q1 -6 1 -12.5t-1 -13.5q-2 -13 -2 -27q-6 -109 -51 -201 q-20 -43 -51 -75.5t-68 -61.5q-55 -45 -119.5 -71.5t-130.5 -47.5q-31 -8 -60.5 -12t-60.5 -4q-20 0 -40.5 -2t-43.5 -2q-23 -4 -22 -21q-4 -31 -6 -61.5t-4 -59.5q-2 -20 -2 -38.5t2 -36.5q2 -17 2 -34q0 -27 -4 -54q-7 -43 -11 -87q-2 -12 -5 -24t-7 -23q-4 -8 -16 -20 q-6 -6 -13.5 -11.5t-13.5 -9.5q-12 -2 -23.5 -2t-21.5 -2q-35 -8 -71 -13q-20 -3 -40 -3l-32 2q-27 4 -53.5 7t-53.5 7q-12 2 -18.5 11.5t-6.5 21.5zM487 381v-9q0 -30 11 -40q14 -13 51 -8q27 4 52.5 7t51.5 13q43 14 86 37q12 6 21 22q8 10 13 19.5t11 19.5 q16 33 15.5 50.5t-23.5 46.5q-16 20 -32.5 39.5t-32.5 39.5q-12 16 -30.5 24.5t-39.5 12.5q-23 2 -43 1t-43 -1v4q-10 -2 -20.5 -3t-20.5 -3q-16 -4 -16 -18l-6 -86q-2 -41 -2.5 -84t-2.5 -84zM504 10q14 -10 52 -12h13q36 0 90 8q92 16 176 50.5t156 97.5q-4 4 -4 6 q-12 -4 -16 -8q-25 -14 -48.5 -30t-48.5 -28q-41 -23 -83.5 -41t-90.5 -24q-33 -4 -64.5 -7.5t-66.5 -3.5h-49q-4 0 -16 -8z" />
<glyph unicode="q" horiz-adv-x="1054" d="M29 480q2 32 4 67q2 10 3 17t1 18q0 45 15.5 82.5t41.5 72.5q33 41 80 76q23 16 42.5 33.5t41.5 32.5q49 33 102 48q31 9 65 9q22 0 46 -4q31 -4 60.5 -8t60.5 -9q18 -4 20 15q0 8 1 14.5t3 16.5q4 -4 7.5 -6.5t7.5 -6.5l4 4q2 18 24 25q53 20 107 27q33 4 66 4 q21 0 42 -2q12 -2 24.5 -3.5t25.5 -5.5q14 -4 19 -10t5 -22v-50q3 -38 3 -76v-20q-1 -49 -3 -96q-2 -37 -5 -75t-7 -75q-2 -23 -2 -42v-42q-4 -53 -6 -105t-8 -105q-3 -29 -3 -57q0 -15 1 -29q2 -43 2 -87q1 -14 1 -28q0 -25 -3 -48q-3 -38 -5 -79q-2 -23 -2 -47.5v-48.5 q0 -16 2 -29.5t2 -30.5q2 -45 3.5 -90t3.5 -92q2 -29 -5.5 -52.5t-29.5 -41.5q-4 -2 -4 -11q-10 4 -20.5 6.5t-20.5 6.5q-4 -8 -7.5 -15.5t-7.5 -15.5q-6 4 -16 14q-8 -4 -15.5 -5t-15.5 -5t-12 -4q-23 10 -42 5t-42 -9q-14 -2 -27.5 -2t-27.5 8q-4 4 -11.5 5t-13.5 3 q-18 4 -23.5 10.5t-5.5 24.5v55q-2 70 -4 138.5t-2 140.5q0 41 3 81t6 81q0 16 -1.5 30.5t-3.5 32.5q-18 -4 -34.5 -7t-32.5 -7q-31 -6 -67 -6t-72.5 6t-70.5 18.5t-60 28.5q-39 25 -69 57.5t-58 69.5q-25 37 -42.5 77t-29.5 83q-8 28 -8 55v11zM322 549q-2 -6 -2 -12 q0 -9 4 -17q6 -12 14 -24q2 -4 6 -5.5t8 -3.5q20 0 29 -16q12 -23 37 -18q18 0 36.5 1t37.5 3q10 0 18 1t18 3q-8 -16 -18 -18.5t-21 -4.5q-12 -2 -25 0t-28 -2q-23 -4 -39 2t-32 19q-4 4 -9.5 8t-13.5 10q4 -12 6 -20.5t6 -14.5q20 -37 62 -37q70 2 141 29q23 8 28 16.5 t7 30.5q0 23 1 46.5t1 45.5q2 14 -10 23q-12 6 -23.5 14t-23.5 13q-48 18 -96 18q-15 0 -29 -2q-20 -4 -23 -14q23 -2 43.5 -2t40.5 -3q23 0 42.5 -5t35.5 -25h-10q-35 16 -72 19q-16 1 -32 1l-42 -2q-29 -4 -37 -26q-4 -12 -12 -21.5t-24 -9.5z" />
<glyph unicode="r" horiz-adv-x="909" d="M109 891v39.5t2 40.5q2 31 24.5 45t50.5 4q16 -6 22.5 -4t18.5 20q10 -10 22.5 -12t26.5 -4q35 -4 67 -10t60 -23q10 -4 21 0q14 0 22 -2q-12 -8 -14 -14q-4 -4 -4 -10.5v-14.5q10 4 19.5 9.5t21.5 -1.5q4 -2 14 2q60 18 118 18q18 0 35 -2q75 -7 148 -36q14 -6 27.5 -10 t28.5 -11q18 -10 24 -24q10 -16 18.5 -30.5t16.5 -31.5q-4 -12 -14.5 -14t-10.5 -16q0 -10 -2 -18.5t-6 -22.5q-18 -6 -22 -37q-2 -14 -6 -26.5t-9 -24.5q-10 -29 -36 -21q-16 12 -35 -6q-4 -4 -17 -4q-10 2 -19 3t-17 5q-16 10 -31 9t-31 -3q-25 -6 -49.5 -8t-46.5 -6 q-29 -4 -55.5 -16.5t-51.5 -24.5q-8 -4 -16 -16q2 -2 2 -3.5t2 -3.5q23 10 44.5 18.5t41.5 18.5l4 -8q-10 -4 -17 -8t-18 -8q-25 -10 -39 -18.5t-21 -19.5t-9 -27.5t-2 -43.5q0 -35 1 -67.5t1 -67.5q0 -33 -2 -64.5t-2 -62.5v-77t4 -77q0 -18 -2 -22t-19 -10 q-31 -12 -61.5 -25.5t-65.5 -17.5q-30 -4 -56 -5h-17q-18 0 -35 1q-27 4 -35 15t-8 36q0 16 -1 34.5t1 36.5q0 47 2 94.5t2 94.5q0 29 -1 57.5t-3 57.5q0 123 -2 241.5t-4 239.5z" />
<glyph unicode="s" horiz-adv-x="1067" d="M91 165q0 12 7 21q2 4 4 6.5t4 6.5q29 18 43.5 45.5t36.5 52.5q4 8 9 8q23 4 40 17.5t33 27.5q10 6 27.5 5t28.5 -7q35 -23 68.5 -44t68.5 -44q30 -16 61 -16q22 0 45 8q47 14 101 39q18 8 12 31l-12 30q-4 4 -9.5 7t-9.5 3q-49 4 -97 5.5t-95 3.5q14 -2 24 -9 q-14 -4 -26.5 -3t-24.5 3q-41 6 -78 22.5t-73 39.5q-4 2 -9 12q16 -6 32.5 -14t31.5 -14l2 2q-18 14 -39 25t-39 22q-74 49 -111 133q-16 36 -19 70q-1 15 -1 30q0 20 2 41q4 25 8 46.5t15 43.5q4 6 7 12.5t7 12.5q10 39 33.5 67.5t48.5 55.5q61 63 145 82q33 6 65 9 q14 1 26 1q18 0 36 -2q16 -4 31.5 -4t32.5 -2q6 0 8 2q16 7 31 7q6 0 12 -1q20 -4 39 -10q68 -18 120 -56.5t99 -89.5q16 -23 23.5 -50.5t-9.5 -57.5q-23 -43 -53.5 -77t-77.5 -52q-18 -8 -47 -9q-10 0 -19.5 3.5t-21.5 5.5q-16 2 -27.5 9t-25.5 19q-10 14 -20.5 25.5 t-26.5 17.5q-23 14 -49.5 20.5t-53.5 8.5q-14 0 -28.5 -12.5t-24.5 -32.5q10 -6 21.5 -14.5t25.5 -12.5q37 -16 80 -24q10 -4 20.5 -4t20.5 -2q8 0 14.5 -2t14.5 -5q14 0 23.5 -2t19.5 -2q70 0 120 -28.5t87 -83.5q10 -12 17 -24.5t17 -22.5q25 -33 35 -67t10 -73v-18 q-6 -33 -12 -65.5t-16 -65.5q-6 -14 -12.5 -27.5t-14.5 -25.5q-45 -72 -123 -117l-12 -8t-12 -11q-33 -25 -69 -34t-73 -13q-40 -4 -78 -5h-9q-33 0 -68 7q-31 6 -61.5 13.5t-65.5 17.5q-47 14 -87 39t-81 47q-31 16 -62 47q-11 11 -11 28z" />
<glyph unicode="t" horiz-adv-x="837" d="M50 1068q5 48 9 95q0 12 9 29q14 23 38 20q16 0 32 1t32 10q-8 10 -19.5 12t-22.5 2t-23.5 1t-22.5 7q6 2 9 4t7 2q16 0 32.5 -1t33.5 1q23 2 30 8.5t7 26.5q0 43 -1 86t-3 84q0 14 2 29.5t12 34.5q8 -2 15 -4.5t18 -6.5l6 13q19 4 37 4q23 0 45 -6q39 -12 80 -25 q10 6 21 7t22 -17q2 6 2 9t2 7h4q14 -12 27.5 -24.5t31.5 -20.5q4 -2 6 -8l4 -12q2 -12 3.5 -24.5t1.5 -25.5v-104q0 -23 6 -29t28 -8q23 0 44.5 1t43.5 1q10 0 27 -4q8 -4 7 -10t3 -12q2 -12 19 -19q0 -20 -2 -40.5t2 -41.5q4 -16 3 -32.5t-3 -32.5q-2 0 -2 -1t2 -1 q10 -16 5 -28.5t-9 -29.5q-4 -10 -7.5 -23.5t-7.5 -25.5q-11 -33 -47 -33h-8q-47 6 -90 7q-4 0 -8 -4.5t-6 -8.5q-2 -25 -7.5 -48t-1.5 -50q4 -23 0 -45.5t-6 -44.5v-30.5t2 -29.5q4 -29 6 -57.5t7 -56.5q4 -68 30 -123q39 -76 127 -80q12 0 23.5 1t21.5 1q31 4 29 -27 q0 -16 -2 -31.5t-2 -31.5q2 -16 6 -29.5t2 -27.5q-4 -33 4 -56q1 -5 1 -10q0 -10 -3 -20q-4 -12 -5 -24.5t-3 -25.5q-4 -23 -20.5 -40t-38.5 -17q-11 -1 -21 -1h-10q-14 1 -31 3q-12 0 -24.5 2t-24.5 0q-29 -2 -53.5 7.5t-48.5 23.5q-10 8 -21.5 13t-23.5 11q-4 4 -11 5 q-8 8 -20 16q-16 14 -34.5 25.5t-31.5 29.5l-20 21l-6 6q-4 4 -7.5 9t-7.5 9q-12 18 -24.5 36t-24.5 36q-4 12 -8 23.5t-8 23.5q-4 14 -8.5 27.5l-8.5 25.5q-4 20 -10 40t-10 42v-2q-4 55 -9 109.5t-10 109.5q-2 8 -2 16.5v18.5q2 23 3.5 45.5t1.5 44.5q0 31 1 62.5t7 62.5 q2 4 2 13q0 20 -19 20h-61q-23 0 -33 2q-18 2 -23.5 9t-9.5 24q-8 33 -8 67q0 14 1 28z" />
<glyph unicode="u" horiz-adv-x="1136" d="M95 563q1 12 1 23q4 66 7 131q2 39 2 78q0 26 -1 53q-1 13 -1 25q-1 29 3 58q4 42 9 83q4 4 6 8q4 -2 8 -5t8 -3t8 2q2 0 7 2q2 10 11 10t11 8q4 0 6 -1t6 -1q4 4 7.5 8.5t7.5 6.5q2 0 6 -3.5t8 -7.5q2 -2 8 -12q4 4 8.5 9t10.5 14q4 -4 8 -13q6 2 13 4t13 2 q6 -2 11.5 -6t13.5 -8l8 12q10 -10 21.5 -13t21.5 -9q27 -14 37 -37t14 -49q2 -16 2.5 -33.5t4.5 -36.5q8 -84 8 -166v-166q2 -33 7 -63.5t11 -60.5q6 -33 40 -61q27 -22 63 -23q9 0 18 2q66 14 121 55q23 16 32 33.5t7 42.5q0 29 1 57.5t1 56.5q0 20 -1 39t-1 37 q2 59 3 119.5t3 122.5q0 16 -1 31.5t-1 31.5q-4 14 0 31q6 23 27 20q2 0 6 1.5t4 3.5q2 6 5 5t7 1q18 4 37.5 1t38.5 1q14 6 28 0q16 -4 30 -10.5t30 0.5q2 0 10 -5q14 -6 26.5 -11t24.5 -11q16 -10 22.5 -25.5t10.5 -31.5q2 -10 1 -21.5t1 -21.5q0 -29 1 -54.5t1 -52.5 q-2 -37 -4 -72.5t-4 -74.5q0 -4 -1 -9.5t-1 -11.5q-2 -41 -2 -84t-2 -86q0 -20 1 -39.5t1 -40.5q2 -23 1 -42t-1 -40q-2 -29 -4 -54.5t-4 -53.5v-49.5t2 -49.5q2 -23 -19 -30q-35 -19 -73 -25q-22 -3 -44 -4q-17 0 -34 2q-20 2 -40 5t-42 -3q-16 -2 -31 12q-4 6 -5 11.5 t-5 9.5q-4 0 -8 -1t-8 -1q-74 -25 -150 -29q-12 -1 -24 -1l-128 18q-20 6 -39.5 14t-35.5 18q-82 49 -142 125q-59 80 -71 183q-12 84 -19 174q-1 7 -1 14v8z" />
<glyph unicode="v" horiz-adv-x="1292" d="M55 958q10 2 19.5 2.5t19.5 2.5l6 18q20 -4 33 8q4 4 12.5 8t12.5 0q12 -6 22 -3t21 7q25 12 47 7q16 -4 31.5 -5.5t31.5 7.5q14 6 26.5 1t27.5 -10q16 -8 26 -8q20 6 29.5 -3t19.5 -21q25 -35 44.5 -74t35.5 -78q31 -68 62.5 -134.5t64.5 -131.5q2 -4 4 -6t6 -8 q10 20 17.5 38.5t17.5 34.5h4q-4 -27 -15 -50t-15 -50h6q47 123 93 247t93 249q10 14 21.5 23t31.5 11q11 2 20 2q15 0 27 -4q14 -2 27.5 1t26.5 -7h2q29 4 55.5 -4t54.5 -12q29 -4 50 -19q12 -10 29.5 -17t33.5 -13q-2 -4 -1 -6.5t-1 -6.5q-31 -47 -46 -98t-36 -102 q-10 -29 -23.5 -54.5t-23.5 -54.5q-18 -47 -35.5 -92t-34.5 -92q-16 -39 -32.5 -77t-38.5 -77q-25 -41 -48.5 -86t-46.5 -90q-8 -14 -6 -22q2 -16 -6 -26.5t-20 -21.5q-8 -4 -15.5 -9t-15.5 -9q-12 -8 -24.5 -14t-18.5 -23q-6 -8 -13 -8t-14 8q-12 8 -22 8q-29 1 -57 1h-29 q-43 -1 -84 -1q-8 0 -14.5 1t-14.5 3q-4 2 -9 5.5t-9 3.5q-29 2 -41.5 18t-26.5 33q-4 4 -4 5t-4 5q-31 66 -62.5 131.5t-62.5 130.5q-8 14 -4 27q37 -80 80 -156t80 -153q4 2 8 2q-2 8 -8 20q-27 51 -53.5 101.5t-53.5 99.5q-23 47 -35 90q-14 49 -35.5 94t-48.5 88 q-23 35 -39 72t-30 74q-16 47 -36 90t-46 84q-16 25 -18.5 34t-2.5 41z" />
<glyph unicode="w" horiz-adv-x="2000" d="M80 979q0 20 18 27q6 2 11.5 5t9.5 7q10 2 22 6q4 0 7.5 -1t7.5 1q20 16 44.5 11t47.5 5q3 1 6 1h3q5 -1 9 -1q18 -4 38 -7t38 3h14q29 -20 56.5 -36.5t40.5 -51.5q10 -23 24.5 -42t28.5 -42q23 -33 38 -68.5t27 -74.5q10 -25 19.5 -50.5t19.5 -52.5q2 -4 13 -22 q4 8 8 12t8 10q23 47 46.5 94.5t45.5 94.5q2 12 10 22q10 16 17.5 34t-2.5 38q20 8 25 12.5t20 24.5q12 2 21 4t20 6q8 0 20 4q12 0 24.5 -1t22.5 3q12 4 22.5 4t20.5 -4q14 -4 28.5 -6t29.5 6q10 4 14 0q12 -10 28.5 -14t32.5 -10q33 -14 41 -37q16 -41 39 -79t45 -77 q12 -23 22.5 -45t20.5 -45t20.5 -46t22.5 -52q8 10 14.5 17t10.5 16q18 41 36.5 78.5t35.5 78.5q16 35 32.5 70t42.5 63h2q-6 -12 -12 -25t-14 -24q-10 -23 -21.5 -45t-21.5 -45q-16 -37 -31.5 -73.5t-32.5 -73.5l-6 -13q2 -2 6 -2q14 27 27.5 54.5t28.5 56.5 q16 35 30.5 68.5t30.5 66.5q10 25 25.5 46.5t29.5 43.5q16 25 31.5 50.5t32.5 50.5q6 10 13 16t22 -2q10 -4 19 2t20 2q18 -6 36.5 -13t36.5 -7q31 0 56.5 -13.5t54.5 -17.5q12 -4 23.5 -13.5t25.5 -17.5q14 -10 33 -20q12 -8 16 -16q1 -3 1 -7q0 -7 -5 -16q-16 -29 -33 -51 q-20 -33 -41.5 -64t-40.5 -63q-12 -20 -21 -42t-17 -44q-16 -41 -38 -80t-44 -76q-29 -41 -56 -90q-33 -63 -64.5 -127t-60.5 -129q-16 -35 -41.5 -55.5t-54.5 -40.5q-12 -8 -29.5 -10.5t-33.5 -4.5t-33 -2l-49 4q-41 6 -82 19q-10 4 -19.5 4t-19.5 2q-29 2 -42 12t-22 37 q-12 35 -25.5 68.5t-25.5 68.5q-4 10 -7 19.5t-3 19.5q-2 41 -19.5 75t-29.5 73q-14 -10 -9 -21.5t1 -21.5q-4 0 -8.5 1t-12.5 3q-12 -29 -29.5 -54.5t-29.5 -58.5q-4 -10 -8.5 -21.5t-8.5 -21.5q-12 -29 -22 -54.5t-25 -54.5q-8 -16 -18 -34.5t-21 -34.5q-10 -12 -28 -21 q-35 -12 -68 -13h-13q-27 0 -55 3q-20 4 -39.5 6t-39.5 4q-27 4 -46.5 15.5t-39.5 29.5t-31.5 41t-22.5 47q-12 27 -23 53.5t-24 53.5q0 4 -1 9t1 9q12 -27 24.5 -52t24.5 -54q0 2 2 2l3 2q-2 4 -3.5 10t-3.5 10q-16 43 -30.5 85t-28.5 85q-10 33 -21.5 64t-25.5 61 q-23 45 -43.5 91.5t-38.5 93.5q-20 53 -43 104t-55 98q-17 24 -27 50q-8 19 -7 40q0 8 1 17z" />
<glyph unicode="x" horiz-adv-x="1243" d="M57 811q2 2 2 6q6 0 11.5 1t11.5 1q18 0 22 19q4 16 3 24t-11 37q12 4 24.5 0t24.5 -4q-4 6 -6 18q16 4 27 7q2 10 8 24h21q-2 6 -2 19q6 -2 10 -3.5t8 -1.5t10 1.5t6 3.5q6 16 16.5 16t20.5 -2q2 0 3 1t5 1q0 6 -1 11t-3 11q2 0 3 1.5t3 1.5q16 -4 32 -6.5t32 -0.5 q10 0 21.5 -4t21.5 -8q29 -12 53.5 -27.5t46.5 -35.5q31 -33 64 -62t67 -59q12 -10 19.5 -10t19.5 10q37 33 74 64.5t72 64.5q27 23 50 46t50 46q8 12 18 18q8 -10 12.5 -19t12.5 -17q12 -10 19.5 -11.5t17.5 13.5q10 14 24.5 15t26.5 9q2 0 7 -4t5 -8q4 -4 2 -8t-2 -9 q16 -16 27.5 -5.5t26.5 14.5q2 -10 3 -20.5t1 -20.5q4 0 16 -4q-4 -25 0 -31t27 -2q0 -16 -2 -25q12 -4 24 -4q0 -14 -5 -23.5t-11 -19.5q-10 -16 -10 -29q-6 -23 -21 -43q-29 -35 -59.5 -64.5t-65.5 -57.5q-35 -29 -67.5 -60t-65.5 -59q-6 -4 -10 -10.5t-10 -10.5 q63 -86 129.5 -164.5t130.5 -160.5q-4 -10 -7.5 -21.5t-7.5 -21.5q-10 -23 -20 -40.5t-37 -23.5q-2 -2 -4 -2t-4 -4q-14 -16 -31.5 -26.5t-34.5 -22.5q-10 -8 -19 -16.5t-20 -18.5q-13 -9 -25 -9q-10 0 -20 7q-10 10 -14 16q-20 20 -37.5 40t-36.5 38q-8 8 -10 13 q-35 47 -77 88t-79 88q-4 6 -16 14q-14 -10 -26.5 -20.5t-22.5 -20.5q-33 -33 -63.5 -66.5t-63.5 -68.5q-25 -25 -45 -51q-18 -20 -45 -15q-35 10 -62.5 27.5t-48.5 50.5q-20 29 -40.5 57.5t-43.5 57.5q-16 27 0 49q12 16 24.5 30.5t26.5 30.5q37 37 75 74t75 76q8 8 14 15 t2 22q4 0 21 -6q-78 74 -155 142.5t-163 127.5z" />
<glyph unicode="y" horiz-adv-x="1271" d="M55 782q16 -4 27.5 -19t28.5 -24q-4 29 -21.5 43.5t-28.5 30.5q4 16 6.5 31.5t6.5 32.5q10 4 16 7l14 7q-4 12 -6 20q4 2 10.5 3t10.5 4q0 4 1 8t1 8q4 2 8 2q16 -4 26.5 1t20.5 13q14 10 27.5 17.5t29.5 3.5q4 -2 11.5 0t13.5 4q8 1 15 1q29 0 49 -20q41 -41 80.5 -86 t76.5 -92q33 -41 63.5 -80t63.5 -80q10 -14 22.5 -27t24.5 -28q10 -16 33 -35q18 31 35 64q53 88 104.5 177t104.5 179q4 10 10 19.5t10 19.5q8 20 31 12q8 -4 16.5 -10t18.5 0q8 6 13 13.5t13 13.5q0 2 2 4q8 -2 16.5 -3t18.5 -1q2 -6 8 -19q14 14 21 23q14 -10 8 -23.5 t4 -23.5q8 10 13.5 21.5t13.5 21.5q14 -19 14 -45q0 -10 -2 -21q10 10 18.5 19.5t18.5 19.5q2 -10 3 -16t1 -12q8 0 13.5 1t11.5 1q0 -2 1 -4.5t1 -4.5q0 -8 -1 -17t3 -17q7 -13 7 -26q0 -6 -1 -11q-4 -19 -4 -37q0 -4 -3 -10.5t-5 -14.5q-6 -18 -13.5 -37.5t-13.5 -38.5 l-4 -8l-4 -8q-55 -98 -107.5 -191.5t-105.5 -187.5q-35 -63 -68 -125.5t-65 -126.5q-25 -47 -43.5 -95t-34.5 -97q-6 -29 -19 -49q-31 -63 -61.5 -124t-60.5 -124q-14 -29 -26.5 -57.5t-27.5 -57.5l-7 -14t-7 -12q-8 -12 -16.5 -21.5t-26.5 -1.5q-6 4 -13 2t-16 -4 q-16 -2 -29.5 -2t-25.5 10q-4 4 -9 2t-13 0h-14.5t-14.5 4q-29 10 -54.5 22.5t-46.5 37.5q4 37 12.5 73.5t26.5 71.5q6 12 7 33v7q0 29 14 56q35 72 66.5 141.5t58.5 141.5q10 25 20.5 48.5t20.5 45.5q6 16 12 32.5t12 33.5q4 12 1 18t-23 19l-10 -11l-5 4q10 23 -10 43 q-8 10 -17 17.5t-18 17.5q-4 8 -8 16.5t-8 18.5q-4 8 -10 14q-29 37 -56.5 74t-56.5 74q-10 8 -18 12q-10 4 -11.5 9t0.5 16q-29 8 -34 32q-2 14 -9.5 25.5t-23.5 15.5q-26 9 -14 25q-10 6 -18.5 12t-16.5 13q-8 8 -15.5 15t-17.5 15q-6 4 -17.5 15.5t-22.5 24t-20.5 25.5 t-11.5 21z" />
<glyph unicode="z" horiz-adv-x="1130" d="M98 111q-2 12 -2 22q0 16 4 31q6 24 11 53q0 27 6 55q8 33 26 50q41 41 78 80.5t82 74.5q51 41 100.5 81t92.5 87q12 14 25.5 25.5t25.5 23.5q8 9 12 17q-8 2 -14 3t-13 1h-32.5t-32.5 -2q-21 -2 -42 -2q-26 0 -53 3t-53 3l-43 -2q-25 -2 -48 -3t-48 -3q-20 0 -25 6 t-8 26q0 10 -2 15q-16 27 -14 54.5t6 55.5q6 39 23 82q8 16 26 39q-6 6 -12 14q6 2 10 4.5t9 2.5q35 4 66.5 6t64.5 6q30 2 60 2q22 0 45 -1q31 -2 63 -2q21 0 43 1q20 1 40 1t39.5 -1t39.5 -1t40 1q27 0 51.5 2t49.5 2q45 4 89 5h8q40 0 83 -9q-8 -27 24 -31q-4 -8 -8 -15 t-10 -18q14 -2 27 -8q0 -18 1 -37.5t-1 -36.5q-2 -16 4 -26t12 -23q4 -6 8 -13t4 -11q-6 -23 -18 -45q-4 -6 -9 -11.5t-10 -9.5q-6 -8 -14 -24q-8 -12 -12 -17q-10 -4 -16.5 -12t-10.5 -18q-10 -20 -33 -43q-16 -16 -31.5 -32t-35.5 -28q-16 -10 -29.5 -24.5t-28.5 -26.5 q-45 -41 -90 -83t-90 -85q-6 -8 -14 -13t-19 -14q10 -2 23 -2q45 0 88 1h29l57 -1q16 -2 32 -2t32 2q32 4 63 9q16 2 30.5 -1.5t31.5 -7.5q4 0 4 -4q-8 -8 -16.5 -5t-16.5 1q6 -4 13 -5t16 -5q-4 -6 -6.5 -11t-4.5 -10l4 -4q4 -4 9.5 -2t9.5 -6q4 -10 6 -20.5t2 -20.5v-14 q6 -4 8 -8t-4 -13l10 -10q-6 -4 -16 -14q4 -2 6 -4t6 -4q-4 -8 -8 -17.5t-10 -19.5q4 -10 7 -20.5t1 -20.5q-6 -25 -23 -47q-4 -4 -11 -6.5t-13 -4.5q-68 -14 -136 -15h-47q-46 0 -94 1q-66 2 -130 2t-130 2h-66.5t-68.5 2h-58.5t-58.5 4q-18 0 -24 6.5t-8 24.5 q-2 10 -4.5 16.5t-4.5 14.5q-2 10 -4 18t-2 17z" />
<glyph unicode="{" horiz-adv-x="862" d="M33 768.5q0 13.5 6 30.5q10 27 14 61q6 35 27 70q10 20 41 14q12 -2 24.5 -4t24.5 -6q20 -4 35 10q10 6 19 13.5t20 13.5q29 16 24 53q-4 27 -6 99.5t-4 154.5t-5 154.5t-5 99.5q-6 41 -12.5 84t-14.5 86q-4 23 10 35q27 27 37 65q6 16 13.5 20.5t23.5 4.5q23 0 43.5 -2 t42.5 -2q16 -2 33.5 -2h34.5q16 0 29.5 -1t27.5 -1h25q10 2 22 4t23 -2q25 -8 48 -6t46 2h18q27 -2 36 -10.5t14 -37.5q0 -4 -1.5 -8t1.5 -8q10 -29 2.5 -57.5t-15.5 -57.5q-6 -25 -6 -51q0 -16 -12 -28q-6 -8 -11 -15.5t3 -19.5q-14 -4 -25.5 -8.5t-24.5 -4.5 q-20 -2 -39.5 0t-39.5 2q-2 0 -19 -4q4 -6 8 -11t9 -9q-14 -8 -15 -29q0 -8 1 -36.5t2 -69.5t2 -86t1 -85t1 -70t1 -36q2 -29 3 -56.5t-1 -55.5q0 -41 -14 -76t-45 -64q-4 -4 -5 -6t-5 -6q31 18 48 47t28 62q4 0 8 -2q0 -4 1 -8.5t-1 -8.5q-10 -18 -20.5 -35.5t-20.5 -33.5 q-8 -12 -21 -21q-6 -6 -11 -13t1 -18q2 -2 2 -5t-2 -3q-12 -10 -7 -19.5t9 -19.5q16 -35 27.5 -70.5t13.5 -74.5q2 -12 5 -25.5t5 -25.5q0 -12 1 -52.5t1 -92.5v-111.5v-111.5t1 -92t1 -52v-23q12 -4 19 -4q27 -4 50.5 -9t41.5 -28q2 -4 7 -4t9 -2q10 -4 22.5 -6t22.5 -6 q27 -12 27 -45q-2 -23 -2 -47.5t-4 -49.5q-2 -14 -7 -28.5t-9 -28.5q-2 -10 -2 -29q0 -20 -15 -32q-4 -4 -4 -9.5t-4 -15.5q-25 -4 -55 -6q-41 -2 -82 -1t-82 7q-27 4 -53.5 1t-53.5 -5h-28q-23 2 -36 11t-16 36q-2 8 -5 15.5t-7 15.5q-4 10 -7 22.5t-5 22.5q-4 20 -10 25.5 t-29 5.5q-4 0 -9 -1.5t-9 1.5q-10 4 -13 12q-2 4 1 8t7 6q10 4 20.5 4t25.5 4q0 23 3 46.5t-8 50.5q-16 35 -8 73q0 8 1 44t0 84t-2 103.5t-2 103.5t-3 83t-4 43q-4 18 -10 36.5t-15 37.5q-16 35 -43.5 52t-64.5 24q-2 2 -6 2q-35 4 -46.5 14t-17.5 45q-4 14 -8 27.5 t-8 27.5t-4 27.5z" />
<glyph unicode="|" horiz-adv-x="518" d="M98 178q-4 162 0 326q2 111 2 218t9 216q6 82 4 162t2 160q4 37 5 73.5t5 73.5v12q-6 23 12 31q10 4 20.5 7t20.5 -11q2 -4 9.5 -7t11.5 1q16 6 29.5 0t27.5 -10q23 -10 43 -19.5t45 -13.5q20 -6 45 -17l7 -7l7 -7t9.5 -7t11.5 -7q14 -4 10 -25q-4 -23 -6 -43t-4 -43 q-2 -31 -3 -61.5t-1 -59.5q0 -25 2 -49t2 -49q-2 -90 -3 -177t-3 -175v-275v-15.5t-10 -17.5q0 10 -1 17.5t-1 11.5v486q2 86 3 169.5t3 170.5q0 12 1 24t3 25v45h-6q-2 -10 -2 -20.5t-2 -20.5q0 -10 -2.5 -21.5t-2.5 -21.5v-194.5t-2 -194.5q0 -111 -1 -218.5t-3 -218.5 v-138t2 -140q0 -16 1 -31.5t3 -32.5q0 -16 -4 -21t-20 -9q-18 -4 -38 -9.5t-38 -9.5q-29 -6 -35 -35q-2 -8 -3 -16t-5 -16q0 -4 -5 -6.5t-9 -6.5q-2 4 -5 7.5t-3 7.5q2 10 3 21t5 22q8 23 -13 26q-10 4 -21 5t-22 4q-16 4 -30.5 8t-30.5 8q-25 8 -25 35t-2 52.5t-2 51.5z " />
<glyph unicode="}" horiz-adv-x="819" d="M68 -92q4 4 10 7t10 3q10 0 19.5 -2t19.5 -6q4 12 4 14q0 23 7 41.5t16 36.5q8 16 26 14q25 -2 49.5 -3t49.5 -5q4 0 8 -1t8 -1q18 0 20 19q0 8 1 39.5t1 74.5v92.5v92.5t1 74.5t1 39.5q2 23 3.5 44.5t3.5 43.5q4 29 14 54.5t27 50.5q18 31 40.5 59.5t45.5 57.5q4 4 4 6 q-18 18 -37 34.5t-35 34.5t-27.5 41t-21.5 45q-10 35 -16.5 114t-8.5 168t-2 169t4 117q4 29 -1 34t-33 5l-86 -7q-23 0 -30 5.5t-11 27.5q-4 29 -9.5 58.5t-11.5 60.5q-8 4 -15 8t-16 8q-4 4 -4 8.5t-2 8.5q4 2 8 3t9 3q4 0 5 -2t5 -2q23 -8 26 14q4 23 7.5 42.5t19.5 35.5 q6 8 12.5 13t16.5 7q23 2 44 5.5t44 3.5q37 2 72.5 2t72.5 -11q16 -4 33.5 -3t34.5 3q33 0 55 -14q23 -16 38 -34.5t15 -49.5q0 -49 2 -99t2 -100v-41.5t-1 -72.5t-2 -89t-1 -89v-73v-42q2 -25 7.5 -49.5t9.5 -46.5q6 -27 25.5 -40.5t41.5 -19.5q6 -2 12.5 -2t12.5 -2 q16 -2 29.5 -9t19.5 -26q-18 -20 -20 -45q-4 -16 4 -30q4 -10 3 -22.5t-1 -25.5q2 -10 1 -17t-1 -15v-41q10 -6 6 -27q-2 -12 -4 -23.5t-8 -21.5q-4 -2 -4.5 -6t-0.5 -8q2 -23 -14 -23q-29 4 -41 -11t-22 -36q-6 -10 -13.5 -19.5t-11.5 -19.5q-6 -12 -11 -23.5t-7 -23.5 q-2 -10 -3 -66.5t-1 -124t-1.5 -125t-1.5 -67.5q-2 -16 -3 -31.5t-1 -31.5q0 -4 -1 -10.5t-1 -10.5q2 -53 3 -106.5t1 -106.5q0 -23 -9 -32t-32 -13q-35 -6 -68.5 -14t-68.5 -15q-20 -4 -39.5 -4t-40.5 -4q-43 -8 -85 -2t-83 8q-8 0 -24 4q-20 6 -25 29q-4 25 -10 49.5 t-10 48.5q-4 20 -11.5 30.5t-29.5 14.5q-4 0 -6 6.5t-6 10.5z" />
<glyph unicode="~" horiz-adv-x="1411" d="M51 896q2 7 6 13q23 35 46.5 68t46.5 65q4 8 11 14.5t15 12.5q78 47 172 64q66 12 128.5 1.5t119.5 -38.5q16 -10 32.5 -17.5t33.5 -17.5q76 -49 114 -141q23 -47 72 -91q12 -10 28.5 -13t34.5 -1q47 8 91.5 27.5t84.5 44.5q10 10 17.5 20.5t15.5 18.5q12 14 22.5 24.5 t28.5 14.5q10 4 16.5 14t16.5 20q2 -10 2 -16v-10h27q0 -4 1 -7t1 -8q-2 -10 1 -20t19 -16q14 -4 16.5 -15.5t4.5 -23.5q4 4 10 4t14 2q-8 -14 -8 -29q0 -4 6.5 -9t10.5 -11q-2 -8 -5.5 -13.5t-5.5 -11.5q0 -12 5 -20q14 0 20 2l6 6q8 -4 15.5 -8t13.5 -9q-25 -45 -43.5 -94 t-50.5 -96q-20 -31 -44 -55.5t-57 -40.5q-55 -29 -110.5 -48.5t-114.5 -27.5q-35 -6 -69.5 -1t-69.5 11q-10 4 -17.5 9.5t-13.5 9.5q-2 -2 -2 -4.5t-2 -4.5q19 -8 35 -10q2 -4 3 -7t7 -7q-37 8 -66.5 20.5t-48.5 44.5q-6 8 -12 14.5t-12 12.5q-23 20 -44.5 39.5t-41.5 42.5 q-10 10 -14.5 21.5t-10.5 25.5q-8 23 -18.5 44.5t-32.5 35.5q-2 2 -2 3t-2 3q-8 6 -15.5 16.5t-15.5 12.5q-27 2 -65 -8q-27 -6 -39 -33q-25 -35 -50 -74q-4 -4 -8 -7t-12 -5q2 10 8 18q10 16 22.5 32.5t22.5 33.5q33 55 97 55q4 0 7 1t9 1q-6 4 -10 9t-9 3q-18 -4 -37.5 -7 t-37.5 -7q-23 -6 -41 -35q-10 -16 -21.5 -30.5t-23.5 -30.5q-10 -12 -18.5 -13.5t-24.5 7.5q-51 23 -103 61q-23 20 -28 45q-2 23 -21 43q-16 14 -21.5 33.5t-15.5 38.5q-4 2 -2 9zM870 436h62h-62z" />
<glyph unicode="&#xad;" d="M104 740.5q2 9.5 2 19.5q4 16 6.5 33.5t4.5 33.5q6 43 30 80q14 23 50 23q43 -2 87 -3t87 3q100 6 199.5 5t201.5 1q35 0 68.5 -3t68.5 -13q23 -8 30.5 -12t23.5 -27q-2 -4 -4.5 -9.5t-4.5 -9.5t-3 -11t3 -7q14 -10 10.5 -20.5t-1.5 -20.5q0 -14 -4.5 -27.5t-0.5 -30.5 q2 -10 -3 -22t-9 -25q-2 -10 -4 -19t-2 -20q2 -18 -18 -28q-6 -4 -12.5 -8.5t-14.5 -8.5q-12 -8 -21 -8q-10 -2 -22 -2h-23q-86 0 -173 1t-173 -1q-43 0 -86 -3t-86 -5h-63q-16 0 -30.5 1t-31.5 -1q-23 0 -34 8t-17 31t-11 45t-18 45q-4 6 -2 15.5z" />
<glyph unicode="&#x2000;" horiz-adv-x="913" />
<glyph unicode="&#x2001;" horiz-adv-x="1827" />
<glyph unicode="&#x2002;" horiz-adv-x="913" />
<glyph unicode="&#x2003;" horiz-adv-x="1827" />
<glyph unicode="&#x2004;" horiz-adv-x="609" />
<glyph unicode="&#x2005;" horiz-adv-x="456" />
<glyph unicode="&#x2006;" horiz-adv-x="304" />
<glyph unicode="&#x2007;" horiz-adv-x="304" />
<glyph unicode="&#x2008;" horiz-adv-x="228" />
<glyph unicode="&#x2009;" horiz-adv-x="365" />
<glyph unicode="&#x200a;" horiz-adv-x="101" />
<glyph unicode="&#x2010;" d="M104 740.5q2 9.5 2 19.5q4 16 6.5 33.5t4.5 33.5q6 43 30 80q14 23 50 23q43 -2 87 -3t87 3q100 6 199.5 5t201.5 1q35 0 68.5 -3t68.5 -13q23 -8 30.5 -12t23.5 -27q-2 -4 -4.5 -9.5t-4.5 -9.5t-3 -11t3 -7q14 -10 10.5 -20.5t-1.5 -20.5q0 -14 -4.5 -27.5t-0.5 -30.5 q2 -10 -3 -22t-9 -25q-2 -10 -4 -19t-2 -20q2 -18 -18 -28q-6 -4 -12.5 -8.5t-14.5 -8.5q-12 -8 -21 -8q-10 -2 -22 -2h-23q-86 0 -173 1t-173 -1q-43 0 -86 -3t-86 -5h-63q-16 0 -30.5 1t-31.5 -1q-23 0 -34 8t-17 31t-11 45t-18 45q-4 6 -2 15.5z" />
<glyph unicode="&#x2011;" d="M104 740.5q2 9.5 2 19.5q4 16 6.5 33.5t4.5 33.5q6 43 30 80q14 23 50 23q43 -2 87 -3t87 3q100 6 199.5 5t201.5 1q35 0 68.5 -3t68.5 -13q23 -8 30.5 -12t23.5 -27q-2 -4 -4.5 -9.5t-4.5 -9.5t-3 -11t3 -7q14 -10 10.5 -20.5t-1.5 -20.5q0 -14 -4.5 -27.5t-0.5 -30.5 q2 -10 -3 -22t-9 -25q-2 -10 -4 -19t-2 -20q2 -18 -18 -28q-6 -4 -12.5 -8.5t-14.5 -8.5q-12 -8 -21 -8q-10 -2 -22 -2h-23q-86 0 -173 1t-173 -1q-43 0 -86 -3t-86 -5h-63q-16 0 -30.5 1t-31.5 -1q-23 0 -34 8t-17 31t-11 45t-18 45q-4 6 -2 15.5z" />
<glyph unicode="&#x2012;" d="M104 740.5q2 9.5 2 19.5q4 16 6.5 33.5t4.5 33.5q6 43 30 80q14 23 50 23q43 -2 87 -3t87 3q100 6 199.5 5t201.5 1q35 0 68.5 -3t68.5 -13q23 -8 30.5 -12t23.5 -27q-2 -4 -4.5 -9.5t-4.5 -9.5t-3 -11t3 -7q14 -10 10.5 -20.5t-1.5 -20.5q0 -14 -4.5 -27.5t-0.5 -30.5 q2 -10 -3 -22t-9 -25q-2 -10 -4 -19t-2 -20q2 -18 -18 -28q-6 -4 -12.5 -8.5t-14.5 -8.5q-12 -8 -21 -8q-10 -2 -22 -2h-23q-86 0 -173 1t-173 -1q-43 0 -86 -3t-86 -5h-63q-16 0 -30.5 1t-31.5 -1q-23 0 -34 8t-17 31t-11 45t-18 45q-4 6 -2 15.5z" />
<glyph unicode="&#x2013;" horiz-adv-x="1231" d="M103.5 740.5q2.5 9.5 2.5 19.5q5 16 8 33.5t5 33.5q7 43 36 80q17 23 59 23q51 -2 103.5 -3t103.5 3q119 6 237 5t239 1q42 0 82 -3t81 -13q28 -8 36.5 -12t27.5 -27q-2 -4 -5 -9.5t-5 -9.5q-3 -4 -4 -11t4 -7q16 -10 12 -20.5t-2 -20.5q0 -14 -5 -27.5t-1 -30.5 q3 -10 -3 -22t-11 -25q-2 -10 -4.5 -19t-2.5 -20q2 -18 -21 -28q-7 -4 -15 -8.5t-17 -8.5q-15 -8 -25 -8q-12 -2 -26.5 -2h-27.5q-102 0 -205.5 1t-205.5 -1q-51 0 -102 -3t-102 -5h-75q-19 0 -36.5 1t-37.5 -1q-27 0 -40 8t-20 31q-8 23 -13.5 45t-21.5 45q-5 6 -2.5 15.5z " />
<glyph unicode="&#x2014;" horiz-adv-x="2256" d="M104.5 740.5q4.5 9.5 4.5 19.5q10 16 16 33.5t10 33.5q15 43 72 80q33 23 119 23q102 -2 206.5 -3t206.5 3q238 6 474.5 5t478.5 1q83 0 162.5 -3t162.5 -13q55 -8 73 -12t56 -27q-5 -4 -11 -9.5t-11 -9.5q-4 -4 -6.5 -11t6.5 -7q34 -10 25.5 -20.5t-3.5 -20.5 q0 -14 -11 -27.5t-1 -30.5q5 -10 -7 -22t-22 -25q-4 -10 -9 -19t-5 -20q5 -18 -43 -28q-14 -4 -29.5 -8.5t-34.5 -8.5q-28 -8 -50 -8q-23 -2 -52 -2h-55q-204 0 -410.5 1t-411.5 -1q-102 0 -204 -3t-205 -5h-149q-38 0 -72.5 1t-75.5 -1q-54 0 -80 8t-41 31q-14 23 -26 45 t-43 45q-9 6 -4.5 15.5z" />
<glyph unicode="&#x202f;" horiz-adv-x="365" />
<glyph unicode="&#x205f;" horiz-adv-x="456" />
<glyph unicode="&#x25fc;" horiz-adv-x="1044" d="M0 0v1044h1044v-1044h-1044z" />
</font>
</defs>
</svg>
