<?xml version="1.0" encoding="utf-8"?>
<!-- Generator: Adobe Illustrator 16.0.0, SVG Export Plug-In . SVG Version: 6.00 Build 0)  -->
<!DOCTYPE svg PUBLIC "-//W3C//DTD SVG 1.1//EN" "http://www.w3.org/Graphics/SVG/1.1/DTD/svg11.dtd">
<svg version="1.1" id="Layer_1" xmlns="http://www.w3.org/2000/svg" xmlns:xlink="http://www.w3.org/1999/xlink" x="0px" y="0px"
	 width="90px" height="90px" viewBox="0 0 90 90" enable-background="new 0 0 90 90" xml:space="preserve">
<circle fill="#FFFFFF" fill-opacity="0.5" stroke="#D1D3D4" stroke-miterlimit="10" cx="45" cy="45" r="44.375"/>
<path fill="none" stroke="#797A7D" stroke-miterlimit="10" stroke-opacity="0.7" d="M71.375,45
	c0-14.566-11.809-26.375-26.375-26.375c-14.567,0-26.375,11.809-26.375,26.375c0,14.567,11.809,26.375,26.375,26.375
	C59.566,71.375,71.375,59.566,71.375,45z M47.33,60.52L60.518,47.33c1.291-1.285,1.291-3.375,0-4.662
	c-1.287-1.286-3.374-1.287-4.66,0l-7.561,7.56V31.813c0-1.822-1.475-3.298-3.297-3.298c-1.821,0-3.297,1.476-3.297,3.298v18.415
	l-7.56-7.56c-1.289-1.287-3.376-1.287-4.662,0c-0.645,0.645-0.966,1.487-0.966,2.333c0,0.842,0.321,1.686,0.966,2.331L42.668,60.52
	C43.956,61.807,46.045,61.807,47.33,60.52L47.33,60.52z"/>
</svg>
