<svg xmlns="http://www.w3.org/2000/svg" width="1259.219" height="303.646" viewBox="0 0 1259.219 303.646"><path stroke="#000" stroke-width="1.4" stroke-miterlimit="10" d="M1024.062 254.544c2.188-.048 4.045-.909 5.829-2.694 2.806-2.805 3.539-6.612 1.646-8.512-1.896-1.896-5.707-1.155-8.508 1.646-1.789 1.786-2.734 3.979-2.695 5.832 0 0 .219 2.165-.635 4.274.002.004 1.728-.748 4.363-.546zm-4.91 4.911c-.052 2.189-.908 4.045-2.697 5.832-2.801 2.801-6.611 3.537-8.506 1.644-1.896-1.896-1.16-5.704 1.643-8.509 1.789-1.788 3.984-2.732 5.832-2.693 0 0 2.166.222 4.277-.633 0-.002-.75 1.722-.549 4.359z" fill="none"/><g stroke="#000" stroke-width="1.4" stroke-miterlimit="10" fill="none"><line x1="778.511" y1="219.767" x2="786.701" y2="219.767"/><line x1="792.479" y1="219.767" x2="800.669" y2="219.767"/><line x1="458.548" y1="219.767" x2="466.735" y2="219.767"/><line x1="472.516" y1="219.767" x2="480.707" y2="219.767"/></g><g stroke="#000" stroke-width="1.4" stroke-miterlimit="10" fill="none"><line x1="629.61" y1="88.497" x2="629.61" y2="110.395"/><polygon points="629.61,110.395 611.048,99.447 629.61,88.497 648.173,99.447"/></g><polygon stroke="#000" stroke-width="1.4" stroke-miterlimit="10" points="1200.896,128.821 1209.633,114.007 1218.372,128.821 1209.633,143.634" fill="none"/><g stroke="#000" stroke-width="1.4" stroke-miterlimit="10" fill="none"><path d="M295.673 272.525c0 3.866-3.137 7.002-7.006 7.002-3.867 0-7.004-3.136-7.004-7.002 0-3.871 3.137-7.007 7.004-7.007 3.87.001 7.006 3.136 7.006 7.007z"/><line x1="288.667" y1="265.519" x2="288.667" y2="279.527"/><line x1="288.667" y1="256.754" x2="288.667" y2="262.719"/><line x1="288.667" y1="282.33" x2="288.667" y2="288.295"/><line x1="304.438" y1="272.525" x2="298.477" y2="272.525"/><line x1="278.86" y1="272.525" x2="272.899" y2="272.525"/><line x1="299.819" y1="261.373" x2="295.604" y2="265.59"/><line x1="281.733" y1="279.459" x2="277.52" y2="283.674"/><line x1="299.819" y1="283.674" x2="295.604" y2="279.459"/><line x1="281.733" y1="265.59" x2="277.52" y2="261.373"/></g><g stroke="#000" stroke-width="1.4" stroke-miterlimit="10" fill="none"><line x1="391.35" y1="100.545" x2="391.35" y2="122.391"/><line x1="402.272" y1="111.465" x2="380.423" y2="111.465"/></g><g stroke="#000" stroke-width="1.4" stroke-miterlimit="10" fill="none"><line x1="227.298" y1="253.652" x2="211.853" y2="269.099"/><line x1="227.302" y1="269.097" x2="211.853" y2="253.648"/></g><g stroke="#000" stroke-width="1.4" stroke-miterlimit="10" fill="none"><line x1="1087.794" y1="117.342" x2="1087.794" y2="132.866"/><line x1="1095.558" y1="125.103" x2="1080.031" y2="125.103"/></g><polygon stroke="#000" stroke-width="1.4" stroke-miterlimit="10" points="1073.27,243.957 1081.562,252.323 1072.938,255.652 1100.65,267.299 1089.136,239.533 1085.765,248.142 1077.441,239.806" fill="none"/><circle stroke="#000" stroke-width="1.4" stroke-miterlimit="10" cx="1123.415" cy="180.147" r="39.62" fill="none"/><path stroke="#000" stroke-width="1.4" stroke-miterlimit="10" d="M705.682 127.152c-2.642 0-4.775 2.142-4.775 4.771 0 2.638 2.137 4.772 4.775 4.772 2.629 0 4.771-2.138 4.771-4.772 0-2.63-2.142-4.771-4.771-4.771zm-14.015-14.011c-2.637 0-4.773 2.135-4.773 4.771 0 2.64 2.141 4.775 4.773 4.775s4.771-2.138 4.771-4.775c0-2.636-2.138-4.771-4.771-4.771zm-14.018-14.014c-2.631 0-4.771 2.14-4.771 4.773 0 2.637 2.142 4.772 4.771 4.772 2.64 0 4.771-2.139 4.771-4.772.003-2.635-2.131-4.773-4.771-4.773z" fill="none"/><path stroke="#000" stroke-width="1.4" stroke-miterlimit="10" d="M553.542 127.152c2.639 0 4.773 2.142 4.773 4.771 0 2.638-2.137 4.772-4.773 4.772-2.635 0-4.773-2.138-4.773-4.772.001-2.63 2.139-4.771 4.773-4.771zm14.017-14.011c2.639 0 4.771 2.135 4.771 4.771 0 2.64-2.133 4.775-4.771 4.775-2.637 0-4.775-2.138-4.775-4.775-.004-2.636 2.137-4.771 4.775-4.771zm14.004-14.014c2.643 0 4.775 2.14 4.775 4.773 0 2.637-2.135 4.772-4.775 4.772-2.635 0-4.771-2.139-4.771-4.772.001-2.635 2.14-4.773 4.771-4.773z" fill="none"/><path stroke="#000" stroke-width="1.4" stroke-miterlimit="10" d="M814.132 293.82c.002-2.381-1.934-4.314-4.312-4.314-2.381 0-4.314 1.937-4.314 4.314h8.626zm15.634 0c0-2.381-1.937-4.314-4.312-4.314-2.381 0-4.312 1.937-4.312 4.314h8.624zm15.63 0c.003-2.381-1.936-4.314-4.312-4.314s-4.312 1.937-4.312 4.314h8.624z" fill="none"/><path stroke="#000" stroke-width="1.4" stroke-miterlimit="10" d="M430.324 293.82c.002-2.381-1.936-4.314-4.312-4.314-2.381 0-4.312 1.937-4.312 4.314h8.624zm15.633 0c0-2.381-1.936-4.314-4.314-4.314-2.381 0-4.312 1.937-4.312 4.314h8.626zm15.63 0c.002-2.381-1.934-4.314-4.312-4.314-2.384 0-4.314 1.937-4.314 4.314h8.626z" fill="none"/><g stroke="#000" stroke-width="1.4" stroke-miterlimit="10" fill="none"><path d="M682.632 43.539c-9.114-5.058-12.905 4.225-12.905 4.225-2.484 7.197 3.473 14.148 11.287 14.146 9.94-.008 16.172-8.061 16.172-18.002s-7.437-17.483-17.125-19.736c-18.125-4.223-39.976 16.388-39.976 16.388l-37.496 37.244"/><path d="M576.442 43.539c9.113-5.058 12.908 4.225 12.908 4.225 2.481 7.197-3.473 14.148-11.283 14.146-9.943-.008-16.178-8.058-16.178-18 0-9.944 7.439-17.485 17.121-19.738 18.131-4.223 39.979 16.388 39.979 16.388l37.495 37.244"/><circle cx="727.965" cy="113.296" r="7.468"/><path d="M757.787 68.534s-19.646 1.027-32.404 8.266l22.798 17.926s11.065 9.88 19.838-1.271c8.194-10.425-.456-17.229-.456-17.229l-9.776-7.692zm0 0l-14.307-11.247s-1.956 8.573-1.628 13.59"/><path d="M733.69 73.166s-2.555-6.5-3.131-10.533c0 0 6.517-.229 11.748 1.161"/><circle cx="531.255" cy="113.296" r="7.467"/><path d="M501.432 68.534s19.646 1.028 32.4 8.266l-22.791 17.925s-11.064 9.88-19.838-1.271c-8.2-10.425.453-17.229.453-17.229l9.776-7.691zm0 0l14.311-11.247s1.953 8.573 1.623 13.59"/><path d="M525.53 73.166s2.549-6.5 3.127-10.53c0 0-6.517-.229-11.746 1.158"/><path d="M491.028 93.211l-17.729 13.75c-8.828 7.586-7.879 20.827.109 28.816 7.99 7.989 19.293 7.797 29.016-.002l74.742-58.128h104.794l74.832 58.127c9.726 7.8 21.024 7.992 29.015.003s8.938-21.23.11-28.816l-17.728-13.75"/><line x1="711.146" y1="63.524" x2="725.854" y2="48.816"/><line x1="545.343" y1="63.524" x2="530.634" y2="48.816"/><line x1="629.612" y1="50.612" x2="629.612" y2="77.693"/></g><g stroke="#000" stroke-width="1.4" stroke-miterlimit="10" fill="none"><polygon points="350.28,244.236 397.106,260.424 415.688,244.4 397.212,228.373"/><polygon points="457.959,244.4 411.134,228.213 392.552,244.236 411.026,260.264"/></g><g stroke="#000" stroke-width="1.4" stroke-miterlimit="10" fill="none"><path d="M283.646 90.818s-13.34-10.086-29.74-8.582c-14.422 1.322-17.414 13.641-17.414 13.641-4.34 17.543-17.711 13.502-17.711 13.502-12.055-2.439-11.205-22.393-.537-31.375 0-.001 28.411-27.997 65.402 12.814zm-66.074 18.239s-1.07-11.504 5.316-20.687c8.928-12.824 27.838-22.533 59.818 1.615"/><path d="M210.208 99.236s1.387-4.369 9.369-4.469"/><path d="M212.309 85.963s4.914-5.025 14.771-2.555"/></g><g stroke="#000" stroke-width="1.4" stroke-miterlimit="10" fill="none"><line x1="871.696" y1="91.268" x2="871.696" y2="113.624"/><line x1="883.021" y1="91.268" x2="883.021" y2="113.624"/><line x1="894.346" y1="91.268" x2="894.346" y2="113.624"/><line x1="905.669" y1="91.268" x2="905.669" y2="113.624"/><line x1="916.998" y1="91.268" x2="916.998" y2="113.624"/></g><g stroke="#000" stroke-width="1.4" stroke-miterlimit="10" fill="none"><polygon points="41.348,302.732 13.162,302.742 13.151,274.562 57.824,258.07"/><path d="M76.438 239.535s-17.969 16.723-46.648 15.16c0 0-18.707-1.896-16.652-18.705 0 0 1.848-11.207 11.039-11.211 8.9-.004 8.904 11.205 3.465 12.521"/><path d="M76.438 239.535s-16.559 18.133-14.973 46.812c0 0 1.906 18.707 18.719 16.642 0 0 11.203-1.857 11.199-11.05 0-8.899-11.209-8.896-12.525-3.454"/><line x1="41.348" y1="302.732" x2="41.348" y2="264.154"/><line x1="13.151" y1="274.744" x2="51.729" y2="274.744"/></g><g stroke="#000" stroke-width="1.4" stroke-miterlimit="10" fill="none"><line x1="1184.733" y1="239.562" x2="1159.854" y2="214.912"/><path d="M1184.905 239.535s17.969 16.723 46.646 15.16c0 0 18.709-1.896 16.652-18.705 0 0-1.849-11.207-11.039-11.211-8.897-.004-8.902 11.205-3.463 12.521"/><path d="M1184.905 239.535s16.561 18.133 14.973 46.812c0 0-1.906 18.707-18.719 16.642 0 0-11.201-1.857-11.197-11.05 0-8.899 11.207-8.896 12.523-3.454"/></g><path stroke="#000" stroke-width="1.4" stroke-miterlimit="10" d="M34.313 83.225l-31.729 1.582c.001 0 6.916-19.975 31.729-1.582z" fill="none"/><path stroke="#000" stroke-width="1.4" stroke-miterlimit="10" d="M.91 53.77l24.271 8.957c.001 0-11.857-21.24-24.271-8.957z" fill="none"/><path stroke="#000" stroke-width="1.4" stroke-miterlimit="10" d="M29.076 42.668l-11.227-14.098c.001.001 9.632-5.137 11.227 14.098z" fill="none"/><circle stroke="#000" stroke-width="1.4" stroke-miterlimit="10" cx="68.402" cy="54.523" r="7.953" fill="none"/><g stroke="#000" stroke-width="1.4" stroke-miterlimit="10" fill="none"><path d="M132.358 62.727c-2.172-3.049-7.67-12.157-5.141-21.796 2.895-11.038 12.857-11.771 12.857-11.771 14.197-1.103 12.789-12.018 12.789-12.018-.336-9.69-14.769-11.624-24.314-4.482 0 0-7.914 5.39-10.762 14.957-2.726 9.174-.058 26.904 14.571 35.11"/><path d="M131.72 61.946s-8.312-8.154-10.219-18.581c-1.355-7.414 1.088-16.399 9.553-22.504 4.568-3.292 12.07-6.914 21.664-4.982"/></g><path stroke="#000" stroke-width="1.4" stroke-miterlimit="10" d="M79.708 119.475c-20.306 14.644-.972 29.287-.972 29.287s13.101-8.921.972-29.287z" fill="none"/><path stroke="#000" stroke-width="1.4" stroke-miterlimit="10" d="M385.246 59.658c-18.288-16.193-35.199-32.934-56.049-45.815 0 0-59.711-38.472-120.979 15.236-4.717 3.792-12.584 10.385-17.266 14.286 0 0-50.592 41.442-97.195 51.09-13.926 2.881-27.576 4.608-43.675-1.364-20.184-7.125-27.856-27.764-21.662-45.31 6.193-17.543 23.141-25.907 39.98-18.935 0 0 18.291 7.771 11.357 25.675-2.4 6.192-8.299 7.954-10.625 7.954" fill="none"/><line stroke="#000" stroke-width="1.4" stroke-miterlimit="10" x1="380.141" y1="66.192" x2="390.35" y2="54.845" fill="none"/><path stroke="#000" stroke-width="1.4" stroke-miterlimit="10" d="M229.625 13.885c14.945-8.646 45.867-15.784 65.311 1.592 4.781 4.187 8.779 12.115 8.779 18.975 0 12.618-10.229 22.849-22.852 22.849-12.314 0-22.355-7.061-22.832-21.757h45.608" fill="none"/><path stroke="#000" stroke-width="1.4" stroke-miterlimit="10" d="M229.925 38.149c-1.09.938-2.758.969-4.584-.354-1.814-1.323-3.487-1.298-4.576-.354-1.086.938-1.355 2.586-.307 4.581 1.043 1.997.779 3.639-.311 4.579-1.088.941-2.756.97-4.578-.354-1.822-1.323-3.49-1.293-4.578-.354-1.086.938-1.355 2.586-.308 4.583 1.043 1.988.778 3.643-.313 4.583-1.084.938-2.75.963-4.576-.357-1.824-1.321-3.49-1.293-4.574-.353-1.09.939-1.357 2.583-.309 4.58 1.039 1.991.775 3.641-.311 4.583-1.09.938-2.76.969-4.58-.357-1.824-1.323-3.49-1.293-4.58-.353-1.09.938-1.355 2.588-.311 4.578 1.049 1.996.783 3.643-.303 4.581-1.09.939-2.758.971-4.58-.352-1.826-1.321-3.492-1.297-4.58-.357-1.088.943-1.355 2.59-.307 4.583 1.043 1.994.775 3.646-.309 4.581-1.09.943-2.76.973-4.578-.353" fill="none"/><line stroke="#000" stroke-width="1.4" stroke-miterlimit="10" x1="320.555" y1="27.115" x2="360.11" y2="59.289" fill="none"/><path stroke="#000" stroke-width="1.4" stroke-miterlimit="10" d="M447.28 115.497s-7.105-30.974-43.561-43.554c.004.001 6.502 32.588 43.561 43.554z" fill="none"/><path stroke="#000" stroke-width="1.4" stroke-miterlimit="10" d="M123.128 290.611s11.111-17.729 0-40.551c0 .002-12.145 18.194 0 40.551z" fill="none"/><path stroke="#000" stroke-width="1.4" stroke-miterlimit="10" d="M102.623 270.564s17.727 11.108 40.549 0c-.001 0-18.193-12.144-40.549 0z" fill="none"/><circle stroke="#000" stroke-width="1.4" stroke-miterlimit="10" cx="280.625" cy="35.665" r="8.044" fill="none"/><path stroke="#000" stroke-width="1.4" stroke-miterlimit="10" d="M132.358 62.727c3.371 2.047 7.324 3.224 11.547 3.224 12.295.675 31.346-9.729 43.588-19.917" fill="none"/><path stroke="#000" stroke-width="1.4" stroke-miterlimit="10" d="M114.333 88.393c-29.042 10.291-43.179 35.392-35.597 60.369" fill="none"/><path stroke="#000" stroke-width="1.4" stroke-miterlimit="10" d="M1224.903 83.225l31.73 1.582c.002 0-6.914-19.975-31.73-1.582z" fill="none"/><path stroke="#000" stroke-width="1.4" stroke-miterlimit="10" d="M1258.309 53.77l-24.27 8.957c-.001 0 11.854-21.24 24.27-8.957z" fill="none"/><path stroke="#000" stroke-width="1.4" stroke-miterlimit="10" d="M1230.143 42.668l11.229-14.099c-.002.002-9.637-5.136-11.229 14.099z" fill="none"/><path stroke="#000" stroke-width="1.4" stroke-miterlimit="10" d="M1183.317 57.169c-1.462-4.144.711-8.686 4.85-10.146 4.143-1.46 8.684.711 10.147 4.854 1.464 4.145-.712 8.687-4.853 10.146-4.136 1.458-8.681-.712-10.144-4.854z" fill="none"/><g stroke="#000" stroke-width="1.4" stroke-miterlimit="10" fill="none"><path d="M1126.857 62.727c2.174-3.049 7.673-12.157 5.144-21.796-2.894-11.038-12.854-11.771-12.854-11.771-14.197-1.103-12.789-12.018-12.789-12.018.336-9.69 14.768-11.624 24.312-4.482 0 0 7.914 5.39 10.764 14.957 2.725 9.174.057 26.904-14.577 35.11"/><path d="M1127.5 61.946s8.312-8.154 10.22-18.581c1.355-7.414-1.092-16.399-9.554-22.504-4.568-3.292-12.07-6.914-21.662-4.982"/></g><path stroke="#000" stroke-width="1.4" stroke-miterlimit="10" d="M1179.51 119.475c20.311 14.644.977 29.287.977 29.287s-13.104-8.921-.977-29.287z" fill="none"/><path stroke="#000" stroke-width="1.4" stroke-miterlimit="10" d="M873.975 59.658c18.289-16.193 35.2-32.934 56.051-45.815 0 0 59.711-38.472 120.979 15.236 4.715 3.792 12.582 10.385 17.264 14.286 0 0 50.595 41.442 97.194 51.09 13.926 2.881 27.578 4.608 43.674-1.364 20.188-7.125 27.857-27.764 21.662-45.311-6.191-17.543-23.141-25.907-39.979-18.935 0 0-18.288 7.771-11.356 25.675 2.399 6.192 8.297 7.954 10.625 7.954" fill="none"/><line stroke="#000" stroke-width="1.4" stroke-miterlimit="10" x1="879.078" y1="66.192" x2="868.871" y2="54.845" fill="none"/><path stroke="#000" stroke-width="1.4" stroke-miterlimit="10" d="M1029.593 13.885c-14.94-8.646-45.864-15.784-65.311 1.592-4.779 4.187-8.777 12.115-8.777 18.975 0 12.618 10.229 22.849 22.853 22.849 12.312 0 22.354-7.061 22.834-21.757h-45.609" fill="none"/><path stroke="#000" stroke-width="1.4" stroke-miterlimit="10" d="M1029.294 38.149c1.09.938 2.756.969 4.582-.354 1.818-1.323 3.488-1.298 4.576-.354 1.088.938 1.354 2.586.309 4.581-1.043 1.997-.774 3.639.312 4.579 1.088.941 2.756.97 4.582-.354 1.817-1.323 3.488-1.293 4.574-.354 1.088.938 1.354 2.586.311 4.583-1.045 1.988-.779 3.643.312 4.583 1.084.938 2.75.963 4.575-.357 1.822-1.321 3.49-1.293 4.574-.353 1.09.939 1.354 2.583.312 4.58-1.041 1.991-.774 3.641.31 4.583 1.09.938 2.76.969 4.58-.357 1.822-1.323 3.492-1.293 4.58-.353 1.088.938 1.354 2.588.309 4.578-1.047 1.996-.781 3.643.307 4.581 1.091.939 2.761.971 4.578-.352 1.824-1.321 3.49-1.297 4.58-.357 1.088.943 1.354 2.59.31 4.583-1.041 1.994-.777 3.646.311 4.581 1.088.943 2.761.973 4.576-.353" fill="none"/><line stroke="#000" stroke-width="1.4" stroke-miterlimit="10" x1="938.664" y1="27.115" x2="899.109" y2="59.289" fill="none"/><path stroke="#000" stroke-width="1.4" stroke-miterlimit="10" d="M811.938 115.497s7.104-30.974 43.562-43.554c-.002.001-6.5 32.588-43.562 43.554z" fill="none"/><path stroke="#000" stroke-width="1.4" stroke-miterlimit="10" d="M970.55 35.665c0 4.44 3.604 8.042 8.047 8.042 4.438 0 8.039-3.602 8.039-8.042 0-4.439-3.602-8.046-8.039-8.046-4.443 0-8.047 3.604-8.047 8.046z" fill="none"/><path stroke="#000" stroke-width="1.4" stroke-miterlimit="10" d="M1126.857 62.727c-3.365 2.047-7.32 3.224-11.544 3.224-12.296.675-31.348-9.729-43.589-19.917" fill="none"/><path stroke="#000" stroke-width="1.4" stroke-miterlimit="10" d="M1144.885 88.393c29.043 10.291 43.184 35.392 35.602 60.369" fill="none"/><g stroke="#000" stroke-width="1.4" stroke-miterlimit="10" fill="none"><polygon points="1248.176,274.551 1248.188,302.73 1220.008,302.739 1203.526,258.074"/><rect x="1211.655" y="266.388" width="12.467" height="12.47"/><line x1="1224.122" y1="278.857" x2="1248.188" y2="302.73"/></g><g stroke="#000" stroke-width="1.4" stroke-miterlimit="10" fill="none"><path d="M13.125 187.506h5.092c5.504 0 9.967 4.466 9.967 9.973 0 5.506-4.463 9.968-9.967 9.968h-5.092v-19.941zm0-25.916h5.092c5.504 0 9.967 4.47 9.967 9.974s-4.463 9.965-9.967 9.965h-5.092v-19.939zm0-25.916h5.092c5.504 0 9.967 4.467 9.967 9.97 0 5.506-4.463 9.969-9.967 9.969h-5.092v-19.939zm0-25.917h5.092c5.504 0 9.967 4.466 9.967 9.97 0 5.507-4.463 9.968-9.967 9.968h-5.092v-19.938z"/><line x1="13.125" y1="197.476" x2="28.184" y2="197.476"/><line x1="13.125" y1="171.561" x2="28.184" y2="171.561"/><line x1="13.125" y1="145.643" x2="28.184" y2="145.643"/><line x1="13.125" y1="119.725" x2="28.184" y2="119.725"/></g><g stroke="#000" stroke-width="1.4" stroke-miterlimit="10" fill="none"><polygon points="1248.141,189.615 1248.141,200.308 1248.141,211.002 1231.987,200.308"/><line x1="1231.987" y1="200.308" x2="1248.141" y2="200.308"/><polygon points="1248.141,161.809 1248.141,172.502 1248.141,183.195 1231.987,172.502"/><line x1="1231.987" y1="172.502" x2="1248.141" y2="172.502"/><polygon points="1248.141,134.003 1248.141,144.697 1248.141,155.391 1231.987,144.697"/><line x1="1231.987" y1="144.697" x2="1248.141" y2="144.697"/><polygon points="1248.141,106.198 1248.141,116.893 1248.141,127.584 1231.987,116.893"/><line x1="1231.987" y1="116.893" x2="1248.141" y2="116.893"/></g><g stroke="#000" stroke-width="1.4" stroke-miterlimit="10" fill="none"><line x1="1141.26" y1="197.09" x2="1163.034" y2="217.984"/><line x1="1094.919" y1="152.619" x2="1105.75" y2="163.016"/></g><circle stroke="#000" stroke-width="1.4" stroke-miterlimit="10" cx="1123.416" cy="180.148" r="24.611" fill="none"/><path stroke="#000" stroke-width="1.4" stroke-miterlimit="10" d="M1114.085 180.146c0-5.15 4.178-9.323 9.33-9.323 5.151 0 9.325 4.173 9.325 9.323 0 5.151-4.174 9.326-9.325 9.326-5.152 0-9.33-4.171-9.33-9.326z" fill="none"/><g stroke="#000" stroke-width="1.4" stroke-miterlimit="10" fill="none"><line x1="1148.026" y1="181.082" x2="1170.254" y2="181.082"/><line x1="842.376" y1="181.082" x2="1098.804" y2="181.082"/></g><path stroke="#000" stroke-width="1.4" stroke-miterlimit="10" d="M1177.689 267.558c2.146 2.148 5.63 2.146 7.772-.002 2.15-2.147 2.154-5.633.004-7.78-2.146-2.148-5.631-2.146-7.776 0-2.147 2.146-2.153 5.632 0 7.782z" fill="none"/><path stroke="#000" stroke-width="1.4" stroke-miterlimit="10" d="M1171.286 184.354c2.146 2.147 5.631 2.146 7.774-.002 2.151-2.148 2.155-5.631.005-7.781-2.15-2.148-5.632-2.146-7.779 0-2.149 2.148-2.153 5.632 0 7.783z" fill="none"/><path stroke="#000" stroke-width="1.4" stroke-miterlimit="10" d="M1027.708 221.16c2.147 2.149 5.631 2.146 7.775-.002 2.149-2.146 2.153-5.631.004-7.781-2.15-2.146-5.631-2.146-7.779 0-2.147 2.146-2.152 5.633 0 7.783z" fill="none"/><path stroke="#000" stroke-width="1.4" stroke-miterlimit="10" d="M1067.835 221.16c2.147 2.149 5.631 2.146 7.777-.002 2.147-2.146 2.151-5.631.002-7.781-2.148-2.146-5.632-2.146-7.779 0-2.147 2.146-2.15 5.633 0 7.783z" fill="none"/><line stroke="#000" stroke-width="1.4" stroke-miterlimit="10" x1="1096.035" y1="208.459" x2="1106.224" y2="198.269" fill="none"/><line stroke="#000" stroke-width="1.4" stroke-miterlimit="10" x1="76.438" y1="239.535" x2="102.341" y2="213.648" fill="none"/><path stroke="#000" stroke-width="1.4" stroke-miterlimit="10" d="M81.457 192.607c-13.088 13.084-2.104 23.131-2.104 23.131s10.045 10.985 23.135-2.099" fill="none"/><path stroke="#000" stroke-width="1.4" stroke-miterlimit="10" d="M102.487 213.64c-13.09 13.084-2.102 23.132-2.102 23.132s10.045 10.981 23.131-2.104" fill="none"/><path stroke="#000" stroke-width="1.4" stroke-miterlimit="10" d="M102.11 207.619c1.75-1.748 4.602-1.737 6.363.033 1.77 1.762 1.779 4.612.031 6.362-1.75 1.749-4.602 1.732-6.367-.03-1.766-1.764-1.777-4.613-.027-6.365z" fill="none"/><line stroke="#000" stroke-width="1.4" stroke-miterlimit="10" x1="108.481" y1="207.656" x2="140.38" y2="175.752" fill="none"/><g stroke="#000" stroke-width="1.4" stroke-miterlimit="10" fill="none"><path d="M122.546 235.64s10.611.886 18.859-7.358c8.246-8.248 7.15-18.647 7.15-18.647s-10.404-1.101-18.65 7.146c-8.243 8.246-7.359 18.859-7.359 18.859z"/><line x1="122.537" y1="235.441" x2="148.453" y2="209.527"/></g><g stroke="#000" stroke-width="1.4" stroke-miterlimit="10" fill="none"><path d="M80.149 193.24s10.609.887 18.855-7.357c8.246-8.252 7.148-18.647 7.148-18.647s-10.402-1.101-18.65 7.146c-8.247 8.246-7.353 18.858-7.353 18.858z"/><line x1="80.136" y1="193.039" x2="106.048" y2="167.128"/></g><polygon stroke="#000" stroke-width="1.4" stroke-miterlimit="10" points="171.901,117.624 149.458,126.193 132.929,156.029 162.897,139.634" fill="none"/><polygon stroke="#000" stroke-width="1.4" stroke-miterlimit="10" points="189.903,126.5 162.897,139.634 140.447,175.818 176.583,153.414" fill="none"/><polygon stroke="#000" stroke-width="1.4" stroke-miterlimit="10" points="199.136,144.857 176.69,153.426 159.533,183.711 190.38,167.209" fill="none"/><polyline stroke="#000" stroke-width="1.4" stroke-miterlimit="10" points="190.587,167.324 173.153,184.762 149.391,184.762 140.968,176.336 140.447,175.818 132.022,167.391 132.022,143.628 149.458,126.193" fill="none"/><path stroke="#000" stroke-width="1.4" stroke-miterlimit="10" d="M199.852 122.571c-1.699 1.699-4.453 1.699-6.152 0-1.701-1.701-1.701-4.456 0-6.158 1.699-1.698 4.453-1.698 6.152 0 1.702 1.702 1.702 4.456 0 6.158z" fill="none"/><circle stroke="#000" stroke-width="1.4" stroke-miterlimit="10" cx="205.896" cy="137.959" r="3.206" fill="none"/><path stroke="#000" stroke-width="1.4" stroke-miterlimit="10" d="M180.927 112.993c-1.25 1.251-3.282 1.251-4.533 0-1.248-1.253-1.248-3.279.004-4.535 1.25-1.249 3.279-1.249 4.533 0 1.251 1.253 1.251 3.282-.004 4.535z" fill="none"/><g stroke="#000" stroke-width="1.4" stroke-miterlimit="10" fill="none"><rect x="604.42" y="162.8" transform="matrix(-.707 -.707 .707 -.707 927.141 730.533)" width="20.897" height="20.898"/><rect x="633.996" y="162.77" transform="matrix(-.707 -.707 .707 -.707 977.652 751.395)" width="20.897" height="20.898"/><polyline points="644.393,188.037 629.608,202.822 614.828,188.037"/></g><path stroke="#000" stroke-width="1.4" stroke-miterlimit="10" d="M661.041 211.079c-17.356 17.36-45.502 17.36-62.859.003-17.359-17.356-17.359-45.508 0-62.864 17.357-17.355 45.502-17.355 62.861 0 17.358 17.356 17.356 45.503-.002 62.861z" fill="none"/><path stroke="#000" stroke-width="1.4" stroke-miterlimit="10" d="M446.891 175.564c1.967-2.057 2.877-4.549 2.875-7.835.002-5.146-2.82-9.323-6.305-9.323-3.479 0-6.303 4.178-6.303 9.326-.002 3.283 1.146 6.17 2.881 7.83 0 0 2.188 1.789 3.35 4.51 0 0 .891-2.273 3.502-4.508zm0 9.022c1.967 2.054 2.877 4.545 2.875 7.832 0 5.148-2.82 9.32-6.303 9.321-3.484 0-6.307-4.173-6.305-9.321-.002-3.287 1.145-6.171 2.881-7.83 0 0 2.191-1.793 3.35-4.516 0 0 .896 2.276 3.502 4.514z" fill="none"/><path stroke="#000" stroke-width="1.4" stroke-miterlimit="10" d="M483.703 175.564c1.967-2.057 2.877-4.549 2.875-7.835.002-5.146-2.82-9.323-6.303-9.323s-6.307 4.178-6.307 9.326c-.002 3.283 1.146 6.17 2.882 7.83 0 0 2.188 1.789 3.353 4.51 0 0 .893-2.273 3.5-4.508zm0 9.022c1.967 2.054 2.877 4.545 2.875 7.832 0 5.148-2.822 9.32-6.303 9.321-3.484 0-6.309-4.173-6.307-9.321-.002-3.287 1.146-6.171 2.881-7.83 0 0 2.19-1.793 3.354-4.516 0 0 .895 2.276 3.5 4.514z" fill="none"/><path stroke="#000" stroke-width="1.4" stroke-miterlimit="10" d="M520.516 175.564c1.971-2.057 2.878-4.549 2.877-7.835.001-5.146-2.82-9.323-6.305-9.323-3.479 0-6.305 4.178-6.305 9.326-.002 3.283 1.146 6.17 2.883 7.83 0 0 2.188 1.789 3.35 4.51 0 0 .892-2.273 3.5-4.508zm0 9.022c1.971 2.054 2.878 4.545 2.877 7.832 0 5.148-2.82 9.32-6.305 9.321-3.484 0-6.307-4.173-6.303-9.321-.004-3.287 1.145-6.171 2.879-7.83 0 0 2.191-1.793 3.352-4.516 0 0 .894 2.276 3.5 4.514z" fill="none"/><line stroke="#000" stroke-width="1.4" stroke-miterlimit="10" x1="443.389" y1="180.072" x2="585.619" y2="180.072" fill="none"/><path stroke="#000" stroke-width="1.4" stroke-miterlimit="10" d="M812.33 184.582c-1.968 2.053-2.879 4.549-2.877 7.836-.002 5.146 2.821 9.321 6.305 9.321 3.484 0 6.308-4.175 6.308-9.323.002-3.287-1.148-6.172-2.883-7.83 0 0-2.188-1.792-3.353-4.514 0 0-.892 2.276-3.5 4.51zm0-9.02c-1.968-2.06-2.879-4.547-2.877-7.833 0-5.147 2.823-9.321 6.305-9.323 3.484 0 6.31 4.174 6.308 9.323.002 3.286-1.148 6.171-2.883 7.831 0 0-2.189 1.789-3.353 4.512 0 0-.896-2.273-3.5-4.51z" fill="none"/><path stroke="#000" stroke-width="1.4" stroke-miterlimit="10" d="M775.518 184.582c-1.968 2.053-2.877 4.549-2.875 7.836-.002 5.146 2.819 9.321 6.303 9.321 3.482 0 6.307-4.175 6.307-9.323.002-3.287-1.146-6.172-2.883-7.83 0 0-2.189-1.792-3.352-4.514 0 0-.893 2.276-3.5 4.51zm0-9.02c-1.968-2.06-2.877-4.547-2.875-7.833 0-5.147 2.821-9.321 6.303-9.323 3.484 0 6.309 4.174 6.307 9.323.002 3.286-1.146 6.171-2.883 7.831 0 0-2.189 1.789-3.352 4.512 0 0-.895-2.273-3.5-4.51z" fill="none"/><path stroke="#000" stroke-width="1.4" stroke-miterlimit="10" d="M738.705 184.582c-1.97 2.053-2.879 4.549-2.877 7.836-.002 5.146 2.821 9.321 6.301 9.321 3.485 0 6.312-4.175 6.312-9.323 0-3.287-1.148-6.172-2.885-7.83 0 0-2.188-1.792-3.353-4.514 0 0-.891 2.276-3.498 4.51zm0-9.02c-1.97-2.06-2.879-4.547-2.877-7.833 0-5.147 2.823-9.321 6.301-9.323 3.488 0 6.312 4.174 6.31 9.323.002 3.286-1.146 6.171-2.881 7.831 0 0-2.189 1.789-3.354 4.512-.001 0-.895-2.273-3.499-4.51z" fill="none"/><line stroke="#000" stroke-width="1.4" stroke-miterlimit="10" x1="815.83" y1="180.072" x2="674.061" y2="180.072" fill="none"/><path stroke="#000" stroke-width="1.4" stroke-miterlimit="10" d="M569.709 179.65c0-33.083 26.819-59.901 59.899-59.901 33.081 0 59.9 26.818 59.9 59.901" fill="none"/><g stroke="#000" stroke-width="1.4" stroke-miterlimit="10" fill="none"><path d="M1003.429 181.062c-36.19-8.672-55.182-29.004-55.182-29.004-12.855-12.857-12.857-33.697 0-46.557 10.555-10.555 27.514-14.026 38.977-5.666 0 0 9.384 6.602 11.066 17.386.896 5.764.518 13.174-6.705 20.395 0 0-15.326 15.28-29.93.391 0 0-4.601-4.894-5.013-11.378"/><path d="M987.681 116.01c-22.61-8.308-30.856 10.51-30.856 10.51s18.007 9.871 30.856-10.51z"/><line x1="987.681" y1="116.01" x2="956.822" y2="126.519"/><path d="M965.787 232.586c4.156-4.16 10.896-4.153 15.053 0 4.158 4.158 4.162 10.898 0 15.055-4.154 4.16-10.896 4.156-15.051-.002-4.159-4.155-4.163-10.895-.002-15.053z"/><line x1="981.339" y1="247.568" x2="966.083" y2="232.299"/><path d="M1003.32 181.1c-36.193 8.674-55.187 29.006-55.187 29.006-12.854 12.854-12.854 33.694 0 46.553 10.558 10.556 27.519 14.029 38.978 5.664 0 0 9.385-6.597 11.065-17.383.896-5.76.521-13.168-6.705-20.394 0 0-15.321-15.274-29.928-.391 0 0-11.34 12.072 0 23.41 7.574 7.576 16.396 2.135 16.396 2.135"/><path d="M998.896 152.836s-5.963 16.693 21.812 25.152c.002 0-.943-28.134-21.812-25.152zm-.012 56.656s-5.961-16.695 21.816-25.158c.001 0-.947 28.136-21.816 25.158z"/></g><path stroke="#000" stroke-width="1.4" stroke-miterlimit="10" d="M926.716 170.49s-1.17-18.565-5.567-26.5c-4.976-8.974-11.56-5.033-11.56-5.033s-6.86 3.429-1.965 12.449c4.323 7.979 19.092 19.084 19.092 19.084zm.485 21.781s-1.961 18.497-6.691 26.236c-5.352 8.759-11.758 4.54-11.758 4.54s-6.707-3.719-1.438-12.521c4.658-7.782 19.887-18.255 19.887-18.255z" fill="none"/><g stroke="#000" stroke-width="1.4" stroke-miterlimit="10" fill="none"><path d="M926.854 181.42s-39.646-18.592-61.014-18.488c-24.148.107-23.465 18.15-23.465 18.15s-.688 18.041 23.467 18.152c21.366.098 61.012-17.814 61.012-17.814z"/><line x1="884.312" y1="196.515" x2="895.86" y2="181.336"/><line x1="866.86" y1="199.23" x2="880.503" y2="181.296"/><line x1="853.235" y1="196.939" x2="865.162" y2="181.254"/><line x1="858.571" y1="181.232" x2="849.541" y2="167.299"/><line x1="873" y1="181.271" x2="861.276" y2="163.181"/><line x1="887.43" y1="181.311" x2="876.184" y2="163.961"/><line x1="901.871" y1="181.354" x2="893.471" y2="168.398"/></g><g stroke="#000" stroke-width="1.4" stroke-miterlimit="10" fill="none"><polyline points="157.169,280.767 172.319,290.794 157.169,300.82"/><polygon points="187.755,300.82 172.319,290.794 187.755,280.767 203.194,290.794"/><polygon points="218.634,280.767 234.071,290.794 218.634,300.82 203.194,290.794"/><polyline points="249.223,300.82 234.071,290.794 249.223,280.767"/></g><g stroke="#000" stroke-width="1.4" stroke-miterlimit="10" fill="none"><line x1="135.682" y1="301.984" x2="145.235" y2="301.984"/><line x1="118.121" y1="301.984" x2="127.675" y2="301.984"/><line x1="100.561" y1="301.984" x2="110.115" y2="301.984"/></g><g stroke="#000" stroke-width="1.4" stroke-miterlimit="10" fill="none"><line x1="296.274" y1="301.984" x2="305.83" y2="301.984"/><line x1="278.714" y1="301.984" x2="288.271" y2="301.984"/><line x1="261.155" y1="301.984" x2="270.71" y2="301.984"/></g><g stroke="#000" stroke-width="1.4" stroke-miterlimit="10" fill="none"><line x1="562.817" y1="298.82" x2="572.373" y2="298.82"/><line x1="545.257" y1="298.82" x2="554.812" y2="298.82"/><line x1="527.696" y1="298.82" x2="537.251" y2="298.82"/><line x1="615.869" y1="298.82" x2="625.423" y2="298.82"/><line x1="598.309" y1="298.82" x2="607.862" y2="298.82"/><line x1="580.748" y1="298.82" x2="590.302" y2="298.82"/><line x1="668.919" y1="298.82" x2="678.475" y2="298.82"/><line x1="651.358" y1="298.82" x2="660.914" y2="298.82"/><line x1="633.798" y1="298.82" x2="643.354" y2="298.82"/><line x1="721.971" y1="298.82" x2="731.521" y2="298.82"/><line x1="704.41" y1="298.82" x2="713.964" y2="298.82"/><line x1="686.85" y1="298.82" x2="696.403" y2="298.82"/></g><g stroke="#000" stroke-width="1.4" stroke-miterlimit="10" fill="none"><line x1="981.896" y1="301.984" x2="996.302" y2="301.984"/><line x1="955.416" y1="301.984" x2="969.826" y2="301.984"/></g><g stroke="#000" stroke-width="1.4" stroke-miterlimit="10" fill="none"><line x1="1151.463" y1="301.984" x2="1163.698" y2="301.984"/><line x1="1128.982" y1="301.984" x2="1141.215" y2="301.984"/><line x1="1106.503" y1="301.984" x2="1118.734" y2="301.984"/></g><g stroke="#000" stroke-width="1.4" stroke-miterlimit="10" fill="none"><path d="M1042.994 302.228c0-9.735-7.896-17.629-17.627-17.629-9.738 0-17.633 7.894-17.633 17.629h35.26zm52.332 0c0-9.735-7.898-17.629-17.633-17.629-9.736 0-17.631 7.894-17.631 17.629h35.264z"/><line x1="1024.642" y1="284.617" x2="1024.642" y2="302.228"/><line x1="1077.693" y1="284.617" x2="1077.693" y2="302.228"/><rect x="1045.483" y="279.355" transform="matrix(-.707 -.707 .707 -.707 1593.152 1230.65)" width="11.979" height="11.98"/></g><path stroke="#000" stroke-width="1.4" stroke-miterlimit="10" d="M940.183 284.906s3.312.83 3.312 4.403c0 5.354-5.527 5.526-5.527 5.526-6.963.067-6.973-7.155-6.973-7.155 0-3.412 1.662-5.25 3.229-6.396 2.943-2.146 6.72-1.491 6.72-1.491 4.678.729 7.86 5.556 7.86 10.54 0 6.066-4.604 10.557-10.987 11.6h-16.511c-7.873 0-8.911-6.543-8.911-8.516 0-3.084 1.692-5.584 3.778-5.584s3.777 2.5 3.777 5.584c0 0 .285 8.516-9.687 8.516-9.229 0-10.399-6.543-10.399-8.516 0-3.084 1.69-5.584 3.774-5.584 2.089 0 3.777 2.5 3.777 5.584 0 0 .051 8.516-9.643 8.516-9.103 0-10.361-6.543-10.361-8.516 0-3.084 1.688-5.584 3.779-5.584 2.084 0 3.775 2.5 3.775 5.584 0 0 .28 8.516-9.685 8.516-9.229 0-10.404-6.543-10.404-8.516 0-3.084 1.689-5.584 3.777-5.584s3.776 2.5 3.776 5.584c0 0-.094 8.516-9.592 8.516l-88.379-.04-9.271-17.151-122.924.021-29.649-49.033h12.974l-29.652 49.035-119.948.019h-.121l-9.263 17.205-90.241-.054c-9.498 0-9.595-8.516-9.595-8.516 0-3.084 1.691-5.584 3.781-5.584 2.087 0 3.776 2.5 3.776 5.584 0 1.973-1.175 8.516-10.403 8.516-9.965 0-9.684-8.516-9.684-8.516 0-3.084 1.692-5.584 3.776-5.584 2.089 0 3.781 2.5 3.781 5.584 0 1.973-1.265 8.516-10.363 8.516-9.694 0-9.645-8.516-9.645-8.516 0-3.084 1.691-5.584 3.779-5.584 2.086 0 3.776 2.5 3.776 5.584 0 1.973-1.174 8.516-10.401 8.516-9.97 0-9.686-8.516-9.686-8.516 0-3.084 1.69-5.584 3.778-5.584s3.779 2.5 3.779 5.584c0 1.973-1.039 8.516-8.912 8.516h-16.508c-6.389-1.043-10.99-5.53-10.99-11.6 0-4.984 3.187-9.811 7.862-10.54 0 0 3.773-.655 6.718 1.491 1.571 1.146 3.23 2.983 3.23 6.396 0 0-.009 7.226-6.972 7.155 0 0-5.528-.173-5.528-5.526 0-3.573 3.311-4.403 3.311-4.403" fill="none"/><g stroke="#000" stroke-width="1.4" stroke-miterlimit="10" fill="none"><polygon points="1051.525,133.173 1028.597,95.27 1074.458,95.27"/><polygon points="1051.533,113.134 1074.458,151.036 1028.597,151.036"/></g><line stroke="#000" stroke-width="1.4" stroke-miterlimit="10" x1="619.646" y1="280.76" x2="639.574" y2="280.76" fill="none"/><line stroke="#000" stroke-width="1.4" stroke-miterlimit="10" x1="622.666" y1="271.082" x2="636.557" y2="271.082" fill="none"/><path stroke="#000" stroke-width="1.4" stroke-miterlimit="10" d="M1167.564 255.078c0-8.24-19.272 0-19.272 0s19.272 8.24 19.272 0zm-12.284 15.264c4.84-4.84-11.027-11.022-11.027-11.022s6.186 15.863 11.027 11.022zm0-31.086c4.84 4.844-11.029 11.027-11.029 11.027s6.189-15.865 11.029-11.027z" fill="none"/><g stroke="#000" stroke-width="1.4" stroke-miterlimit="10" fill="none"><line x1="1126.167" y1="282.176" x2="1120.16" y2="282.179"/><polyline points="1117.158,234.828 1117.158,226.822 1129.169,226.822 1129.169,235.197"/><polygon points="1129.169,276.174 1129.167,234.828 1123.162,234.828 1117.158,234.828 1117.156,276.174 1123.16,289.327"/><line x1="1117.156" y1="276.174" x2="1129.675" y2="276.174"/><line x1="1123.162" y1="234.828" x2="1123.164" y2="276.174"/></g><g stroke="#000" stroke-width="1.4" stroke-miterlimit="10" fill="none"><polygon points="348.951,222.642 368.059,222.642 358.501,207.05"/><polygon points="368.055,137.503 348.946,137.503 358.501,153.097"/><polygon points="315.93,170.521 315.93,189.625 331.522,180.07"/><polygon points="401.074,189.621 401.074,170.52 385.479,180.07"/><polygon points="321.646,203.422 335.153,216.93 339.43,199.152"/><polygon points="395.358,156.727 381.85,143.214 377.576,160.998"/><polygon points="335.153,143.218 321.645,156.727 339.43,160.998"/><polygon points="381.85,216.93 395.358,203.42 377.576,199.152"/><line x1="331.522" y1="180.07" x2="385.479" y2="180.07"/><line x1="358.501" y1="153.097" x2="358.501" y2="207.05"/><line x1="377.576" y1="160.998" x2="339.43" y2="199.152"/><line x1="339.43" y1="160.998" x2="377.576" y2="199.152"/></g><line stroke="#000" stroke-width="1.4" stroke-miterlimit="10" x1="419.833" y1="173.264" x2="419.833" y2="186.883" fill="none"/><g stroke="#000" stroke-width="1.4" stroke-miterlimit="10" fill="none"><path d="M261.985 225.722c1.977 1.979 1.973 5.183-.004 7.158-1.977 1.979-5.18 1.979-7.156 0-1.977-1.977-1.977-5.185-.002-7.158 1.979-1.975 5.186-1.972 7.162 0zm-14.907-77.467c5.934-6.026 12.27-.656 12.27-.656 9.365 8.22 2.046 17.651 2.046 17.651-11.319 13.607-24.868 1.998-24.868 1.998-11.277-9.299-12.441-23.788-.27-35.958 10.002-10.005 26.221-10 36.229.002 10.002 10.005 12.693 26.858 3.461 39.52 0 0-7.254 11.217-20.593 20.592-14.39 10.123-21.259 19.938-21.259 19.938-9.068 11.709-7.668 28.562 2.336 38.568 10.002 10.001 26.223 9.998 36.227-.004 12.17-12.17 11.004-26.656-.271-35.953 0 0-13.545-11.615-24.867 1.996 0 0-7.32 9.43 2.041 17.653 0 0 6.34 5.366 12.271-.661"/><path d="M246.923 155.473c-1.977-1.979-1.977-5.187 0-7.157 1.979-1.98 5.184-1.98 7.162-.003 1.975 1.976 1.975 5.183 0 7.16-1.979 1.978-5.184 1.978-7.162 0zm5.724-50.34c-1.662 2.657-2.906 8.836 4.055 18.721 6.957-9.888 5.785-16.036 4.174-18.723 0 0-1.219-2.394-4.131-2.394-1.038.002-2.824.348-4.098 2.396zm23.645 5.097c-2.85 1.296-7.297 5.757-6.957 17.838 11.256-4.396 13.684-10.166 13.822-13.297 0 0 .307-2.667-2.123-4.274-.865-.577-2.544-1.27-4.742-.267zm17.456 17.783c-3.123-.304-9.211 1.317-14.979 11.946 11.947 1.845 16.939-1.936 18.629-4.568 0 0 1.604-2.155.311-4.768-.461-.927-1.566-2.373-3.961-2.61z"/></g><g stroke="#000" stroke-width="1.4" stroke-miterlimit="10" fill="none"><path d="M602.162 227.07c0 23.875-19.357 43.233-43.236 43.233-23.875 0-43.23-19.358-43.23-43.233h86.466zm-78.183 0c0 19.27 15.678 34.944 34.945 34.944 19.271 0 34.949-15.678 34.949-34.944"/><line x1="558.925" y1="227.07" x2="558.925" y2="262.015"/><line x1="532.85" y1="250.308" x2="558.925" y2="227.07"/><line x1="585.003" y1="250.308" x2="558.925" y2="227.07"/></g><g stroke="#000" stroke-width="1.4" stroke-miterlimit="10" fill="none"><path d="M706.315 252.072c.023.039-2.688-2.347-2.688-5.472-.002-2.348 1.213-4.274 2.688-4.274 1.478 0 2.689 1.93 2.689 4.274.003 3.126-2.71 5.511-2.689 5.472"/><path d="M717.958 254.369c-.008.045-.24-3.56 1.969-5.769 1.662-1.661 3.886-2.166 4.923-1.124 1.051 1.045.539 3.264-1.113 4.928-2.216 2.211-5.82 1.981-5.779 1.965"/><path d="M694.162 254.369c.012.045.241-3.56-1.972-5.769-1.657-1.661-3.883-2.166-4.928-1.124-1.041 1.045-.534 3.264 1.125 4.928 2.215 2.211 5.818 1.981 5.775 1.965"/><path d="M663.085 263.908c0-23.877 19.354-43.236 43.233-43.236 23.88 0 43.232 19.359 43.232 43.236h-86.465zm79.523 0c0-20.008-16.278-36.289-36.289-36.289-20.009 0-36.286 16.281-36.286 36.289"/></g><circle stroke="#000" stroke-width="1.4" stroke-miterlimit="10" cx="1121.688" cy="113.799" r="7.602" fill="none"/><line stroke="#000" stroke-width="1.4" stroke-miterlimit="10" x1="1104.136" y1="96.449" x2="1137.439" y2="129.817" fill="none"/><line stroke="#000" stroke-width="1.4" stroke-miterlimit="10" x1="1051.529" y1="253.338" x2="1051.529" y2="265.99" fill="none"/><g stroke="#000" stroke-width="1.4" stroke-miterlimit="10" fill="none"><line x1="1035.707" y1="233.09" x2="1067.351" y2="201.447"/><line x1="1035.708" y1="201.449" x2="1067.349" y2="233.088"/></g><rect x="1046.119" y="196.399" transform="matrix(-.707 -.707 .707 -.707 1651.938 1087.202)" stroke="#000" stroke-width="1.4" stroke-miterlimit="10" width="10.078" height="10.082" fill="none"/><polygon stroke="#000" stroke-width="1.4" stroke-miterlimit="10" points="908.144,253.883 923.333,253.883 923.337,269.078 908.142,269.076" fill="none"/><polygon stroke="#000" stroke-width="1.4" stroke-miterlimit="10" points="1025.828,79.022 1009.535,62.727 993.246,79.022" fill="none"/><polygon stroke="#000" stroke-width="1.4" stroke-miterlimit="10" points="772.02,260.181 788.312,243.885 772.02,227.596" fill="none"/><rect x="1046.119" y="230.144" transform="matrix(-.707 -.707 .707 -.707 1628.14 1144.763)" stroke="#000" stroke-width="1.4" stroke-miterlimit="10" width="10.078" height="10.078" fill="none"/><path stroke="#000" stroke-width="1.4" stroke-miterlimit="10" d="M330.042 92.236l-15.01-15.013c-4.875-4.874-4.875-12.781 0-17.655 4.875-4.876 12.78-4.876 17.655 0l33.478 33.476c3.697 3.698 3.697 9.694 0 13.392-3.697 3.693-9.689 3.692-13.389-.002l-32.205-32.146c-2.688-2.687-2.688-7.041-.002-9.729 2.688-2.688 7.045-2.688 9.733 0l25.853 25.854" fill="none"/><path stroke="#000" stroke-width="1.4" stroke-miterlimit="10" d="M849.085 226.698c10.115-.001 18.315 8.2 18.315 18.312 0 10.117-8.2 18.318-18.315 18.316-10.114.002-18.317-8.201-18.315-18.316-.002-10.11 8.201-18.312 18.315-18.312z" fill="none"/><circle stroke="#000" stroke-width="1.4" stroke-miterlimit="10" cx="826.579" cy="245.015" r="3.468" fill="none"/><polyline stroke="#000" stroke-width="1.4" stroke-miterlimit="10" points="860.278,259.508 908.142,245.012 860.278,230.519" fill="none"/><line stroke="#000" stroke-width="1.4" stroke-miterlimit="10" x1="892.35" y1="249.797" x2="867.401" y2="241.547" fill="none"/><line stroke="#000" stroke-width="1.4" stroke-miterlimit="10" x1="892.35" y1="240.232" x2="867.401" y2="248.482" fill="none"/><g stroke="#000" stroke-width="1.4" stroke-miterlimit="10" fill="none"><path d="M854.462 269.615c.024-.043-2.834 2.473-2.834 5.771 0 2.479 1.279 4.517 2.834 4.517 1.56 0 2.838-2.035 2.84-4.517 0-3.298-2.864-5.816-2.84-5.771"/><path d="M861.802 266.099c-.012-.049-.256 3.757 2.08 6.091 1.748 1.747 4.095 2.28 5.191 1.184 1.102-1.1.569-3.443-1.185-5.197-2.327-2.335-6.133-2.091-6.086-2.078"/></g><g stroke="#000" stroke-width="1.4" stroke-miterlimit="10" fill="none"><path d="M859.589 221.021c.024.043-2.836-2.475-2.834-5.771-.002-2.479 1.279-4.512 2.834-4.512 1.558-.002 2.841 2.03 2.841 4.509 0 3.302-2.863 5.817-2.841 5.774"/><path d="M866.93 224.537c-.013.045-.255-3.758 2.077-6.088 1.752-1.754 4.097-2.285 5.195-1.187 1.103 1.099.569 3.443-1.187 5.195-2.327 2.338-6.133 2.093-6.085 2.08"/></g><line stroke="#000" stroke-width="1.4" stroke-miterlimit="10" x1="823.112" y1="243.974" x2="787.155" y2="243.871" fill="none"/><line stroke="#000" stroke-width="1.4" stroke-miterlimit="10" x1="471.5" y1="244.392" x2="499.268" y2="244.392" fill="none"/><line stroke="#000" stroke-width="1.4" stroke-miterlimit="10" x1="499.268" y1="231.07" x2="499.268" y2="257.715" fill="none"/><g stroke="#000" stroke-width="1.4" stroke-miterlimit="10" fill="none"><line x1="184.886" y1="219.01" x2="184.886" y2="259.541"/><line x1="205.151" y1="239.271" x2="164.615" y2="239.271"/><polygon points="184.882,259.541 164.533,239.183 184.882,218.834 205.237,239.183"/></g><g stroke="#000" stroke-width="1.4" stroke-miterlimit="10" fill="none"><path d="M320.167 238.842s-4.632 18.144 14.851 20.101c0-.004 4.631-18.144-14.851-20.101zm-34.591-46.819s-4.633 18.145 14.852 20.102c-.001 0 4.631-18.143-14.852-20.102z"/><line x1="335.018" y1="258.939" x2="285.5" y2="191.92"/></g><circle stroke="#000" stroke-width="1.4" stroke-miterlimit="10" cx="212.938" cy="188.564" r="9.611" fill="none"/><line stroke="#000" stroke-width="1.4" stroke-miterlimit="10" x1="212.937" y1="169.004" x2="212.937" y2="208.125" fill="none"/><g stroke="#000" stroke-width="1.4" stroke-miterlimit="10" fill="none"><line x1="418.686" y1="125.572" x2="418.686" y2="148.146"/><line x1="429.973" y1="136.861" x2="407.397" y2="136.861"/><line x1="426.666" y1="128.877" x2="410.707" y2="144.839"/><line x1="426.667" y1="144.839" x2="410.707" y2="128.877"/></g><line stroke="#000" stroke-width="1.4" stroke-miterlimit="10" x1="392.552" y1="244.242" x2="457.065" y2="244.242" fill="none"/><g stroke="#000" stroke-width="1.4" stroke-miterlimit="10" fill="none"><line x1="113.824" y1="108.774" x2="113.824" y2="134.016"/><line x1="126.444" y1="121.394" x2="101.203" y2="121.394"/></g><polyline stroke="#000" stroke-width="1.4" stroke-miterlimit="10" points="44.71,119.475 44.71,147.499 55.686,158.478 44.71,169.449 44.71,197.476" fill="none"/><circle stroke="#000" stroke-width="1.4" stroke-miterlimit="10" cx="55.686" cy="222.625" r="7.584" fill="none"/><path stroke="#000" stroke-width="1.4" stroke-miterlimit="10" d="M369.475 270.074c0 4.192-3.395 7.586-7.584 7.586-4.188 0-7.584-3.394-7.584-7.586 0-4.189 3.396-7.582 7.584-7.582 4.189 0 7.584 3.393 7.584 7.582z" fill="none"/><circle stroke="#000" stroke-width="1.4" stroke-miterlimit="10" cx="150.604" cy="99.446" r="7.585" fill="none"/><polygon stroke="#000" stroke-width="1.4" stroke-miterlimit="10" points="340.069,124.589 315.115,99.633 295.425,99.633 320.38,124.589" fill="none"/><g stroke="#000" stroke-width="1.4" stroke-miterlimit="10" fill="none"><circle cx="938.663" cy="71.388" r="8.138"/><line x1="938.664" y1="79.527" x2="938.664" y2="88.106"/><line x1="938.664" y1="54.667" x2="938.664" y2="63.249"/><line x1="930.527" y1="71.389" x2="921.947" y2="71.389"/><line x1="955.382" y1="71.389" x2="946.8" y2="71.389"/></g><g stroke="#000" stroke-width="1.4" stroke-miterlimit="10" fill="none"><path d="M1196.299 178.111c1.771-5.549 7.701-8.613 13.248-6.842 5.551 1.77 8.611 7.703 6.842 13.25-1.77 5.549-7.697 8.606-13.252 6.842-5.545-1.773-8.607-7.701-6.838-13.25z"/><circle cx="1206.344" cy="181.314" r="3.289"/></g><path stroke="#000" stroke-width="1.4" stroke-miterlimit="10" d="M1218.774 180.041c3.381 1.08 5.672 4.344 4.947 6.603-.717 2.256-4.411 3.762-7.793 2.684 1.648 3.146.914 7.133-1.182 8.231-2.098 1.101-5.772-.498-7.42-3.645-1.08 3.383-4.42 5.599-6.678 4.875-2.257-.717-3.578-4.57-2.502-7.951-3.154 1.629-6.964.717-8.05-1.389-1.087-2.102.562-5.678 3.718-7.309-3.384-1.08-5.566-4.33-4.852-6.586.721-2.259 4.404-3.615 7.787-2.535-1.631-3.154-.885-7 1.223-8.084 2.104-1.084 5.643.58 7.271 3.731 1.078-3.381 4.297-5.549 6.553-4.828 2.256.72 3.602 4.345 2.521 7.726 3.146-1.629 6.977-.945 8.062 1.158 1.092 2.102-.451 5.694-3.605 7.319z" fill="none"/><g stroke="#000" stroke-width="1.4" stroke-miterlimit="10" fill="none"><line x1="1206.344" y1="211.41" x2="1206.344" y2="233.844"/><line x1="1217.562" y1="222.627" x2="1195.127" y2="222.627"/><line x1="1214.276" y1="214.693" x2="1198.413" y2="230.558"/><line x1="1214.278" y1="230.558" x2="1198.413" y2="214.693"/></g><polyline stroke="#000" stroke-width="1.4" stroke-miterlimit="10" points="531.901,211.023 538.117,204.808 544.332,211.023 550.546,204.808 556.762,211.023 562.977,204.808 569.188,211.023 575.403,204.808 581.619,211.023" fill="none"/><polyline stroke="#000" stroke-width="1.4" stroke-miterlimit="10" points="677.602,211.023 683.815,204.808 690.03,211.023 696.246,204.808 702.46,211.023 708.675,204.808 714.891,211.023 721.104,204.808 727.317,211.023" fill="none"/><line stroke="#000" stroke-width="1.4" stroke-miterlimit="10" x1="931.486" y1="246.008" x2="900.267" y2="277.226" fill="none"/><polyline stroke="#000" stroke-width="1.4" stroke-miterlimit="10" points="535.494,149.189 541.149,143.532 546.807,149.189" fill="none"/><polyline stroke="#000" stroke-width="1.4" stroke-miterlimit="10" points="723.727,149.189 718.069,143.532 712.414,149.189" fill="none"/><polygon stroke="#000" stroke-width="1.4" stroke-miterlimit="10" points="861.216,138.576 880.167,127.115 880.167,150.043" fill="none"/><circle stroke="#000" stroke-width="1.4" stroke-miterlimit="10" cx="842.377" cy="138.577" r="8.485" fill="none"/><line stroke="#000" stroke-width="1.4" stroke-miterlimit="10" x1="824.146" y1="138.591" x2="861.578" y2="138.591" fill="none"/><rect x="453.449" y="264.875" transform="matrix(-.707 -.707 .707 -.707 591.219 783.496)" stroke="#000" stroke-width="1.4" stroke-miterlimit="10" width="8.855" height="8.855" fill="none"/><rect x="465.82" y="264.88" transform="matrix(-.707 -.707 .707 -.707 612.334 792.253)" stroke="#000" stroke-width="1.4" stroke-miterlimit="10" width="8.855" height="8.856" fill="none"/><rect x="788.641" y="264.873" transform="matrix(-.707 -.707 .707 -.707 1163.428 1020.509)" stroke="#000" stroke-width="1.4" stroke-miterlimit="10" width="8.855" height="8.855" fill="none"/><rect x="802.015" y="264.782" transform="matrix(-.707 -.707 .707 -.707 1186.265 1029.842)" stroke="#000" stroke-width="1.4" stroke-miterlimit="10" width="8.857" height="8.857" fill="none"/></svg>