<?xml version="1.0" encoding="utf-8"?>
<!-- Generator: Adobe Illustrator 17.1.0, SVG Export Plug-In . SVG Version: 6.00 Build 0)  -->
<!DOCTYPE svg PUBLIC "-//W3C//DTD SVG 1.1//EN" "http://www.w3.org/Graphics/SVG/1.1/DTD/svg11.dtd">
<svg version="1.1" id="Layer_1" xmlns="http://www.w3.org/2000/svg" xmlns:xlink="http://www.w3.org/1999/xlink" x="0px" y="0px"
	 viewBox="0 0 960 463" enable-background="new 0 0 960 463" xml:space="preserve">
<g>
	<path fill="none" stroke="#000000" stroke-miterlimit="10" d="M850.4,241.7c-3.1,0.4-6,0.4-9.1,1c-16.2,2.7-24.3,12.2-24.5,28.7
		c-0.2,11.8,1.7,23.7,3.5,35.3c1.9,12.5,3.7,25.1,3.1,37.8c-0.4,9.1-2.1,17.9-6.2,26.2c-6,11.6-15.8,18.9-28,22.8
		c-11.2,3.5-22.6,3.9-34.5,3.5c0-7.5,0-15.2,0-22.6c4.2-0.2,8.3-0.2,12.2-0.6c15.8-1.5,25.3-11,27.2-26.8c1.2-10.2,0-20.1-1.2-30.3
		c-1.9-13.5-4.8-27-4.6-40.7c0.2-8.7,1.2-17.4,5.2-25.3c4.4-8.7,11.2-14.7,20.3-18.1c1.2-0.4,2.7-1,3.9-1.5c0,0,0-0.2,0.2-0.4
		c-0.6-0.2-1-0.6-1.7-0.6c-16.4-5.2-24.9-16.8-27.4-33.6c-1.7-12.2-0.2-24.5,1.7-36.7c2.1-13.1,4.4-26.2,3.7-39.7
		c-0.2-3.7-0.8-7.5-1.7-11c-3.1-11.6-11.2-17.9-22.8-19.5c-3.9-0.6-8.1-0.4-12.2-0.6c-1,0-1.9,0-3.1,0c0-7.7,0-15.2,0-22.8
		c4.8,0,9.6-0.2,14.1,0c8.5,0.4,16.8,1.9,24.7,5.2c16.6,6.9,26,19.3,29.1,36.7c2.1,11.8,0.8,23.5-0.8,35.3
		c-2.1,15.8-5.2,31.6-5,47.5c0,3.1,0.2,6.2,1,9.3c2.3,11,10,17.6,22.2,19.5c3.3,0.4,6.9,0.6,10.4,1"/>
	<path fill="none" stroke="#000000" stroke-miterlimit="10" d="M109.6,220.9c3.7-0.4,7.5-0.6,11.2-1.2c14.5-2.7,22-11.4,22.2-26.8
		c0-10.8-1.2-21.6-2.3-32.4c-1.7-13.9-4.4-27.8-3.9-42.1c0.4-13.3,3.5-25.5,12.7-35.5c7.9-8.5,17.9-12.7,28.9-14.9
		c8.9-1.9,18.1-1.7,27.2-1.5c0,7.7,0,15.2,0,22.8c-3.1,0-6.2,0-9.1,0c-5.8,0-11.6,1-16.8,3.7c-9.3,5-12.7,13.9-13.7,23.7
		c-1.2,12.2,0.4,24.5,2.3,36.7c2.1,13.5,3.7,27.2,2.7,40.9c-1,12.7-5.4,23.9-16.8,30.9c-3.1,1.9-6.6,3.1-9.8,4.6
		c-0.8,0.4-1.9,0.6-3.1,1.2c0.8,0.4,1.5,0.6,1.9,0.8c16.4,4.8,24.9,16,27.4,32.4c1.9,11.8,0.6,23.5-0.6,35.3
		c-1.5,12.5-3.1,24.9-4.2,37.6c-0.4,5.4,0.4,11,1.9,16.2c3.1,12.2,11.6,19.3,24.3,20.3c4.6,0.4,9.3,0,13.9,0c0,8.1,0,15.6,0,23.3
		c-4.8,0-9.8,0.2-14.5,0c-9.3-0.4-18.3-2.1-26.8-6c-15.2-7.1-23.3-19.3-26.4-35.5c-2.3-12.2-1.2-24.5,0.2-36.7
		c1.7-14.9,3.7-29.9,5-45.1c0.6-7.1-0.6-14.1-4.8-20.1c-5.4-7.7-13.5-10.4-22.2-11.4c-2.1-0.2-4.2-0.2-6.2-0.4"/>
	<line fill="none" stroke="#000000" stroke-miterlimit="10" x1="109.6" y1="220.9" x2="109.6" y2="241.7"/>
	<line fill="none" stroke="#000000" stroke-miterlimit="10" x1="850.4" y1="220.9" x2="850.4" y2="241.7"/>
</g>
</svg>
