<?xml version="1.0" encoding="utf-8"?>
<!-- Generator: Adobe Illustrator 17.1.0, SVG Export Plug-In . SVG Version: 6.00 Build 0)  -->
<!DOCTYPE svg PUBLIC "-//W3C//DTD SVG 1.1//EN" "http://www.w3.org/Graphics/SVG/1.1/DTD/svg11.dtd">
<svg version="1.1" id="Layer_1" xmlns="http://www.w3.org/2000/svg" xmlns:xlink="http://www.w3.org/1999/xlink" x="0px" y="0px"
	 viewBox="0 0 363.3 166" enable-background="new 0 0 363.3 166" xml:space="preserve">
<g>
	<path fill="none" stroke="#000000" stroke-miterlimit="10" d="M360.3,87.8c-1.5,0.2-2.9,0.2-4.4,0.5c-7.8,1.3-11.7,5.9-11.8,13.8
		c-0.1,5.7,0.8,11.4,1.7,17c0.9,6,1.8,12.1,1.5,18.2c-0.2,4.4-1,8.6-3,12.6c-2.9,5.6-7.6,9.1-13.5,11c-5.4,1.7-10.9,1.9-16.6,1.7
		c0-3.6,0-7.3,0-10.9c2-0.1,4-0.1,5.9-0.3c7.6-0.7,12.2-5.3,13.1-12.9c0.6-4.9,0-9.7-0.6-14.6c-0.9-6.5-2.3-13-2.2-19.6
		c0.1-4.2,0.6-8.4,2.5-12.2c2.1-4.2,5.4-7.1,9.8-8.7c0.6-0.2,1.3-0.5,1.9-0.7c0,0,0-0.1,0.1-0.2c-0.3-0.1-0.5-0.3-0.8-0.3
		c-7.9-2.5-12-8.1-13.2-16.2c-0.8-5.9-0.1-11.8,0.8-17.7c1-6.3,2.1-12.6,1.8-19.1c-0.1-1.8-0.4-3.6-0.8-5.3c-1.5-5.6-5.4-8.6-11-9.4
		c-1.9-0.3-3.9-0.2-5.9-0.3c-0.5,0-0.9,0-1.5,0c0-3.7,0-7.3,0-11c2.3,0,4.6-0.1,6.8,0c4.1,0.2,8.1,0.9,11.9,2.5
		c8,3.3,12.5,9.3,14,17.7c1,5.7,0.4,11.3-0.4,17c-1,7.6-2.5,15.2-2.4,22.9c0,1.5,0.1,3,0.5,4.5c1.1,5.3,4.8,8.5,10.7,9.4
		c1.6,0.2,3.3,0.3,5,0.5"/>
	<path fill="none" stroke="#000000" stroke-miterlimit="10" d="M3.5,77.8c1.8-0.2,3.6-0.3,5.4-0.6c7-1.3,10.6-5.5,10.7-12.9
		c0-5.2-0.6-10.4-1.1-15.6c-0.8-6.7-2.1-13.4-1.9-20.3c0.2-6.4,1.7-12.3,6.1-17.1c3.8-4.1,8.6-6.1,13.9-7.2
		c4.3-0.9,8.7-0.8,13.1-0.7c0,3.7,0,7.3,0,11c-1.5,0-3,0-4.4,0c-2.8,0-5.6,0.5-8.1,1.8c-4.5,2.4-6.1,6.7-6.6,11.4
		c-0.6,5.9,0.2,11.8,1.1,17.7c1,6.5,1.8,13.1,1.3,19.7c-0.5,6.1-2.6,11.5-8.1,14.9c-1.5,0.9-3.2,1.5-4.7,2.2
		c-0.4,0.2-0.9,0.3-1.5,0.6c0.4,0.2,0.7,0.3,0.9,0.4c7.9,2.3,12,7.7,13.2,15.6c0.9,5.7,0.3,11.3-0.3,17c-0.7,6-1.5,12-2,18.1
		c-0.2,2.6,0.2,5.3,0.9,7.8c1.5,5.9,5.6,9.3,11.7,9.8c2.2,0.2,4.5,0,6.7,0c0,3.9,0,7.5,0,11.2c-2.3,0-4.7,0.1-7,0
		c-4.5-0.2-8.8-1-12.9-2.9c-7.3-3.4-11.2-9.3-12.7-17.1c-1.1-5.9-0.6-11.8,0.1-17.7c0.8-7.2,1.8-14.4,2.4-21.7
		c0.3-3.4-0.3-6.8-2.3-9.7c-2.6-3.7-6.5-5-10.7-5.5c-1-0.1-2-0.1-3-0.2"/>
	<line fill="none" stroke="#000000" stroke-miterlimit="10" x1="3.5" y1="77.8" x2="3.5" y2="87.8"/>
	<line fill="none" stroke="#000000" stroke-miterlimit="10" x1="360.3" y1="77.8" x2="360.3" y2="87.8"/>
</g>
</svg>
