<?xml version="1.0" encoding="utf-8"?>
<!-- Generator: Adobe Illustrator 17.1.0, SVG Export Plug-In . SVG Version: 6.00 Build 0)  -->
<!DOCTYPE svg PUBLIC "-//W3C//DTD SVG 1.1//EN" "http://www.w3.org/Graphics/SVG/1.1/DTD/svg11.dtd">
<svg version="1.1" id="Layer_1" xmlns="http://www.w3.org/2000/svg" xmlns:xlink="http://www.w3.org/1999/xlink" x="0px" y="0px"
	 viewBox="-147.3 -97.6 984.6 440.2" enable-background="new -147.3 -97.6 984.6 440.2" xml:space="preserve">
<g>
	<path fill="none" stroke="#000000" stroke-miterlimit="10" d="M837.3,136c-4.1,0.6-8,0.6-12.1,1.4c-21.5,3.6-32.3,16.3-32.6,38.1
		c-0.3,15.7,2.2,31.5,4.7,46.9c2.5,16.6,5,33.4,4.1,50.2c-0.6,12.1-2.8,23.7-8.3,34.8c-8,15.5-21,25.1-37.3,30.4
		c-14.9,4.7-30.1,5.2-45.8,4.7c0-9.9,0-20.1,0-30.1c5.5-0.3,11-0.3,16.3-0.8c21-1.9,33.7-14.6,36.1-35.6c1.7-13.5,0-26.8-1.7-40.3
		c-2.5-17.9-6.3-35.9-6.1-54.1c0.3-11.6,1.7-23.2,6.9-33.7c5.8-11.6,14.9-19.6,27-24c1.7-0.6,3.6-1.4,5.2-1.9c0,0,0-0.3,0.3-0.6
		c-0.8-0.3-1.4-0.8-2.2-0.8c-21.8-6.9-33.1-22.4-36.4-44.7c-2.2-16.3-0.3-32.6,2.2-48.8c2.8-17.4,5.8-34.8,5-52.7
		c-0.3-5-1.1-9.9-2.2-14.6c-4.1-15.5-14.9-23.7-30.4-25.9c-5.2-0.8-10.8-0.6-16.3-0.8c-1.4,0-2.5,0-4.1,0c0-10.2,0-20.1,0-30.4
		c6.3,0,12.7-0.3,18.8,0c11.3,0.6,22.4,2.5,32.8,6.9c22.1,9.1,34.5,25.7,38.6,48.8c2.8,15.7,1.1,31.2-1.1,46.9
		c-2.8,21-6.9,41.9-6.6,63.2c0,4.1,0.3,8.3,1.4,12.4c3,14.6,13.2,23.5,29.5,25.9c4.4,0.6,9.1,0.8,13.8,1.4"/>
	<path fill="none" stroke="#000000" stroke-miterlimit="10" d="M-147.3,108.4c5-0.6,9.9-0.8,14.9-1.7c19.3-3.6,29.3-15.2,29.5-35.6
		c0-14.3-1.7-28.7-3-43c-2.2-18.5-5.8-37-5.2-56c0.6-17.7,4.7-33.9,16.8-47.2C-83.8-86.4-70.6-91.9-56-95c11.9-2.5,24-2.2,36.1-1.9
		c0,10.2,0,20.1,0,30.4c-4.1,0-8.3,0-12.1,0c-7.7,0-15.5,1.4-22.4,5C-66.7-55-71.1-43.1-72.5-30.1c-1.7,16.3,0.6,32.6,3,48.8
		c2.8,17.9,5,36.1,3.6,54.4c-1.4,16.8-7.2,31.7-22.4,41.1c-4.1,2.5-8.8,4.1-13,6.1c-1.1,0.6-2.5,0.8-4.1,1.7
		c1.1,0.6,1.9,0.8,2.5,1.1c21.8,6.3,33.1,21.2,36.4,43c2.5,15.7,0.8,31.2-0.8,46.9c-1.9,16.6-4.1,33.1-5.5,49.9
		c-0.6,7.2,0.6,14.6,2.5,21.5c4.1,16.3,15.5,25.7,32.3,27c6.1,0.6,12.4,0,18.5,0c0,10.8,0,20.7,0,30.9c-6.3,0-13,0.3-19.3,0
		c-12.4-0.6-24.3-2.8-35.6-8c-20.1-9.4-30.9-25.7-35-47.2c-3-16.3-1.7-32.6,0.3-48.8c2.2-19.9,5-39.7,6.6-59.9
		c0.8-9.4-0.8-18.8-6.3-26.8c-7.2-10.2-17.9-13.8-29.5-15.2c-2.8-0.3-5.5-0.3-8.3-0.6"/>
	<line fill="none" stroke="#000000" stroke-miterlimit="10" x1="-147.3" y1="108.4" x2="-147.3" y2="136"/>
	<line fill="none" stroke="#000000" stroke-miterlimit="10" x1="837.3" y1="108.4" x2="837.3" y2="136"/>
</g>
</svg>
