<?xml version="1.0" encoding="utf-8"?>
<!-- Generator: Adobe Illustrator 17.1.0, SVG Export Plug-In . SVG Version: 6.00 Build 0)  -->
<!DOCTYPE svg PUBLIC "-//W3C//DTD SVG 1.1//EN" "http://www.w3.org/Graphics/SVG/1.1/DTD/svg11.dtd">
<svg version="1.1" id="Layer_1" xmlns="http://www.w3.org/2000/svg" xmlns:xlink="http://www.w3.org/1999/xlink" x="0px" y="0px"
	 viewBox="0 0 129.2 52.9" enable-background="new 0 0 129.2 52.9" xml:space="preserve">
<g>
	<g>
		<polygon points="129.2,43.2 49.6,43.2 49.6,42.9 129.2,42.9 129.2,43.2 		"/>
		<path d="M50.3,11.8V0.9H56v10.9c0,1.8,0.9,2.6,2.2,2.6c1.3,0,2.2-0.8,2.2-2.5v-11H66v10.7c0,5.6-3.2,7.8-7.9,7.8
			C53.5,19.5,50.3,17.2,50.3,11.8"/>
	</g>
	<polygon points="67.4,0.9 72.7,0.9 77.9,8.6 77.9,0.9 83.3,0.9 83.3,19.1 78.3,19.1 72.9,11 72.9,19.1 67.4,19.1 	"/>
	<polygon fill="#5299D3" points="90.1,10.2 85.2,10.2 85.2,9.7 90.1,9.7 90.1,4.6 90.7,4.6 90.7,9.7 95.5,9.7 95.5,10.2 90.7,10.2 
		90.7,15.4 90.1,15.4 	"/>
	<polygon points="55,31.7 49.2,20 55.4,20 57.9,25.9 60.4,20 66.4,20 60.6,31.7 60.6,38.1 55,38.1 	"/>
	<g>
		<path d="M76.2,29.2v-0.4c0-2.7-1.1-4.3-3-4.3c-1.8,0-2.9,1.6-2.9,4.3v0.4c0,2.7,1.1,4.3,3,4.3C75.1,33.5,76.2,31.9,76.2,29.2
			 M64.7,29.3v-0.5c0-5.4,3.6-9.3,8.6-9.3c5,0,8.6,3.8,8.6,9.2v0.5c0,5.4-3.7,9.3-8.6,9.3C68.3,38.5,64.7,34.7,64.7,29.3"/>
		<path d="M82.6,30.8V20h5.7v10.9c0,1.8,0.9,2.6,2.2,2.6c1.3,0,2.2-0.8,2.2-2.5V20h5.7v10.7c0,5.6-3.2,7.8-7.9,7.8
			C85.8,38.5,82.6,36.2,82.6,30.8"/>
	</g>
	<polygon points="103,24.9 98.6,24.9 98.6,20 113,20 113,24.9 108.6,24.9 108.6,38.1 103,38.1 	"/>
	<polygon points="113.3,20 118.9,20 118.9,26.5 123.3,26.5 123.3,20 128.9,20 128.9,38.1 123.3,38.1 123.3,31.5 118.9,31.5 
		118.9,38.1 113.3,38.1 	"/>
	<path d="M52.9,51.2l-1-2.7l-1,2.7H52.9z M51.6,48.1H52l1.9,4.8h-0.4L53,51.5h-2.3l-0.5,1.3h-0.3L51.6,48.1z"/>
	<g>
		<path d="M57.8,50.5L57.8,50.5c0-1.3-0.7-2.2-1.7-2.2c-1,0-1.7,0.9-1.7,2.1v0c0,1.2,0.7,2.1,1.7,2.1C57.1,52.6,57.8,51.7,57.8,50.5
			 M54.2,50.5L54.2,50.5c0-1.4,0.8-2.5,2-2.5c1.2,0,2,1,2,2.4v0c0,1.4-0.8,2.4-2,2.4C55,52.9,54.2,51.9,54.2,50.5"/>
	</g>
	<polygon points="59.8,48.4 58.5,48.4 58.5,48.1 61.6,48.1 61.6,48.4 60.2,48.4 60.2,52.9 59.8,52.9 	"/>
	<polygon points="62.3,48.1 65.2,48.1 65.2,48.4 62.6,48.4 62.6,50.3 64.9,50.3 64.9,50.6 62.6,50.6 62.6,52.5 65.2,52.5 65.2,52.9 
		62.3,52.9 	"/>
	<path d="M68.9,51.2l-1-2.7l-1,2.7H68.9z M67.6,48.1H68l1.9,4.8h-0.4L69,51.5h-2.3l-0.5,1.3h-0.3L67.6,48.1z"/>
	<g>
		<path d="M72,50.6c0.9,0,1.4-0.4,1.4-1.1v0c0-0.7-0.5-1.1-1.3-1.1h-1.2v2.2H72z M70.6,48.1h1.6c0.5,0,1,0.2,1.2,0.4
			c0.2,0.2,0.4,0.6,0.4,0.9v0c0,0.8-0.5,1.2-1.2,1.4l1.4,2h-0.4l-1.3-2h-1.2v2h-0.3V48.1z"/>
		<path d="M78.1,50.5L78.1,50.5c0-1.3-0.7-2.2-1.7-2.2c-1,0-1.7,0.9-1.7,2.1v0c0,1.2,0.7,2.1,1.7,2.1C77.4,52.6,78.1,51.7,78.1,50.5
			 M74.4,50.5L74.4,50.5c0-1.4,0.8-2.5,2-2.5c1.2,0,2,1,2,2.4v0c0,1.4-0.8,2.4-2,2.4C75.2,52.9,74.4,51.9,74.4,50.5"/>
	</g>
	<path d="M81.8,51.2l-1-2.7l-1,2.7H81.8z M80.6,48.1H81l1.9,4.8h-0.4l-0.5-1.3h-2.3l-0.5,1.3h-0.3L80.6,48.1z"/>
	<polygon points="85,48.1 85.4,48.1 88.1,52.2 88.1,48.1 88.4,48.1 88.4,52.9 88.2,52.9 85.4,48.7 85.4,52.9 85,52.9 	"/>
	<polygon points="89.6,48.1 92.4,48.1 92.4,48.4 89.9,48.4 89.9,50.3 92.2,50.3 92.2,50.6 89.9,50.6 89.9,52.5 92.4,52.5 92.4,52.9 
		89.6,52.9 	"/>
	<polygon points="93,48.1 93.4,48.1 94.7,52.3 95.9,48.1 96.1,48.1 97.3,52.3 98.6,48.1 98.9,48.1 97.5,52.9 97.2,52.9 96,48.7 
		94.8,52.9 94.5,52.9 	"/>
	<polygon points="101,52.7 103.7,48.4 101.1,48.4 101.1,48.1 104.2,48.1 104.2,48.3 101.4,52.5 104.2,52.5 104.2,52.9 101,52.9 	"/>
	<polygon points="104.9,48.1 107.8,48.1 107.8,48.4 105.3,48.4 105.3,50.3 107.5,50.3 107.5,50.6 105.3,50.6 105.3,52.5 107.8,52.5 
		107.8,52.9 104.9,52.9 	"/>
	<path d="M111.5,51.2l-1-2.7l-1,2.7H111.5z M110.3,48.1h0.3l1.9,4.8h-0.4l-0.5-1.3h-2.3l-0.5,1.3h-0.3L110.3,48.1z"/>
	<polygon points="113.2,48.1 113.5,48.1 113.5,52.5 115.8,52.5 115.8,52.9 113.2,52.9 	"/>
	<path d="M119.5,51.2l-1-2.7l-1.1,2.7H119.5z M118.3,48.1h0.3l1.9,4.8h-0.4l-0.5-1.3h-2.3l-0.5,1.3h-0.3L118.3,48.1z"/>
	<polygon points="121.2,48.1 121.5,48.1 124.2,52.2 124.2,48.1 124.6,48.1 124.6,52.9 124.3,52.9 121.5,48.7 121.5,52.9 121.2,52.9 
			"/>
	<g>
		<path d="M126,48.4v4.1h0.9c1.1,0,1.9-0.8,1.9-2v0c0-1.2-0.7-2-1.9-2H126z M125.7,48.1h1.3c1.3,0,2.2,1,2.2,2.4v0
			c0,1.4-0.9,2.4-2.2,2.4h-1.3V48.1z"/>
		<path fill="#5299D3" d="M44.8,23.9c-1.1,1.1-2,2.4-3,3.8c0.5-0.9,0.9-1.7,1-2.9c0.1-1.8-0.7-3.5-0.6-5.4c0,0,0.1,0,0,0
			c-1.4,2.8-0.5,8-2.2,10.5c3.4-2.4,7.9-4.1,7.4-10.1C47.1,21.6,45.9,22.8,44.8,23.9 M42.3,31.4c1.7-1.2,3.2-2.9,3.6-5.3
			c-1.1,2.6-4.1,3.4-6.3,4.7c-0.8,0.5-1.3,1.2-2.1,1.6c1-0.9,1.9-2,2.3-3.5c0.4-1.6,0.3-3.3,1-4.8c0,0,0.1,0,0,0
			c-1.1,1.3-2.1,2.9-2.7,4.7c-0.6,1.7-1.1,3.3-2.1,4.4c-0.1,0.1-0.4,0.3-0.3,0.4c1.2-0.4,2.5-0.5,3.7-0.8
			C40.3,32.6,41.4,32.1,42.3,31.4 M36.3,36c2.9-0.2,5-2,6-4c-1.1,1.6-3.4,1.9-5.9,2.1c-1.4,0.1-2.8,0.4-4,0.5c3.1-0.4,3.7-3.3,5-5.5
			c-2.9,1.7-4.2,5-8.1,5.7C31.6,35.1,33.8,36.2,36.3,36 M9.1,36.4c1.2,1.1,2.5,2.2,4.5,2.3c2.1,0.2,3.5-0.6,4.7-1.3
			c1.4-0.9,2.4-2.3,4.5-1.7c-2.1,1-3.8,2.2-5.3,3.8c0.4,0.3,0.6,0.6,1,0.8c1-1.4,2.2-2.5,3.7-3.5c0.4-0.3,1.2-0.8,1.6-0.8
			c0.4,0,1.1,0.6,1.5,0.8c1.5,1,2.6,2.2,3.8,3.4c0.3-0.3,0.7-0.5,0.9-0.9c-1.5-1.4-3.3-2.6-5.2-3.7c0.6-0.1,1.5-0.1,2,0.1
			c1,0.4,1.7,1.2,2.7,1.8c0.9,0.5,2,1,3.4,1.1c2.7,0.2,4.4-1.1,5.6-2.5c-2.5,1.8-5.6,0.8-7.8-0.3c-1.7-0.8-4.1-1.4-6.2-0.8
			c-0.6,0.2-0.9,0.1-1.5,0c-2.3-0.5-4.4,0.2-6,0.9c-1.2,0.5-2.4,1.2-3.8,1.3C11.6,37.3,10.1,36.9,9.1,36.4 M11,34.3
			c-2.5-0.1-4.7-0.7-5.9-1.9c1.3,1.9,3,3.6,5.9,3.8c2.7,0.2,4.9-0.9,7.2-1.3c-4-0.6-5.3-4-8.1-5.5c0.8,1,1.2,2.4,1.9,3.4
			c0.7,1.1,1.7,1.6,3.2,2C13.9,34.6,12.5,34.4,11,34.3 M1.5,26.4c0.6,2.4,1.9,4.1,3.7,5.3c1.9,1.3,4.2,1.5,6.8,2.1
			c-1.3-1.1-1.9-2.9-2.6-4.8c-0.6-1.9-1.6-3.5-2.8-4.6c0.7,1.4,0.7,3.2,1.1,4.7c0.4,1.6,1.4,2.6,2.3,3.4c-0.8-0.4-1.4-1-2.1-1.5
			C5.7,29.6,2.7,29.1,1.5,26.4 M4.1,25.8C2.7,24,0.5,22.7,0,20.1c-0.3,6.2,4.1,7.6,7.5,10c-1.7-2.6-0.8-7.7-2.3-10.5
			c0.2,1.7-0.6,3.2-0.6,4.9c0,1.3,0.5,2.4,1,3.3c0,0-0.1,0-0.1,0C5,27.2,4.6,26.5,4.1,25.8 M0.6,13.1c-1.1,2.6-0.5,6.4,0.9,8.2
			c0.7,1,1.5,1.9,2.2,2.9c0.1,0.1,0.2,0.3,0.3,0.3C3.7,23,4,21.8,4.4,20.6c0.6-2,1.3-4,1.1-6.4c-0.5,2.5-2.7,3.8-2.5,6.9
			c0,0.4,0.2,0.9,0.2,1.3c-0.4-1.5-0.7-2.8-1.3-4.2C1.2,16.6,0.4,14.9,0.6,13.1 M3.2,14.1C3,14.6,3,15.2,2.7,15.8
			c0-0.8,0.2-1.6,0.2-2.5c0-2.2-0.9-4.9,0.2-6.4c-1,1.1-1.9,2.8-2,4.6c-0.2,2.9,1.3,4.6,1.6,6.9c0.7-3.6,3.8-4.9,4.1-8.7
			c-0.7,1.2-1.9,1.9-2.7,3C3.7,13.2,3.4,13.6,3.2,14.1 M6.6,3.9C4.5,4.5,3.4,6.4,3.3,8.6c-0.1,1.2,0.2,2.9,0.1,4.1
			c1.4-2.9,5.3-3.5,5.5-7.4c-1,2.4-4,2.8-4.9,5.3C5,8.5,4.9,5.1,6.6,3.9 M11.2,1.6C9,2.4,7.3,3.2,6.3,5.1C5.9,5.9,5.9,6.8,5.4,7.8
			c0.2,0,0.3-0.1,0.4-0.2c0.4-0.4,0.8-0.7,1.3-1C8.7,5.1,9.7,2.9,11.2,1.6 M39.9,17.2c-0.1,5.1-2,8.4-4.5,11.1
			c-0.5-0.4-0.9-0.9-1.5-1.4c-0.1-0.1-0.5-0.5-0.5-0.5c0-0.1,0.6-0.7,0.8-0.9c1.6-2,3.1-5,3.2-8.3H39.9z M39.9,16.6h-2.6
			c-0.1-4.2-1.7-7-3.8-9.2c0.6-0.6,1.2-1.3,1.8-1.7C37.8,8.3,39.7,11.7,39.9,16.6 M34.9,5.2c-0.5,0.7-1.1,1.2-1.8,1.8
			c-1.9-1.8-4.2-3.1-7.3-3.6c0.1-0.1,0.4,0,0.5-0.2c-0.6-0.5-1.4,0.2-2.3,0V0.6C28.9,0.9,32.2,2.8,34.9,5.2 M24.1,14.7
			c0.1,0,0-0.2,0-0.2c0.1,0.2,0.3,0.2,0.4,0.3c-0.1,0.2,0,0.4,0.2,0.3c0,0.3,0,0.5,0.2,0.6c0.1,0,0.2-0.1,0.3-0.2
			c0.2,0.1,0.1,0.3,0.2,0.1c0.1,0.2-0.3,0.3-0.3,0.6c0,0.1,0.1-0.1,0.2,0c-0.1,0.2,0,0.3,0,0.4c-0.5-0.1-0.6,0.3-0.9,0.4
			c0.1,0.1,0.3-0.1,0.5,0c0.1,0.3,0.7,0.1,0.8,0.4c0.2,0,0.3,0,0.4,0c-0.1,0,0,0.3-0.2,0.2c0.2,0.2,0.1,0.1-0.1,0.1
			c0.1,0.3,0.5,0.3,0.9,0.4c-0.1,0.1-0.3,0.2-0.4,0.1c-0.1,0.2-0.3,0.3-0.4,0.5c-0.2,0-0.2-0.2-0.4-0.1c0.1,0.2,0.4,0.2,0.5,0.4
			c0.1,0.1-0.2,0.3,0.1,0.4c0,0.1-0.1,0.1-0.2,0.2c-0.1-0.1-0.1-0.2-0.3-0.2c0.1-0.1,0.3-0.1,0.3-0.2c-0.2-0.6-1-0.3-1.2-0.4
			c0,0.3-0.2,0.9-0.1,1.5c-2.3,0.4-4-0.8-4.3-2.9c0.2,0,0.1-0.2,0.3-0.1c0-0.1-0.1-0.1-0.1-0.2c0.2-0.1,0.3-0.2,0.4-0.4
			c-0.2-0.1-0.3-0.1-0.5,0c-0.1-0.3,0.2-0.5,0.4-0.7h0.2c0.1,0.1,0.1,0.3,0.2,0.4c-0.1,0.1-0.2,0-0.1,0.2c0,0,0.4-0.1,0.6-0.2
			c0.1,0,0.2,0.1,0.2,0.2c0.1-0.1,0.1-0.2,0.1-0.3c-0.1-0.1-0.1,0.1-0.3,0c0-0.1-0.1-0.1,0-0.2c0.1,0.3,0.4,0,0.6,0
			c0-0.2,0-0.2-0.1-0.3c-0.1,0.1-0.1,0.1-0.3,0c0.3-0.5,1.1-0.3,1.2-1c0.1,0,0.1-0.1,0.2,0c0-0.1,0-0.2-0.1-0.2
			c0-0.1,0.2-0.1,0.2-0.3c0-0.1,0-0.3-0.2-0.2c0-0.2,0.2-0.2,0.3-0.3c-0.4,0.1-0.6,0.4-0.8,0.7c-0.4,0.1-0.5-0.2-0.8-0.2
			c0.4-0.4,1.1-0.6,1.8-0.6c0,0.1,0,0.2,0.1,0.2C23.6,13.8,23.6,14.7,24.1,14.7 M23.5,12.8c-0.9,0-1.5,0.4-2.1,0.7
			c0-0.5-0.2-0.8-0.6-1h-0.4c-0.4-0.3-1.1-0.2-1.4-0.5c1.1-1.1,2.5-1.9,4.6-2V12.8z M23.5,9.4c-2.3,0.1-3.7,1-5,2.1
			c-0.5-0.6-1.2-1.1-1.7-1.7c1.7-1.5,3.7-2.7,6.7-2.8V9.4z M23.5,6.4c-3.2,0.1-5.3,1.4-7.1,3c-0.7-0.5-1.2-1.1-1.8-1.8
			c2.2-2,4.8-3.6,8.9-3.7V6.4z M23.5,3.2c-4.3,0.2-7,1.9-9.4,3.9c-0.5-0.5-0.9-0.9-1.4-1.5c-0.1-0.1-0.5-0.4-0.5-0.4
			c0-0.2,0.7-0.7,1-0.9c2.5-2.1,5.9-3.7,10.3-3.8V3.2z M13.8,7.6c-1.9,2.2-3.3,4.8-3.6,8.5C10.1,16.4,10,16,9.8,16
			c-0.1,0.2,0.1,0.3,0.1,0.5c-0.1,0-0.3-0.3-0.3,0c-0.1-0.1-0.1-0.5-0.2-0.6c-0.2,0.1-0.2-0.1-0.3-0.3c-0.3,0-0.2,0.5-0.7,0.4
			c-0.1,0.1-0.2,0.4-0.2,0.6H7.5c0-5,1.9-8.2,4.3-11C12.5,6.3,13.1,6.9,13.8,7.6 M7.5,17.1h0.5c-0.3,0.7,0,1.5,0.1,2.1
			c0.1-0.6,0.1-1.2,0.5-1.4C8.9,18.2,9,18.7,9.3,19c0.1-0.1,0.1-0.4,0.1-0.6c0.3,0.3,0.4,0.8,0.7,1.1c0.1-0.1-0.1-0.4,0.1-0.4
			c0,0.2,0,0.4,0.1,0.6c0,0.2,0.2,0.2,0.3,0.3c0.6,2.6,1.8,4.4,3.3,6.1c-0.6,0.5-1.2,1.1-1.7,1.7C9.6,25.3,7.8,21.9,7.5,17.1
			 M12.5,28.3c0.5-0.7,1.2-1.2,1.7-1.8c2.3,2.1,5.1,3.7,9.3,3.9V33C18.4,32.8,15.2,30.8,12.5,28.3 M18.5,12.3
			c0.1,0.1,0.2,0.1,0.2,0.3C18.5,12.6,18.3,12.5,18.5,12.3 M16.4,10.2c0.6,0.6,1.2,1.1,1.7,1.7c-0.7,0.6-0.9,1.6-1.6,2.1
			c0,0.1-0.1,0.2-0.1,0.3c-0.5,0.2-0.7,0.6-1,1c0,0.1,0.2,0.2,0.1,0.4c-0.2,0.1-0.4,0-0.7,0c-0.1-0.3-0.1-0.7-0.3-0.9
			c-0.2,0-0.1,0.2-0.2,0.1c0.1-0.2-0.1-0.3-0.2-0.2C14.4,13,15.3,11.4,16.4,10.2 M10.8,16.6c0.2-3.8,1.6-6.4,3.4-8.5
			c0.7,0.5,1.2,1.2,1.8,1.7c-1,1.1-1.8,2.4-2.3,4c-0.2,0.5-0.1,1.2-0.4,1.7c-0.1,0.3-0.6,0.6-0.5,1.1H10.8z M11.7,17.2
			c0.2-0.1,0.6,0,0.9,0C12.5,17.5,12,17.2,11.7,17.2 M14.3,25.7c-0.9-0.9-1.6-2-2.2-3.2c0.4,0.1,0.8,1,1.5,0.8
			c0.7,0.4,0.9,1.2,1.7,1.5C14.9,25.1,14.6,25.4,14.3,25.7 M23.5,27.3v2.5c-4-0.1-6.6-1.7-8.8-3.7c0.4-0.6,1-1,1.5-1.5
			c0.4,0.1,0.6,0.4,1.1,0.4C18.8,26.3,20.7,27.2,23.5,27.3 M18.5,22.2c1.2,1,2.5,1.8,4.4,2.1c-0.2,0.2-0.6,0.2-0.7,0.4
			c-0.6,0-0.9,0.2-1.3,0.4c0.2,0.4-0.3,0.5-0.3,0.7c0,0.3,0.3,0.2,0.4,0.5c-1.1-0.3-2.4-0.9-3.3-1.7c-0.1-0.1-0.9-0.6-0.9-0.8
			c0-0.1,0.6-0.6,0.8-0.8C18,22.7,18.3,22.5,18.5,22.2 M18.2,21.8c-0.6,0.6-1.1,1.2-1.7,1.7c-0.4-0.5-0.5-1.3-0.8-1.8
			c0.2,0.1,0.3-0.3,0.3-0.4c0-0.3-0.2-0.6-0.3-1c-0.1-0.4,0.1-0.9,0.1-1.4c0-0.3-0.1-0.7-0.1-0.9c0-0.3,0.2-0.5,0-0.7
			c0.1-0.1,0.5,0,0.8,0C16.4,19.2,17.2,20.6,18.2,21.8 M15.7,15.8c-0.1-0.7,0.3-0.8,0.8-0.7c0,0.4-0.2,0.9-0.1,1.5h-0.7
			c0-0.2-0.1-0.3-0.1-0.4C15.5,16,15.6,15.9,15.7,15.8 M17.3,15.7c0.1,0.3,0.3,0,0.7,0.1c0.2,0.3,0.2,0.7,0.7,0.7
			c-0.5,0.1-1.2,0-1.8,0c0-0.6,0.6-0.9,0.3-1.4c-0.1,0.2-0.1,0.5-0.2,0.6c-0.1-0.3,0.1-0.6,0.1-0.9c0.4-0.3,0.2-1,0.5-1.3H18
			c0.2,0.1,0.2,0.3,0.4,0.4c-0.1,0.6-0.2,1.1-0.5,1.6C17.6,15.5,17.4,15.6,17.3,15.7 M19.4,12.4c0.1-0.1,0.4,0.1,0.6,0.1
			C19.8,12.7,19.5,12.5,19.4,12.4 M20.6,19.4c-0.7,0.7-1.3,1.4-2.1,2c-0.9-1.1-1.6-2.4-1.7-4.3h2.2c0.1,0,0.2,0.2,0.2,0.3
			c0.2-0.1,0.2-0.1,0.4-0.2C19.8,18.1,20.1,18.8,20.6,19.4 M23.5,23.3c-0.2-0.1-0.4-0.1-0.7-0.1c-0.1,0-0.1,0.3-0.1,0.4
			c-1.6-0.2-2.7-1-3.7-1.8c0.6-0.8,1.3-1.3,2-2.1c0.7,0.6,1.4,1,2.6,1.1v0.5c-0.1,0-0.2,0.1-0.2,0.2c0,0.2,0.1,0.2,0.2,0.4
			c0,0.2-0.1,0.2-0.2,0.3c0,0.1,0.1,0.1,0.2,0.1c-0.1,0.1-0.2,0.1-0.2,0.1c0,0.2,0.2-0.1,0.2,0C23.3,22.8,23.5,22.9,23.5,23.3
			 M25.3,19.9c-0.1-0.1,0.1-0.3,0.1-0.1C25.4,19.9,25.3,19.9,25.3,19.9 M24,20.9c0.1,0,0.2,0,0.3,0c0.1,0.2,0.1,0.4,0.2,0.6
			c0.2,0,0.3-0.1,0.3-0.2c0.2,0.1,0.2,0.4,0.4,0.5c0.4,0,0.2-0.5,0.3-0.7c0-0.2-0.2-0.2-0.2-0.4c0.1,0,0.1-0.1,0.2-0.1
			c0.2,0,0.1,0.2,0.3,0.2c0.3,0,0.2-0.3,0.5-0.3c0,0.2-0.2,0.2-0.3,0.3c0,0.2,0.2,0.1,0.1,0.3c-0.1,0-0.2,0-0.2,0.1
			c0.2,0.6-0.6,0.7-0.9,0.7c-0.1-0.1,0-0.3,0-0.4c-0.1,0-0.2,0.1-0.2,0.2c0,0.2,0.2,0.2,0.1,0.4c-0.4,0.1-0.4,0.4-0.7,0.5
			C24,22.2,24,21.5,24,20.9 M24,27.3c0.7,0,1.3-0.2,1.9-0.1c0,0.2-0.1,0.2-0.1,0.4c0.4,0.2,1,0.3,1.3,0.7c-0.1,0.2-0.3,0.3-0.4,0.6
			c0.1,0.3,0.5,0.3,0.8,0.4c-1,0.4-2.2,0.5-3.5,0.6V27.3z M32.3,26c0.1,0.1,0.2,0.1,0.3,0.3c-0.2,0.2-0.2,0.2-0.5,0.1
			C32.1,26.3,32.2,26.2,32.3,26 M31.3,6.3c0.5,0.4,1,0.7,1.4,1.2C32.1,7.6,31.8,6.7,31.3,6.3C31.3,6.4,31.3,6.3,31.3,6.3 M30,9.2
			c0.2,0.1,0.5,0.3,0.4,0.5C30.2,9.8,30,9.5,30,9.2 M24,9.4V7c2.4,0.1,4.1,0.9,5.5,1.9c0,0.1-0.1,0.2-0.1,0.4
			c0.2,0.3,0.5,0.5,0.8,0.6c-0.4,0.6-1,1-1.4,1.5C27.6,10.3,26.1,9.5,24,9.4 M26.6,17.7c0.1-0.1,0.2,0.1,0.4,0.1
			C27,17.9,26.6,17.9,26.6,17.7 M28.8,21.4c0,0.1-0.1,0.1,0,0.2c-0.1,0-0.1-0.1-0.2-0.1C28.5,21.4,28.6,21.4,28.8,21.4 M28.2,21.9
			c-0.3,0.2-0.3,0.6-0.8,0.6c-0.1-0.2,0-0.6,0.1-0.7C27.8,22.1,28,21.5,28.2,21.9 M28.8,12.5c-0.1,0-0.1,0.2-0.1,0.4
			c-0.2-0.1-0.4,0-0.5-0.1c0.2-0.4,0.6-0.7,0.9-0.2C29.1,12.6,29,12.4,28.8,12.5 M29,13.1c0-0.2,0.1-0.4,0.1-0.4
			c0.2,0,0.4,0.4,0.5,0.7c-0.1,0-0.2-0.1-0.4-0.2c0,0.2,0.2,0.3,0.2,0.5c-0.1-0.1-0.3-0.1-0.4-0.2c0,0,0.1-0.1,0.1-0.1
			C29.2,13.3,29,13.2,29,13.1 M31.8,11.3c0-0.1,0.2,0.1,0.2,0.2c-0.1,0-0.1,0-0.1,0C31.8,11.6,32,11.3,31.8,11.3 M30.1,12.9
			c-0.3-0.4-0.5-0.8-0.9-1.1c0.5-0.6,1.1-1.1,1.7-1.7c0.4,0.2,0.7,0.7,1,1.1c0,0.1-0.1,0.1-0.1,0.3c-0.4-0.2-0.1,0.1,0,0.3
			c-0.2,0-0.3-0.4-0.5-0.4c0.2,0.3,0.3,0.5,0.6,0.7c0.2,0,0.3,0,0.3-0.2c0.4,0.7,1.1,1.5,0.9,2.6c-0.5-0.2-0.3,0.5-0.4,0.8
			c-0.4,0.1-0.2-0.6-0.2-0.8c-0.2-0.2-0.2-0.5-0.6-0.5c-0.1,0.1-0.1,0.4-0.2,0.6c-0.2,0-0.3-0.2-0.3-0.4c0.1,0,0.2,0,0.2,0
			c0-0.2-0.2-0.1-0.4-0.2C30.9,13.3,30.6,12.9,30.1,12.9 M33.6,17.2c-0.1,1.9-0.6,3.3-1.3,4.6c-0.1,0-0.1,0.1-0.2,0.1
			c-0.2,0.5-0.4,0.9-0.7,1.2c-0.3,0-0.6,0.2-0.9,0.4c-0.1-0.2-0.5-0.3-0.4-0.5c0.2,0,0.4-0.1,0.6,0c0.5-0.5,0.9-1.5,0.7-2.4
			c-0.4,0.1-0.5,0.5-0.6,0.9c-0.2,0-0.4,0.2-0.6,0.1c1-0.4,1-1.7,1.7-2.2c0-0.1,0.1-0.2,0-0.4c0.8,0.1,1.5-0.9,0.6-1.1
			c-0.1-0.2-0.2-0.5-0.3-0.7H33.6z M33,15.6c0.2-0.3,0.1-0.7,0.3-1c0.2,0.6,0.3,1.3,0.3,2H32c-0.2-0.3,0.1-0.6,0.3-0.8
			c0-0.2-0.1-0.2-0.1-0.4c0.1-0.1,0.3-0.2,0.5-0.2c0-0.2,0.2-0.3,0.2-0.5C33,14.9,32.9,15.4,33,15.6 M29,23c0.3-0.1,0.4,0.3,0.6,0.4
			c-0.2,0.1-0.4,0-0.6,0C29.1,23.2,29,23.1,29,23 M28.6,22.4c0.2,0.1,0.1,0.3,0.2,0.5c-0.5,0.4-1,0.8-1.7,0.9
			c-0.1,0.1-0.2,0.2-0.2,0.4c-0.4,0.2-0.9,0-1.4,0.1c0-0.4,0.5-0.4,0.7-0.5C27.1,23.5,28,23,28.6,22.4 M25.6,23.4
			c-0.4,0.2-0.9,0.2-1.5,0.3c0.1-0.1,0.2-0.2,0.3-0.3C25,23.3,25.1,23.2,25.6,23.4 M25.5,23c0.2,0,0.6,0.1,0.9,0.1
			C26.2,23.4,25.6,23.3,25.5,23 M24.9,12.9c-0.4,0-0.6-0.1-0.9-0.1V10c2,0.1,3.2,0.8,4.4,1.7c-0.2-0.1-0.9-0.3-0.9,0.3
			c-0.1-0.1-0.3-0.2-0.5-0.1c0,0.1,0.2,0.2,0.3,0.4c0.4,0,0.4-0.5,0.8-0.3c0,0.2-0.4,0.4-0.5,0.6c-0.2,0-0.3,0-0.4,0
			c-0.1,0-0.5,0.4-0.4,0.5c0,0,0.1,0.1,0.1,0c-0.3,0.8-1.1,0-1.7-0.1c0.3-0.2,0.6-0.5,0.5-0.9C25.4,12.2,24.9,12.4,24.9,12.9
			 M30.5,7.8c0.3,0.3,0.7,0.7,1.1,0.8c-0.2,0.3-0.5,0.5-0.8,0.7c-1.7-1.6-3.7-2.7-6.8-2.8V3.9c0.2,0,0.3,0.2,0.5,0.2
			c0.2,0-0.1-0.2,0-0.2C26.3,4,27.7,4.5,29.1,5c-0.2,0.2-0.8,0.1-0.9,0.4c0.4,0.7,1.2,1.1,1.4,2c0.5-0.3,0.8,0,1.1,0.3
			C30.8,7.8,30.5,7.6,30.5,7.8 M33,8c0-0.1,0.1-0.1,0.1-0.2c0.2,0.1,0.3,0.4,0.5,0.5C33.5,8.4,33.2,8,33,8 M34.4,9.7
			c0.4,0.3,0.7,0.9,0.9,1.4c0.7,1.5,1.3,3.3,1.3,5.6h-2.5c-0.1-3.2-1.3-5.3-2.9-7c0.2-0.3,0.5-0.5,0.7-0.7c0.2,0.3,0.6,0.2,1,0.5
			C33.6,9.8,34.2,11,34.4,9.7 M33.4,24.5c0.6,0.5-0.1,1-0.4,1.4c-0.3-0.2-0.5-0.4-0.3-0.8c-0.1-0.4-0.4-0.3-0.8-0.4
			c0-0.9,0.4-1.3,0.5-2.1c1-1.4,1.7-3.2,1.8-5.5h2.5c-0.1,2.9-1.1,5.1-2.2,7c-0.1-0.3-0.3-0.7-0.4-1C33.4,23.2,33.8,24.2,33.4,24.5
			 M24,30.4c0.9-0.1,1.7-0.1,2.6-0.3c1-0.2,1.7-0.8,2.4-0.2c1.3-0.5,2.5-1.1,3-2.4c0.3-0.2,0.7-0.5,0.9-0.8c0.7,0.6,1.4,1.2,2,1.9
			c-2.6,2.5-6,4.2-11,4.4V30.4z M40.5,15.8c-0.4-5.1-2.7-8.7-5.5-11.3C32.3,2,27.9-0.3,22.7,0c-1.3,0.1-2.5,0.3-3.7,0.6
			c-3.3,0.9-5.9,2.6-7.8,4.8c-2.5,2.8-4.7,7-4.2,12.5c0.4,4.9,2.6,8.6,5.6,11.3c2.8,2.6,7.2,4.7,12.3,4.4c5.1-0.3,8.8-2.3,11.5-5.3
			C38.8,25.4,41,21.3,40.5,15.8 M41.8,7.5c-0.5-1.6-1-3-2-4c-1-1.1-2.4-1.5-3.9-2.1c0,0-0.1,0,0,0c1.4,1.1,2.2,2.8,3.5,4
			c0.6,0.6,1.2,1.2,1.8,1.7C41.4,7.3,41.6,7.5,41.8,7.5 M44,12.4c-0.3-1.4,0-2.9,0-4.3c-0.1-2.4-1.5-3.9-3.4-4.5c0,0,0-0.1,0,0
			c1.9,1.3,1.7,4.6,2.8,6.7C42.9,9.6,42.5,9,42,8.4c-1.2-1.2-3-1.7-3.7-3.4C38.6,9,42.4,9.6,44,12.4 M44.8,18.2c0.2-2,1.4-3.7,1.5-6
			c0-2.3-1-4.4-2.1-5.6c1,1.6,0.5,3.8,0.4,5.9c0,1.1,0.1,2.1,0.1,3c-0.3-3.2-2.9-4-4.3-6.1C40.9,13.3,43.9,14.6,44.8,18.2
			 M46.3,20.7c1.2-1.9,1.6-5.8,0.4-7.9c0.4,2.9-1.3,4.9-1.9,7.2c-0.2,0.7-0.2,1.5-0.6,2.1c0.1-0.4,0.2-0.7,0.3-1.1
			c0.3-3.3-2-4.6-2.6-7c-0.1,1.7,0.3,3.3,0.7,4.7c0.5,1.8,1.4,3.4,0.9,5.7C44.2,23.1,45.4,22.1,46.3,20.7"/>
	</g>
</g>
</svg>
